SplineFontDB: 1.0
FontName: DBThaiTextBold
FullName: DBThaiTextBold
FamilyName: DBThaiText
Weight: Bold
Copyright: Typeface (c) The Monotype Corporation plc. Data (c) The Monotype Corporation plc/Type Solutions Inc. 1990-1992. All Rights Reserved
Version: 001.000
ItalicAngle: 0
UnderlinePosition: -477
UnderlineWidth: 205
Ascent: 1638
Descent: 410
FSType: 0
PfmFamily: 17
TTFWeight: 700
TTFWidth: 5
Panose: 2 0 8 3 0 0 0 0 0 0
LineGap: 184
VLineGap: 0

LangName: 1033 "" "" "" "PfaEdit : DBThaiTextBold : 13-0-2003" 
Encoding: compacted
DisplaySize: -36
AntiAlias: 1
BeginChars: 258 258
StartChar: .notdef
Encoding: 0 -1
OldEncoding: 0
Width: 1024
Flags: W
Fore
127 0 m 1
 127 1720 l 1
 897 1720 l 1
 897 0 l 1
 127 0 l 1
256 127 m 1
 768 127 l 1
 768 1593 l 1
 256 1593 l 1
 256 127 l 1
EndSplineSet
EndChar
StartChar: exclam
Encoding: 3 33
OldEncoding: 33
Width: 387
Flags: W
Fore
176 242 m 1
 131 604 l 1
 131 850 l 1
 305 850 l 1
 305 604 l 1
 254 242 l 1
 176 242 l 1
131 170 m 1
 305 170 l 1
 305 0 l 1
 131 0 l 1
 131 170 l 1
EndSplineSet
EndChar
StartChar: quotedbl
Encoding: 4 34
OldEncoding: 34
Width: 552
Flags: W
Fore
492 743 m 0
 494 688.333 474.667 642.667 434 606 c 0
 395.333 569.333 357 549 319 545 c 1
 305 573 l 1
 333.667 589 354.333 602 367 612 c 0
 383 625.333 393 645.333 397 672 c 1
 375 672 354 678 334 690 c 0
 314 701.333 303 724.667 301 760 c 0
 301 783.333 308.667 804.333 324 823 c 0
 338 839.667 357.667 848 383 848 c 0
 419 848 445.667 838.333 463 819 c 1
 482.333 799.667 492 774.333 492 743 c 0
246 743 m 0
 248 688.333 228.667 642.667 188 606 c 1
 150 569.333 112 549 74 545 c 1
 59 573 l 1
 87.6667 589 108.333 602 121 612 c 0
 136.333 624.667 146.667 644.667 152 672 c 1
 130.667 672 109.333 678 88 690 c 0
 68 702 57 725.333 55 760 c 0
 55 783.333 62.6667 804.333 78 823 c 0
 92 839.667 111.667 848 137 848 c 0
 174.333 848 201 838.333 217 819 c 1
 236.333 801 246 775.667 246 743 c 0
EndSplineSet
EndChar
StartChar: numbersign
Encoding: 5 35
OldEncoding: 35
Width: 647
Flags: W
Fore
233 811 m 1
 356 811 l 1
 311 573 l 1
 428 575 l 1
 473 811 l 1
 596 811 l 1
 551 573 l 1
 643 573 l 1
 643 442 l 1
 530 442 l 1
 502 299 l 1
 612 299 l 1
 612 166 l 1
 473 166 l 1
 436 -35 l 1
 311 -35 l 1
 350 166 l 1
 233 166 l 1
 195 -35 l 1
 72 -35 l 1
 109 166 l 1
 4 166 l 1
 4 299 l 1
 135 299 l 1
 164 442 l 1
 51 442 l 1
 51 573 l 1
 188 573 l 1
 233 811 l 1
287 442 m 1
 258 299 l 1
 377 299 l 1
 408 442 l 1
 287 442 l 1
EndSplineSet
EndChar
StartChar: dollar
Encoding: 6 36
OldEncoding: 36
Width: 647
Flags: W
Fore
604 582 m 1
 453 582 l 1
 453 618.667 442.667 648 422 670 c 1
 399.333 690 378.667 702.333 360 707 c 1
 360 475 l 1
 438.667 455 501 426.333 547 389 c 0
 592.333 352.333 614 302.667 612 240 c 0
 612 187.333 602.667 144.333 584 111 c 0
 564 75 542 49.6667 518 35 c 1
 490 14.3333 462 1.33333 434 -4 c 1
 360 -23 l 1
 360 -145 l 1
 283 -145 l 1
 285 -25 l 1
 244 -18 l 2
 236 -16.6667 219.667 -12 195 -4 c 0
 170.333 2.66667 152.333 10 141 18 c 0
 111 42 94 55.6667 90 59 c 0
 48 103 27 164 27 242 c 1
 180 242 l 1
 182 211.333 187.667 186.667 197 168 c 0
 206.333 147.333 215 133.667 223 127 c 0
 233 119 244 113 256 109 c 1
 262.667 104.333 272.333 100.667 285 98 c 1
 285 358 l 1
 218.333 371.333 163 396 119 432 c 0
 71 472 47 523.333 47 586 c 0
 45 654.667 66.3333 711.333 111 756 c 1
 150.333 797.333 208.333 821 285 827 c 1
 285 891 l 1
 360 891 l 1
 360 827 l 1
 510.667 817 592 735.333 604 582 c 1
285 500 m 1
 285 711 l 1
 225.667 700.333 195 662.667 193 598 c 1
 195 581.333 199 567 205 555 c 0
 212.333 541 221.667 530.667 233 524 c 0
 247.667 514.667 265 506.667 285 500 c 1
360 330 m 1
 360 102 l 1
 385 113 l 1
 397.667 117 409.333 122.333 420 129 c 0
 430 135 438.667 144 446 156 c 0
 452.667 167.333 457 182.333 459 201 c 1
 459 268.333 426 311.333 360 330 c 1
EndSplineSet
EndChar
StartChar: percent
Encoding: 7 37
OldEncoding: 37
Width: 1036
Flags: W
Fore
332 -20 m 1
 240 -20 l 1
 707 825 l 1
 797 825 l 1
 332 -20 l 1
580 199 m 0
 580 255.667 600.333 305.333 641 348 c 0
 681.667 390.667 732.333 412 793 412 c 0
 849.667 412 899.333 390.667 942 348 c 0
 984.667 305.333 1006 255.667 1006 199 c 0
 1006 138.333 984.667 87.6667 942 47 c 0
 899.333 6.33333 849.667 -14 793 -14 c 0
 732.333 -14 681.667 6.33333 641 47 c 0
 600.333 87.6667 580 138.333 580 199 c 0
25 606 m 0
 25 665.333 46 716 88 758 c 0
 130 800 180.667 821 240 821 c 0
 299.333 821 349 800 389 758 c 1
 431.667 715.333 453 664.667 453 606 c 0
 453 546 431.667 495.667 389 455 c 0
 347.667 413.667 298 393 240 393 c 0
 182 393 131.333 413.667 88 455 c 0
 46 495 25 545.333 25 606 c 0
696 199 m 0
 696 175 705.667 151.667 725 129 c 1
 744.333 109.667 767 100 793 100 c 0
 819.667 100 842.667 109.667 862 129 c 0
 880 149 889 172.333 889 199 c 0
 889 225.667 879.333 248 860 266 c 1
 842 285.333 819.667 295 793 295 c 0
 765.667 295 743 285.333 725 266 c 0
 705.667 246.667 696 224.333 696 199 c 0
141 606 m 0
 141 580.667 150.667 558.333 170 539 c 0
 188 519.667 211.333 510 240 510 c 0
 266.667 510 289 519.667 307 539 c 1
 326.333 557 336 579.333 336 606 c 0
 336 634 327 658 309 678 c 0
 291 696 268 705 240 705 c 0
 211.333 705 188 696 170 678 c 1
 150.667 655.333 141 631.333 141 606 c 0
EndSplineSet
EndChar
StartChar: ampersand
Encoding: 8 38
OldEncoding: 38
Width: 839
Flags: W
Fore
610 436 m 1
 745 436 l 1
 745 394.667 737.667 350.333 723 303 c 0
 709.667 259.667 688.333 221.333 659 188 c 1
 809 0 l 1
 621 0 l 1
 563 72 l 1
 521 36.6667 489 13.3333 467 2 c 0
 432.333 -14.6667 391.333 -23 344 -23 c 0
 269.333 -25 203 -3.66667 145 41 c 0
 90.3333 83.6667 63 144.333 63 223 c 1
 68 274 l 1
 74 309.333 87.6667 341 109 369 c 0
 131 395.667 154 415.333 178 428 c 1
 246 469 l 1
 201 520 l 2
 189.667 532.667 178.667 551 168 575 c 0
 157.333 599.667 152 623 152 645 c 0
 152 672.333 158 698.333 170 723 c 2
 172 727 l 2
 188 766.333 214.667 797 252 819 c 0
 288.667 839.667 329.667 850 375 850 c 0
 428.333 850 472.667 837.667 508 813 c 0
 544.667 788.333 567 753.667 575 709 c 1
 580 664 l 1
 580 620 568.333 581.667 545 549 c 1
 521 519 487.333 489 444 459 c 1
 569 301 l 1
 581 310.333 591.333 326.667 600 350 c 0
 609.333 371.333 614 392.667 614 414 c 1
 610 436 l 1
334 596 m 2
 371 551 l 1
 406 571 l 1
 417.333 581 424.667 588.667 428 594 c 0
 435.333 606.667 440 621 442 637 c 1
 442 662.333 438 682 430 696 c 1
 424 711.333 405.667 719 375 719 c 0
 335.667 719 313 705.333 307 678 c 1
 307 644.667 316 617.333 334 596 c 2
477 178 m 1
 322 371 l 1
 242 319 l 1
 222.667 303 213 278.667 213 246 c 0
 213 206 230.667 170.333 266 139 c 1
 290 120.333 314.667 111 340 111 c 0
 380.667 111 426.333 133.333 477 178 c 1
EndSplineSet
EndChar
StartChar: quotesingle
Encoding: 9 39
OldEncoding: 39
Width: 278
Flags: W
Fore
246 743 m 0
 248 688.333 228.667 642.667 188 606 c 1
 150 569.333 112 549 74 545 c 1
 59 573 l 1
 87.6667 589 108.333 602 121 612 c 0
 136.333 624.667 146.667 644.667 152 672 c 1
 130.667 672 109.333 678 88 690 c 0
 68 702 57 725.333 55 760 c 0
 55 783.333 62.6667 804.333 78 823 c 0
 92 839.667 111.667 848 137 848 c 0
 174.333 848 201 838.333 217 819 c 1
 236.333 801 246 775.667 246 743 c 0
EndSplineSet
EndChar
StartChar: parenleft
Encoding: 10 40
OldEncoding: 40
Width: 387
Flags: W
Fore
236 850 m 1
 352 850 l 1
 307.333 770 269.333 687.333 238 602 c 0
 208 520.667 193 439.333 193 358 c 1
 195 307 l 1
 199 210.333 216 113.333 246 16 c 1
 274 -84.6667 309.333 -168.667 352 -236 c 1
 236 -236 l 1
 154 -90 l 2
 137.333 -60 121.333 -24.6667 106 16 c 0
 92 54 79.3333 98.6667 68 150 c 0
 56 199.333 49 251.667 47 307 c 1
 47 363 53 416 65 466 c 0
 65 468 65.3333 469.667 66 471 c 0
 75.3333 519.667 90.3333 568.667 111 618 c 0
 129 664.667 147.333 703 166 733 c 2
 236 850 l 1
EndSplineSet
EndChar
StartChar: parenright
Encoding: 11 41
OldEncoding: 41
Width: 387
Flags: W
Fore
27 850 m 1
 141 850 l 1
 195.667 766 242.333 680 281 592 c 0
 317 507.333 334 412.333 332 307 c 0
 330 207 313.667 116.333 283 35 c 1
 251.667 -39.6667 204.333 -130 141 -236 c 1
 27 -236 l 1
 70.3333 -168 106.333 -84 135 16 c 0
 163.667 114 180 211 184 307 c 2
 186 354 l 1
 186 395.333 182 437.667 174 481 c 0
 168.667 509.667 156.333 552.667 137 610 c 0
 118.333 664.667 102 705.667 88 733 c 0
 75.3333 761.667 55 800.667 27 850 c 1
EndSplineSet
EndChar
StartChar: asterisk
Encoding: 12 42
OldEncoding: 42
Width: 452
Flags: W
Fore
139 449 m 1
 63 512 l 1
 154 625 l 1
 27 670 l 1
 57 752 l 1
 176 707 l 1
 176 850 l 1
 266 850 l 1
 266 707 l 1
 385 752 l 1
 416 670 l 1
 289 625 l 1
 379 512 l 1
 305 449 l 1
 217 561 l 1
 139 449 l 1
EndSplineSet
EndChar
StartChar: plus
Encoding: 13 43
OldEncoding: 43
Width: 679
Flags: W
Fore
270 553 m 1
 410 553 l 1
 410 340 l 1
 623 340 l 1
 623 201 l 1
 410 201 l 1
 410 -12 l 1
 270 -12 l 1
 270 201 l 1
 57 201 l 1
 57 340 l 1
 270 340 l 1
 270 553 l 1
EndSplineSet
EndChar
StartChar: comma
Encoding: 14 44
OldEncoding: 44
Width: 399
Flags: W
Fore
307 88 m 0
 309 32.6667 290 -13 250 -49 c 0
 211.333 -85.6667 173 -106.333 135 -111 c 1
 121 -82 l 1
 149 -67.3333 169.333 -54.3333 182 -43 c 1
 198.667 -31.6667 209 -12 213 16 c 1
 192.333 16 171.333 22.3333 150 35 c 0
 130 46.3333 119 69.3333 117 104 c 0
 117 128 124.333 149.333 139 168 c 1
 154.333 184.667 174.333 193 199 193 c 0
 234.333 193 261 183.333 279 164 c 0
 297.667 144 307 118.667 307 88 c 0
EndSplineSet
EndChar
StartChar: hyphen
Encoding: 15 45
OldEncoding: 45
Width: 387
Flags: W
Fore
31 401 m 1
 348 401 l 1
 348 242 l 1
 31 242 l 1
 31 401 l 1
EndSplineSet
EndChar
StartChar: period
Encoding: 16 46
OldEncoding: 46
Width: 290
Flags: W
Fore
141 0 m 0
 113 0 92 8.33333 78 25 c 0
 62.6667 41.6667 55 62 55 86 c 0
 55 108.667 62.6667 128.333 78 145 c 0
 92 161.667 113 170 141 170 c 0
 167.667 170 188.333 161.667 203 145 c 0
 217.667 130.333 225 110.667 225 86 c 0
 225 62 217.667 41.6667 203 25 c 0
 188.333 8.33333 167.667 8.67362e-19 141 0 c 0
EndSplineSet
EndChar
StartChar: slash
Encoding: 17 47
OldEncoding: 47
Width: 323
Flags: W
Fore
248 834 m 1
 319 834 l 1
 76 -16 l 1
 2 -16 l 1
 248 834 l 1
EndSplineSet
EndChar
StartChar: zero
Encoding: 18 48
OldEncoding: 48
Width: 647
Flags: W
Fore
317 -27 m 0
 277.667 -27 240.333 -20 205 -6 c 0
 168.333 8.66667 139.667 28.3333 119 53 c 0
 63 123 35 242 35 410 c 0
 35 578 63 696 119 764 c 0
 139 788 167.667 807.667 205 823 c 0
 237.667 837 275 844 317 844 c 0
 405.667 844 472.667 817.333 518 764 c 1
 574 694.667 602 576.667 602 410 c 0
 602 243.333 574 124.333 518 53 c 1
 472.667 -0.333333 405.667 -27 317 -27 c 0
317 123 m 0
 368.333 123 401.333 141.333 416 178 c 1
 430.667 220.667 438 298 438 410 c 0
 438 518.667 430.667 595.667 416 641 c 1
 401.333 677.667 368.333 696 317 696 c 0
 293 696 272.667 691.333 256 682 c 0
 238.667 672 227 658.333 221 641 c 0
 205 600.333 197 523.333 197 410 c 0
 197 294 205 216.667 221 178 c 1
 231 141.333 263 123 317 123 c 0
EndSplineSet
EndChar
StartChar: one
Encoding: 19 49
OldEncoding: 49
Width: 647
Flags: W
Fore
440 825 m 1
 440 0 l 1
 276 0 l 1
 276 571 l 1
 80 571 l 1
 80 680 l 1
 112 680 145.333 684 180 692 c 0
 214 698 240.667 708.333 260 723 c 0
 306 755 330 789 332 825 c 1
 440 825 l 1
EndSplineSet
EndChar
StartChar: two
Encoding: 20 50
OldEncoding: 50
Width: 647
Flags: W
Fore
596 147 m 1
 596 0 l 1
 35 0 l 1
 39 53.3333 48.3333 103.333 63 150 c 0
 79 196.667 112 238.667 162 276 c 0
 165.333 278.667 200 304.667 266 354 c 2
 267 355 l 1
 268 356 l 1
 293 375 l 2
 340.333 410.333 371.667 437 387 455 c 0
 418.333 494.333 434 533.667 434 573 c 0
 434 587 432 603.667 428 623 c 0
 424 653 411 674.667 389 688 c 0
 365 703.333 341 711 317 711 c 1
 289 707 l 1
 233 694.333 205 639 205 541 c 1
 47 541 l 1
 47 638.333 71 714 119 768 c 0
 170.333 824 242.667 850 336 846 c 0
 468.667 840 551.333 780.667 584 668 c 0
 594 632 598.667 591 598 545 c 0
 596 469 529.667 385 399 293 c 0
 313 232.333 262.667 183.667 248 147 c 1
 596 147 l 1
EndSplineSet
EndChar
StartChar: three
Encoding: 21 51
OldEncoding: 51
Width: 647
Flags: W
Fore
35 242 m 1
 190 242 l 1
 192.667 218 196.333 197.333 201 180 c 0
 205 165.333 212.333 152.333 223 141 c 0
 234.333 129.667 248.667 121 266 115 c 0
 294 107.667 319.333 104 342 104 c 1
 361.333 111.333 376.333 120.333 387 131 c 0
 419.667 161.667 436 198 436 240 c 0
 436 277.333 420.333 308.667 389 334 c 1
 356.333 357.333 311.333 369 254 369 c 1
 254 479 l 1
 297.333 479 335 486.667 367 502 c 0
 395.667 516 412 539.667 416 573 c 2
 420 608 l 1
 420 625.333 416.667 643.333 410 662 c 1
 401.333 677.333 389 690 373 700 c 0
 354.333 710 333 715 309 715 c 0
 263.667 717 233 703.333 217 674 c 1
 205.667 648.667 199 612.333 197 565 c 1
 47 565 l 1
 47 625.667 55.3333 675 72 713 c 0
 87.3333 751 122 785.667 176 817 c 0
 210.667 837 266.667 846 344 844 c 0
 407.333 844 458 827.667 496 795 c 0
 527.333 768.333 548.333 739 559 707 c 0
 569.667 673.667 575 635.333 575 592 c 1
 571 556.667 563 530 551 512 c 0
 538.333 493.333 515.667 470 483 442 c 1
 527 415.333 557.667 386 575 354 c 1
 595 322.667 604 276.333 602 215 c 0
 600 159 576 103.667 530 49 c 1
 485.333 -1.66667 412.333 -27 311 -27 c 0
 272.333 -27 233.667 -21.3333 195 -10 c 0
 159 0 125.333 24.3333 94 63 c 0
 69.3333 93 54.3333 121 49 147 c 1
 41.6667 173 37 204.667 35 242 c 1
EndSplineSet
EndChar
StartChar: four
Encoding: 22 52
OldEncoding: 52
Width: 647
Flags: W
Fore
332 825 m 1
 522 825 l 1
 522 315 l 1
 608 315 l 1
 608 182 l 1
 522 182 l 1
 522 0 l 1
 358 0 l 1
 358 182 l 1
 29 182 l 1
 29 322 l 1
 332 825 l 1
358 659 m 1
 145 315 l 1
 358 315 l 1
 358 659 l 1
EndSplineSet
EndChar
StartChar: five
Encoding: 23 53
OldEncoding: 53
Width: 647
Flags: W
Fore
31 215 m 1
 193 215 l 1
 195 195 199 178 205 164 c 0
 211.667 148 223.333 135.667 240 127 c 0
 259.333 116.333 284.333 111 315 111 c 0
 356.333 113 387.333 129.333 408 160 c 1
 426.667 191.333 436 227.333 436 268 c 0
 436 316.667 427.333 353 410 377 c 1
 382 411.667 344.333 428 297 426 c 0
 251 426 220.333 406.333 205 367 c 1
 55 367 l 1
 131 825 l 1
 571 825 l 1
 571 680 l 1
 231 680 l 1
 203 510 l 1
 233.667 528 259 540.333 279 547 c 0
 303.667 553.667 326 557 346 557 c 0
 376 557 405.333 552.333 434 543 c 0
 489.333 523.667 531.667 489.333 561 440 c 1
 588.333 390.667 602 336 602 276 c 0
 602 212 586.333 154 555 102 c 0
 530.333 63.3333 500.333 34 465 14 c 0
 431.667 -6 382.333 -19.6667 317 -27 c 1
 266.333 -27 226.333 -21.3333 197 -10 c 0
 170.333 0 143.667 15.6667 117 37 c 0
 93.6667 56.3333 73.6667 78 57 102 c 1
 43.6667 127.333 36.3333 147.333 35 162 c 1
 31 215 l 1
EndSplineSet
EndChar
StartChar: six
Encoding: 24 54
OldEncoding: 54
Width: 647
Flags: W
Fore
590 641 m 1
 438 641 l 1
 422 689.667 390 715 342 717 c 0
 308.667 717 280.667 708.667 258 692 c 1
 236 678 221.667 660.333 215 639 c 0
 203 607.667 197 570.667 197 528 c 0
 197 512.667 198.333 497.667 201 483 c 1
 225.667 504.333 249.333 519.333 272 528 c 0
 300 539.333 335.667 545 379 545 c 0
 453 545 512.333 512 557 446 c 0
 588.333 398.667 604 343 604 279 c 0
 604 221.667 595.333 174.333 578 137 c 0
 552.667 81.6667 520.333 41.3333 481 16 c 0
 439 -10.6667 388 -25 328 -27 c 0
 266 -29 210 -10.3333 160 29 c 1
 112 69 79.6667 116.667 63 172 c 1
 45.6667 237.333 37 317.333 37 412 c 0
 37 495.333 45.6667 567 63 627 c 1
 84.3333 691 117.333 743.333 162 784 c 0
 207.333 825.333 266 846 338 846 c 1
 383 844 l 1
 461 834 515 808 545 766 c 1
 573 721.333 588 679.667 590 641 c 1
213 346 m 1
 201 322 195 294 195 262 c 0
 195 219.333 205 184 225 156 c 0
 243 132 271 117 309 111 c 1
 351 111 383.333 123 406 147 c 1
 436 182.333 451 224.667 451 274 c 0
 451 310.667 442.667 343 426 371 c 1
 402.667 403.667 367 420 319 420 c 1
 294.333 418 274 411 258 399 c 1
 237.333 387.667 222.333 370 213 346 c 1
EndSplineSet
EndChar
StartChar: seven
Encoding: 25 55
OldEncoding: 55
Width: 647
Flags: W
Fore
35 825 m 1
 614 825 l 1
 614 698 l 1
 571.333 647.333 532.667 595 498 541 c 0
 466 491.667 436 436.333 408 375 c 0
 382 314.333 361.333 255 346 197 c 1
 331.333 132.333 321.667 66.6667 317 0 c 1
 154 0 l 1
 164 82 177.667 153 195 213 c 1
 208.333 269 227.333 324.333 252 379 c 0
 274 428.333 300.667 476.667 332 524 c 1
 360.667 571.333 397.333 623.333 442 680 c 1
 35 680 l 1
 35 825 l 1
EndSplineSet
EndChar
StartChar: eight
Encoding: 26 56
OldEncoding: 56
Width: 647
Flags: W
Fore
569 117 m 1
 547.667 72.3333 512.333 36.6667 463 10 c 1
 409 -16.6667 357 -29 307 -27 c 1
 257 -27 207.333 -13.3333 158 14 c 0
 111.333 39.3333 76.3333 74.3333 53 119 c 0
 35.6667 153 27 193.333 27 240 c 0
 27 335.333 69.3333 405.667 154 451 c 1
 126.667 472.333 102.667 496.667 82 524 c 0
 64 549.333 55 580 55 616 c 0
 55 654.667 64 689.667 82 721 c 1
 102.667 761 132 791.667 170 813 c 0
 207.333 835 251 846 301 846 c 0
 415 846 493.667 815.333 537 754 c 0
 571 707.333 588 660.667 588 614 c 0
 588 575.333 577 541.333 555 512 c 0
 532.333 481.333 505.667 461 475 451 c 1
 518.333 437.667 551.667 413 575 377 c 0
 599.667 340.333 612 298.667 612 252 c 0
 612 200.667 597.667 155.667 569 117 c 1
393 522 m 1
 410.333 531.333 423.333 545.667 432 565 c 0
 441.333 583 446 601.667 446 621 c 0
 446 647 438 668 422 684 c 1
 401.333 708.667 371.333 721 332 721 c 0
 290.667 723 257.667 712.667 233 690 c 1
 210.333 671.333 199 646 199 614 c 0
 199 582.667 210.333 554 233 528 c 1
 255.667 506.667 281.667 496 311 496 c 0
 350.333 494 377.667 502.667 393 522 c 1
403 147 m 1
 412.333 156.333 420 170.667 426 190 c 0
 432.667 213.333 436 234 436 252 c 0
 436 281.333 428.667 308 414 332 c 0
 392.667 365.333 361 383 319 385 c 0
 278.333 385 247 372 225 346 c 0
 205 324 195 291.333 195 248 c 0
 195 210 202.333 179.333 217 156 c 1
 246.333 124.667 277 109 309 109 c 1
 347.667 106.333 379 119 403 147 c 1
EndSplineSet
EndChar
StartChar: nine
Encoding: 27 57
OldEncoding: 57
Width: 647
Flags: W
Fore
43 193 m 1
 203 193 l 1
 203 171.667 211.667 151 229 131 c 1
 249.667 111.667 270.333 102 291 102 c 0
 354.333 102 396.667 128 418 180 c 0
 434 221.333 442 259.667 442 295 c 0
 442 314.333 439.333 329.333 434 340 c 1
 412 312.667 384 292.333 350 279 c 0
 333.333 271.667 315 268 295 268 c 0
 263.667 268 242.333 269.333 231 272 c 0
 151 287.333 94.3333 333.333 61 410 c 0
 42.3333 454.667 33 502.333 33 553 c 0
 33 615.667 45.3333 668.333 70 711 c 0
 92 750.333 124 783.667 166 811 c 0
 203.333 837 248.333 850 301 850 c 1
 342 846 l 1
 362.667 846 388 839.667 418 827 c 0
 450 812.333 478.667 793.333 504 770 c 0
 532 743.333 549.667 715.333 557 686 c 1
 587 620 602 538 602 440 c 0
 602 374.667 596 312.667 584 254 c 1
 566.667 187.333 551 140.333 537 113 c 0
 505 55 467.333 17.3333 424 0 c 0
 378.667 -18 334.333 -27 291 -27 c 0
 211.667 -27 150 -2.33333 106 47 c 1
 64 97 43 145.667 43 193 c 1
401 674 m 1
 378.333 698.667 346.333 711 305 711 c 0
 272.333 711 240.333 694.667 209 662 c 1
 188.333 635.333 178 599 178 553 c 0
 178 507.667 191 472 217 446 c 0
 241.667 420.667 272.333 408 309 408 c 0
 346.333 408 377 421.667 401 449 c 1
 425.667 474.333 438 509 438 553 c 0
 438 580.333 434 605.667 426 629 c 0
 420 651 411.667 666 401 674 c 1
EndSplineSet
EndChar
StartChar: colon
Encoding: 28 58
OldEncoding: 58
Width: 354
Flags: W
Fore
188 0 m 0
 162.667 0 143 8.33333 129 25 c 1
 113.667 40.3333 106 59.3333 106 82 c 0
 106 102.667 113.667 121.667 129 139 c 0
 143 155.667 162.667 164 188 164 c 0
 215.333 164 236 155.667 250 139 c 1
 264.667 124.333 272 105.333 272 82 c 0
 272 60.6667 264.667 41.6667 250 25 c 0
 236 8.33333 215.333 8.67362e-19 188 0 c 0
188 496 m 0
 162.667 496 143 504 129 520 c 0
 113.667 538.667 106 558 106 578 c 0
 106 596 113.667 614.333 129 633 c 0
 143 649 162.667 657 188 657 c 0
 214.667 657 235.333 649.667 250 635 c 1
 264.667 617 272 598 272 578 c 0
 272 557.333 264.667 538 250 520 c 0
 236 504 215.333 496 188 496 c 0
EndSplineSet
EndChar
StartChar: semicolon
Encoding: 29 59
OldEncoding: 59
Width: 399
Flags: W
Fore
205 440 m 0
 176.333 440 154.333 449 139 467 c 0
 124.333 485.667 117 506.667 117 530 c 0
 117 552.667 124.333 574 139 594 c 1
 154.333 612 176.333 621 205 621 c 0
 235.667 621 258 612 272 594 c 0
 287.333 574.667 295 553.333 295 530 c 0
 295 506.667 287.333 485.667 272 467 c 0
 256 449 233.667 440 205 440 c 0
307 88 m 0
 309 32.6667 290 -13 250 -49 c 0
 211.333 -85.6667 173 -106.333 135 -111 c 1
 121 -82 l 1
 149 -67.3333 169.333 -54.3333 182 -43 c 1
 198.667 -31.6667 209 -12 213 16 c 1
 192.333 16 171.333 22.3333 150 35 c 0
 130 46.3333 119 69.3333 117 104 c 0
 117 128 124.333 149.333 139 168 c 1
 154.333 184.667 174.333 193 199 193 c 0
 234.333 193 261 183.333 279 164 c 0
 297.667 144 307 118.667 307 88 c 0
EndSplineSet
EndChar
StartChar: less
Encoding: 30 60
OldEncoding: 60
Width: 679
Flags: W
Fore
47 201 m 1
 47 340 l 1
 616 553 l 1
 616 401 l 1
 250 270 l 1
 616 139 l 1
 616 -12 l 1
 47 201 l 1
EndSplineSet
EndChar
StartChar: equal
Encoding: 31 61
OldEncoding: 61
Width: 679
Flags: W
Fore
57 479 m 1
 623 479 l 1
 623 340 l 1
 57 340 l 1
 57 479 l 1
57 201 m 1
 623 201 l 1
 623 57 l 1
 57 57 l 1
 57 201 l 1
EndSplineSet
EndChar
StartChar: greater
Encoding: 32 62
OldEncoding: 62
Width: 679
Flags: W
Fore
47 553 m 1
 616 340 l 1
 616 201 l 1
 47 -12 l 1
 47 139 l 1
 412 270 l 1
 47 401 l 1
 47 553 l 1
EndSplineSet
EndChar
StartChar: question
Encoding: 33 63
OldEncoding: 63
Width: 712
Flags: W
Fore
428 233 m 1
 287 233 l 1
 287 292.333 297.667 341 319 379 c 1
 345 419 379.333 454.333 422 485 c 0
 460.667 513 479 553.333 477 606 c 0
 477 640 464.667 666.667 440 686 c 0
 417.333 705.333 390.667 715 360 715 c 0
 325.333 715 295.333 702 270 676 c 1
 245.333 648 233 609.667 233 561 c 1
 76 561 l 1
 76 662.333 105.333 744.333 164 807 c 1
 214.667 847.667 276.667 868 350 868 c 0
 396 868 437.667 861.333 475 848 c 0
 513.667 834 544.333 815.667 567 793 c 0
 620.333 741.667 647 679.333 647 606 c 0
 647 558 637.333 516.333 618 481 c 0
 612.667 471 606 461 598 451 c 0
 590 440.333 580.333 431.333 569 424 c 1
 541 401 l 1
 506 375 l 2
 470 347.667 448.667 327 442 313 c 0
 432.667 294.333 428 267.667 428 233 c 1
279 0 m 1
 279 170 l 1
 453 170 l 1
 453 0 l 1
 279 0 l 1
EndSplineSet
EndChar
StartChar: at
Encoding: 34 64
OldEncoding: 64
Width: 1134
Flags: W
Fore
750 594 m 1
 854 594 l 1
 756 242 l 1
 756 222.667 758 207 762 195 c 1
 764 181 770.667 170.667 782 164 c 1
 790 161.333 799 160 809 160 c 0
 829.667 160 846.667 164.667 860 174 c 1
 883.333 184 904.667 200.333 924 223 c 0
 945.333 249.667 959 271 965 287 c 1
 987.667 335.667 999 384 999 432 c 0
 999 460 995 487.333 987 514 c 1
 981 544 962.667 578 932 616 c 0
 904.667 650.667 871 681 831 707 c 0
 763.667 750.333 681.333 772 584 772 c 0
 556.667 772 523.667 768.667 485 762 c 0
 447 754.667 403.333 732.667 354 696 c 0
 311.333 663.333 272.667 624 238 578 c 0
 176 498 145 405 145 299 c 0
 145 276.333 150 247 160 211 c 0
 172.667 172.333 183.667 145 193 129 c 0
 208.333 103.667 221.667 85.3333 233 74 c 0
 288.333 16.6667 362.333 -23 455 -45 c 0
 489 -53 525.667 -57 565 -57 c 0
 643.667 -57 723.667 -42.6667 805 -14 c 1
 838 -106 l 1
 766 -142 673 -160 559 -160 c 0
 521 -160 489 -158 463 -154 c 0
 412.333 -144.667 376.667 -137 356 -131 c 0
 322 -121 286 -103.333 248 -78 c 0
 206 -51.3333 167.667 -17.6667 133 23 c 0
 103.667 57 79 99.3333 59 150 c 0
 40.3333 198.667 31 242.333 31 281 c 0
 31 327 35 368.667 43 406 c 1
 49 443.333 61.3333 480 80 516 c 1
 95.3333 551.333 115 585.333 139 618 c 0
 176.333 669.333 220.667 716 272 758 c 1
 325.333 798.667 384.333 828.667 449 848 c 0
 493.667 861.333 544 868 600 868 c 0
 699.333 868 786.667 845.667 862 801 c 0
 991.333 725 1068.67 630 1094 516 c 1
 1100.67 479.333 1104 447.333 1104 420 c 0
 1104 361.333 1092.33 308 1069 260 c 0
 1030.33 178.667 980.667 122.667 920 92 c 0
 886.667 76 851.667 68 815 68 c 0
 792.333 68 768.333 71.3333 743 78 c 0
 713 86 686.667 108.333 664 145 c 1
 622.667 111 590.333 89.3333 567 80 c 0
 539.667 68.6667 514.667 63 492 63 c 0
 474 63 447.333 70.6667 412 86 c 0
 380 99.3333 354.667 119.667 336 147 c 0
 311.333 185.667 299 225.333 299 266 c 0
 299 281.333 300.333 295 303 307 c 0
 319 401.667 360 475.333 426 528 c 1
 483.333 578.667 540.667 604 598 604 c 0
 613.333 604 627 602 639 598 c 0
 688.333 586 719 561.333 731 524 c 1
 750 594 l 1
498 158 m 1
 539.333 158 572 168.667 596 190 c 1
 625.333 212 648.667 245.667 666 291 c 0
 683.333 334.333 692 375.333 692 414 c 0
 690 467.333 664 502 614 518 c 1
 594 522 l 1
 575.333 522 556.333 516.667 537 506 c 0
 523 499.333 503.667 484.333 479 461 c 0
 460.333 441.667 445.333 417 434 387 c 0
 419.333 349 412 318.333 412 295 c 0
 410 261.667 418 231.667 436 205 c 0
 451.333 179.667 472 164 498 158 c 1
EndSplineSet
EndChar
StartChar: A
Encoding: 35 65
OldEncoding: 65
Width: 839
Flags: W
Fore
528 850 m 1
 819 0 l 1
 641 0 l 1
 582 170 l 1
 268 170 l 1
 209 0 l 1
 31 0 l 1
 326 850 l 1
 528 850 l 1
428 645 m 1
 324 315 l 1
 541 315 l 1
 428 645 l 1
EndSplineSet
EndChar
StartChar: B
Encoding: 36 66
OldEncoding: 66
Width: 839
Flags: W
Fore
96 0 m 1
 96 850 l 1
 473 850 l 2
 501.667 850 538 844.667 582 834 c 0
 622.667 822.667 654 806 676 784 c 1
 700.667 766 718.333 747 729 727 c 1
 743 680 l 1
 754 627 l 1
 754 595 747 565 733 537 c 1
 721 505.667 700.667 477.667 672 453 c 1
 698.667 433.667 721 408.333 739 377 c 0
 758.333 343.667 770 309.333 774 274 c 1
 774 224 767.333 182.667 754 150 c 0
 738.667 114 716 83 686 57 c 0
 640 19 571 0 479 0 c 2
 96 0 l 1
270 705 m 1
 270 510 l 1
 469 510 l 2
 507.667 510 536.333 519 555 537 c 0
 575.667 555.667 586 578.667 586 606 c 0
 584 672 547.667 705 477 705 c 2
 270 705 l 1
270 365 m 1
 270 145 l 1
 475 145 l 2
 510.333 145 541 152 567 166 c 0
 595 180.667 608 213.333 606 264 c 0
 606 305.333 594.333 332 571 344 c 1
 549 358 518.333 365 479 365 c 2
 270 365 l 1
EndSplineSet
EndChar
StartChar: C
Encoding: 37 67
OldEncoding: 67
Width: 839
Flags: W
Fore
629 291 m 1
 799 291 l 1
 799 247.667 788 204.667 766 162 c 0
 744 119.333 716.667 83.6667 684 55 c 0
 655.333 31.6667 619 13.3333 575 0 c 1
 524.333 -18 477.333 -27 434 -27 c 0
 342.667 -29 263.667 -3 197 51 c 0
 133 104.333 90 176.667 68 268 c 1
 56.6667 308 51 358 51 418 c 0
 51 484 58 538 72 580 c 1
 126.667 768 249.333 862 440 862 c 0
 530.667 862 607.333 840.333 670 797 c 0
 752 741 795 662.333 799 561 c 1
 631 561 l 1
 629 582.333 622 604.333 610 627 c 0
 595.333 651.667 573.667 672.667 545 690 c 0
 512.333 710 470 719 418 717 c 0
 384.667 717 350.333 703.333 315 676 c 1
 283.667 648 261.333 616.667 248 582 c 0
 232 544.667 223 495.333 221 434 c 0
 219.667 409.333 221.667 377.333 227 338 c 1
 229 310.667 236 283.333 248 256 c 0
 272 200.667 308.667 161 358 137 c 1
 381.333 127.667 404 123 426 123 c 0
 445.333 123 470 126.333 500 133 c 0
 551.333 146.333 584.667 167.667 600 197 c 0
 615.333 225.667 625 257 629 291 c 1
EndSplineSet
EndChar
StartChar: D
Encoding: 38 68
OldEncoding: 68
Width: 839
Flags: W
Fore
90 0 m 1
 90 850 l 1
 485 850 l 2
 517.667 850 550 843.667 582 831 c 0
 616.667 817 648 796 676 768 c 1
 702 744 728.667 705 756 651 c 1
 780.667 598.333 793 535.667 793 463 c 0
 793 398.333 785.333 337 770 279 c 0
 758 232.333 739.667 189.333 715 150 c 0
 685.667 104.667 649.333 68.3333 606 41 c 0
 562.667 13.6667 518.333 -8.67362e-19 473 0 c 2
 90 0 l 1
264 705 m 1
 264 145 l 1
 403 145 l 2
 491 145 552.667 183.333 588 260 c 1
 606.667 304.667 616 364.667 616 440 c 0
 616 521.333 601.667 583.667 573 627 c 0
 552.333 658.333 530.667 678.667 508 688 c 0
 480 699.333 451.333 705 422 705 c 2
 264 705 l 1
EndSplineSet
EndChar
StartChar: E
Encoding: 39 69
OldEncoding: 69
Width: 776
Flags: W
Fore
92 850 m 1
 707 850 l 1
 707 705 l 1
 266 705 l 1
 266 510 l 1
 674 510 l 1
 674 365 l 1
 266 365 l 1
 266 145 l 1
 727 145 l 1
 727 0 l 1
 92 0 l 1
 92 850 l 1
EndSplineSet
EndChar
StartChar: F
Encoding: 40 70
OldEncoding: 70
Width: 712
Flags: W
Fore
86 850 m 1
 682 850 l 1
 682 705 l 1
 260 705 l 1
 260 510 l 1
 633 510 l 1
 633 365 l 1
 260 365 l 1
 260 0 l 1
 86 0 l 1
 86 850 l 1
EndSplineSet
EndChar
StartChar: G
Encoding: 41 71
OldEncoding: 71
Width: 905
Flags: W
Fore
487 311 m 1
 487 457 l 1
 827 457 l 1
 827 -4 l 1
 723 -4 l 1
 702 102 l 1
 676.667 71.3333 656.333 50.3333 641 39 c 1
 625 21.6667 597 6.66667 557 -6 c 1
 515 -22 470.667 -29 424 -27 c 0
 394 -27 362 -21.3333 328 -10 c 1
 309.333 -7.33333 287.333 0.666667 262 14 c 1
 242.667 26 225.667 38.3333 211 51 c 2
 176 82 l 1
 135.333 122.667 104 172.333 82 231 c 0
 60 288.333 49 350.667 49 418 c 0
 49 509.333 70.3333 592.667 113 668 c 0
 155.667 746.667 215 802 291 834 c 0
 335 852.667 389 862 453 862 c 0
 507 862 557.333 856 604 844 c 0
 650 831.333 692.333 806.667 731 770 c 1
 787 714 819 650.667 827 580 c 1
 668 580 l 1
 652.667 628.667 627.333 663.333 592 684 c 0
 554.667 707.333 511 719 461 719 c 0
 410.333 719 360.333 703.333 311 672 c 1
 281 645.333 258 608.333 242 561 c 0
 225.333 511 217 462.667 217 416 c 0
 217 354.667 226.667 305.333 246 268 c 0
 293.333 176 358 125 440 115 c 1
 524.667 115 589 141.667 633 195 c 1
 662.333 233 678.667 271.667 682 311 c 1
 487 311 l 1
EndSplineSet
EndChar
StartChar: H
Encoding: 42 72
OldEncoding: 72
Width: 839
Flags: W
Fore
80 0 m 1
 80 850 l 1
 254 850 l 1
 254 530 l 1
 590 530 l 1
 590 850 l 1
 766 850 l 1
 766 0 l 1
 590 0 l 1
 590 385 l 1
 254 385 l 1
 254 0 l 1
 80 0 l 1
EndSplineSet
EndChar
StartChar: I
Encoding: 43 73
OldEncoding: 73
Width: 323
Flags: W
Fore
248 850 m 1
 248 0 l 1
 74 0 l 1
 74 850 l 1
 248 850 l 1
EndSplineSet
EndChar
StartChar: J
Encoding: 44 74
OldEncoding: 74
Width: 647
Flags: W
Fore
391 850 m 1
 565 850 l 1
 565 203 l 2
 565 146.333 545.333 96.3333 506 53 c 0
 460.667 1.66667 397.667 -25 317 -27 c 0
 245 -29 187 -18.6667 143 4 c 0
 115.667 18.6667 94 37 78 59 c 0
 60 83 48.3333 107.667 43 133 c 1
 33.6667 164.333 29 192.333 29 217 c 2
 29 313 l 1
 203 313 l 1
 203 227 l 2
 203 200.333 209 176 221 154 c 0
 233.667 130 260.333 119 301 121 c 0
 331.667 121 355 131.333 371 152 c 0
 384.333 169.333 391 190.333 391 215 c 2
 391 850 l 1
EndSplineSet
EndChar
StartChar: K
Encoding: 45 75
OldEncoding: 75
Width: 839
Flags: W
Fore
86 0 m 1
 86 850 l 1
 260 850 l 1
 260 477 l 1
 594 850 l 1
 801 850 l 1
 465 481 l 1
 836 0 l 1
 625 0 l 1
 350 369 l 1
 260 272 l 1
 260 0 l 1
 86 0 l 1
EndSplineSet
EndChar
StartChar: L
Encoding: 46 76
OldEncoding: 76
Width: 712
Flags: W
Fore
92 850 m 1
 268 850 l 1
 268 145 l 1
 674 145 l 1
 674 0 l 1
 92 0 l 1
 92 850 l 1
EndSplineSet
EndChar
StartChar: M
Encoding: 47 77
OldEncoding: 77
Width: 970
Flags: W
Fore
578 0 m 1
 403 0 l 1
 252 688 l 1
 252 0 l 1
 76 0 l 1
 76 850 l 1
 332 850 l 1
 492 197 l 1
 649 850 l 1
 905 850 l 1
 905 0 l 1
 729 0 l 1
 729 688 l 1
 578 0 l 1
EndSplineSet
EndChar
StartChar: N
Encoding: 48 78
OldEncoding: 78
Width: 839
Flags: W
Fore
80 850 m 1
 252 850 l 1
 596 266 l 1
 596 850 l 1
 770 850 l 1
 770 0 l 1
 598 0 l 1
 254 592 l 1
 254 0 l 1
 80 0 l 1
 80 850 l 1
EndSplineSet
EndChar
StartChar: O
Encoding: 49 79
OldEncoding: 79
Width: 905
Flags: W
Fore
864 418 m 0
 864 357.333 852.333 295.667 829 233 c 0
 806.333 168.333 776.333 117.333 739 80 c 1
 672.333 8.66667 578.333 -27 457 -27 c 0
 336.333 -27 241.333 8.66667 172 80 c 0
 134.667 117.333 104.667 168.333 82 233 c 0
 58.6667 295.667 47 357.333 47 418 c 0
 47 482 58.6667 544 82 604 c 0
 104.667 667.333 134.667 718.667 172 758 c 1
 242 828.667 337 864 457 864 c 0
 486.333 864 520.333 860.667 559 854 c 1
 595.667 845.333 628.333 833 657 817 c 1
 685 804.333 712.333 784.667 739 758 c 0
 776.333 718.667 806.333 667.333 829 604 c 0
 852.333 544 864 482 864 418 c 0
457 125 m 0
 518.333 125 570 144 612 182 c 0
 642 209.333 663.333 243 676 283 c 0
 689.333 323.667 696 368.667 696 418 c 0
 696 467.333 689.333 512.333 676 553 c 0
 662.667 593.667 641.333 627 612 653 c 0
 569.333 691.667 517.667 711 457 711 c 0
 394.333 711 341.667 691.667 299 653 c 0
 272.333 629.667 252 597 238 555 c 0
 222.667 511 215 465.333 215 418 c 0
 215 371.333 222.667 327 238 285 c 0
 252.667 240.333 273 206 299 182 c 0
 341 144 393.667 125 457 125 c 0
EndSplineSet
EndChar
StartChar: P
Encoding: 50 80
OldEncoding: 80
Width: 776
Flags: W
Fore
88 0 m 1
 88 850 l 1
 467 850 l 2
 514.333 850 562 841.667 610 825 c 0
 655.333 809 690.333 771.667 715 713 c 0
 729.667 676.333 737 634 737 586 c 0
 737 530 729.667 486.333 715 455 c 0
 667.667 353.667 586.333 303 471 303 c 2
 264 303 l 1
 264 0 l 1
 88 0 l 1
264 705 m 1
 264 449 l 1
 459 449 l 2
 499.667 449 531.667 472.667 555 520 c 1
 561 551 l 1
 565 565 567 579.333 567 594 c 0
 567 610 565 625 561 639 c 0
 547 683 510.333 705 451 705 c 2
 264 705 l 1
EndSplineSet
EndChar
StartChar: Q
Encoding: 51 81
OldEncoding: 81
Width: 905
Flags: W
Fore
776 119 m 1
 868 31 l 1
 778 -63 l 1
 680 31 l 1
 614.667 -7.66667 541 -27 459 -27 c 0
 339.667 -27 245.333 8.66667 176 80 c 0
 140.667 115.333 110.667 165.667 86 231 c 0
 62.6667 291.667 51 354 51 418 c 0
 51 483.333 62.6667 546 86 606 c 0
 110.667 670 140.667 720.667 176 758 c 1
 246 828.667 340.333 864 459 864 c 0
 517.667 864 570.667 855.333 618 838 c 0
 668.667 818.667 709.667 792 741 758 c 0
 781 716 812.667 664.667 836 604 c 0
 857.333 546.667 868 484.667 868 418 c 0
 868 363.333 860 309.333 844 256 c 1
 825.333 200.667 802.667 155 776 119 c 1
557 147 m 1
 469 229 l 1
 559 326 l 1
 655 233 l 1
 685 286.333 700 348 700 418 c 0
 700 464 692.667 509.667 678 555 c 0
 664.667 594.333 643.333 627 614 653 c 1
 573.333 691.667 521.667 711 459 711 c 0
 397.667 711 345.667 691.667 303 653 c 0
 276.333 629 256 595.667 242 553 c 0
 225.333 505 217 460 217 418 c 0
 217 377.333 225.333 333 242 285 c 0
 256.667 240.333 277 206 303 182 c 0
 345 144 397 125 459 125 c 0
 493.667 125 526.333 132.333 557 147 c 1
EndSplineSet
EndChar
StartChar: R
Encoding: 52 82
OldEncoding: 82
Width: 839
Flags: W
Fore
92 0 m 1
 92 850 l 1
 565 850 l 2
 589 850 616.333 844.667 647 834 c 1
 672.333 823.333 696.333 808 719 788 c 1
 740.333 766.667 754 742.333 760 715 c 1
 768 682 l 1
 774 647 l 1
 778 614 l 1
 778 588.667 774.667 565 768 543 c 0
 758 508.333 744.333 482.333 727 465 c 1
 711.667 447 687 428.667 653 410 c 1
 680 393 l 1
 711 373 l 1
 720.333 363.667 727.667 352.667 733 340 c 1
 739.667 328.667 744.667 312.333 748 291 c 1
 752 199 l 1
 756 102 l 1
 756 82 758.667 67 764 57 c 0
 769.333 48.3333 777.333 39.6667 788 31 c 1
 788 0 l 1
 600 0 l 1
 585.333 30.6667 578 57.3333 578 80 c 2
 578 250 l 1
 574.667 271.333 569.667 287.667 563 299 c 1
 551 313 538.667 322.667 526 328 c 0
 513.333 333.333 495.667 336 473 336 c 2
 268 336 l 1
 268 0 l 1
 92 0 l 1
268 705 m 1
 268 481 l 1
 506 481 l 2
 531.333 481 555.333 492 578 514 c 0
 599.333 536 610 567.333 610 608 c 0
 610 672.667 574.667 705 504 705 c 2
 268 705 l 1
EndSplineSet
EndChar
StartChar: S
Encoding: 53 83
OldEncoding: 83
Width: 776
Flags: W
Fore
711 590 m 1
 545 590 l 1
 545 614 538.667 635.667 526 655 c 0
 514.667 675 495.667 692.333 469 707 c 1
 441.667 719 409 725 371 725 c 0
 274.333 725 223 692.333 217 627 c 1
 217 601.667 220.333 583 227 571 c 1
 237 559.667 251.333 550.333 270 543 c 1
 277.333 535.667 293 529.333 317 524 c 0
 317.667 524 350 517.333 414 504 c 0
 441.333 499.333 464.333 494.333 483 489 c 1
 578.333 473 645.333 445.333 684 406 c 0
 720.667 367.333 739 317.333 739 256 c 0
 739 214 729.667 171.667 711 129 c 0
 691 85.6667 664.333 53.6667 631 33 c 1
 572.333 -6.33333 483.667 -27 365 -29 c 0
 339 -29 304 -23.3333 260 -12 c 0
 216.667 -1.33333 182 13.6667 156 33 c 0
 118 59.6667 90 92.3333 72 131 c 0
 52.6667 171 41 211.333 37 252 c 1
 207 252 l 1
 207 218.667 219.333 189.333 244 164 c 0
 276 131.333 329 115 403 115 c 0
 429 115 455 119 481 127 c 0
 504.333 132.333 523.667 141.333 539 154 c 0
 559 172 569 197 569 229 c 0
 569 257 560.333 279.667 543 297 c 0
 530.333 311 512.333 322 489 330 c 0
 465.667 338 433 346 391 354 c 2
 289 373 l 2
 253.667 379.667 227 386.333 209 393 c 0
 180.333 402.333 153.667 416.667 129 436 c 0
 105.667 455.333 88 480.667 76 512 c 1
 62 542.667 55 581.667 55 629 c 1
 63 699.667 93 757 145 801 c 1
 196.333 841.667 273 862 375 862 c 0
 431.667 862 482.667 856 528 844 c 0
 582 830.667 626.667 801.333 662 756 c 0
 694.667 712.667 711 657.333 711 590 c 1
EndSplineSet
EndChar
StartChar: T
Encoding: 54 84
OldEncoding: 84
Width: 712
Flags: W
Fore
16 850 m 1
 696 850 l 1
 696 705 l 1
 449 705 l 1
 449 0 l 1
 274 0 l 1
 274 705 l 1
 16 705 l 1
 16 850 l 1
EndSplineSet
EndChar
StartChar: U
Encoding: 55 85
OldEncoding: 85
Width: 839
Flags: W
Fore
588 850 m 1
 762 850 l 1
 762 264 l 2
 762 141.333 708.667 56 602 8 c 0
 548.667 -15.3333 490.667 -27 428 -27 c 0
 373.333 -27 318.667 -17.3333 264 2 c 1
 146.667 66 88 153.333 88 264 c 2
 88 850 l 1
 264 850 l 1
 264 262 l 2
 264 225.333 275.667 193.333 299 166 c 0
 322.333 138.667 364 125 424 125 c 0
 484.667 125 527.667 138.667 553 166 c 1
 576.333 194.667 588 226.667 588 262 c 2
 588 850 l 1
EndSplineSet
EndChar
StartChar: V
Encoding: 56 86
OldEncoding: 86
Width: 776
Flags: W
Fore
578 850 m 1
 754 850 l 1
 465 0 l 1
 315 0 l 1
 29 850 l 1
 203 850 l 1
 391 209 l 1
 578 850 l 1
EndSplineSet
EndChar
StartChar: W
Encoding: 57 87
OldEncoding: 87
Width: 1099
Flags: W
Fore
14 850 m 1
 201 850 l 1
 332 213 l 1
 459 850 l 1
 643 850 l 1
 770 205 l 1
 901 850 l 1
 1085 850 l 1
 848 0 l 1
 690 0 l 1
 549 647 l 1
 410 0 l 1
 252 0 l 1
 14 850 l 1
EndSplineSet
EndChar
StartChar: X
Encoding: 58 88
OldEncoding: 88
Width: 776
Flags: W
Fore
39 850 m 1
 244 850 l 1
 393 575 l 1
 549 850 l 1
 754 850 l 1
 492 434 l 1
 760 0 l 1
 555 0 l 1
 393 289 l 1
 231 0 l 1
 27 0 l 1
 295 428 l 1
 39 850 l 1
EndSplineSet
EndChar
StartChar: Y
Encoding: 59 89
OldEncoding: 89
Width: 776
Flags: W
Fore
561 850 m 1
 758 850 l 1
 485 315 l 1
 485 0 l 1
 311 0 l 1
 311 315 l 1
 31 850 l 1
 225 850 l 1
 399 483 l 1
 561 850 l 1
EndSplineSet
EndChar
StartChar: Z
Encoding: 60 90
OldEncoding: 90
Width: 712
Flags: W
Fore
35 850 m 1
 674 850 l 1
 674 705 l 1
 240 145 l 1
 674 145 l 1
 674 0 l 1
 35 0 l 1
 35 145 l 1
 469 702 l 1
 35 705 l 1
 35 850 l 1
EndSplineSet
EndChar
StartChar: bracketleft
Encoding: 61 91
OldEncoding: 91
Width: 387
Flags: W
Fore
358 733 m 1
 229 733 l 1
 229 -115 l 1
 358 -115 l 1
 358 -236 l 1
 78 -236 l 1
 78 850 l 1
 358 850 l 1
 358 733 l 1
EndSplineSet
EndChar
StartChar: backslash
Encoding: 62 92
OldEncoding: 92
Width: 323
Flags: W
Fore
-14 825 m 1
 74 825 l 1
 336 -25 l 1
 250 -25 l 1
 -14 825 l 1
EndSplineSet
EndChar
StartChar: bracketright
Encoding: 63 93
OldEncoding: 93
Width: 387
Flags: W
Fore
20 733 m 1
 20 850 l 1
 303 850 l 1
 303 -236 l 1
 20 -236 l 1
 20 -115 l 1
 150 -115 l 1
 150 733 l 1
 20 733 l 1
EndSplineSet
EndChar
StartChar: asciicircum
Encoding: 64 94
OldEncoding: 94
Width: 679
Flags: W
Fore
72 315 m 1
 266 811 l 1
 410 811 l 1
 608 315 l 1
 477 315 l 1
 340 664 l 1
 203 315 l 1
 72 315 l 1
EndSplineSet
EndChar
StartChar: underscore
Encoding: 65 95
OldEncoding: 95
Width: 647
Flags: W
Fore
674 -152 m 1
 674 -233 l 1
 -27 -233 l 1
 -27 -152 l 1
 674 -152 l 1
EndSplineSet
EndChar
StartChar: grave
Encoding: 66 96
OldEncoding: 96
Width: 274
Flags: W
Fore
45 649 m 0
 43 705.667 62 751.333 102 786 c 1
 141.333 823.333 179.667 844 217 848 c 1
 231 819 l 1
 201 803 180.667 790 170 780 c 1
 153.333 767.333 143 747.667 139 721 c 1
 161 721 182.333 714.667 203 702 c 0
 222.333 690.667 233.333 667.667 236 633 c 1
 236 611 228.333 589.667 213 569 c 1
 199 553 179.333 545 154 545 c 0
 117.333 545 90.6667 554.333 74 573 c 1
 54.6667 592.333 45 617.667 45 649 c 0
EndSplineSet
EndChar
StartChar: a
Encoding: 67 97
OldEncoding: 97
Width: 647
Flags: W
Fore
610 0 m 1
 438 0 l 1
 426 16 420 37 420 63 c 1
 393.333 37 365.333 16.6667 336 2 c 0
 298.667 -17.3333 251.667 -27 195 -27 c 1
 83.6667 -13.6667 29 51.3333 31 168 c 0
 31 216.667 46 260.333 76 299 c 0
 101.333 333 147.667 355.667 215 367 c 1
 266.333 369 321 378.333 379 395 c 1
 406.333 408.333 420 432.333 420 467 c 0
 420 486.333 411 500.667 393 510 c 0
 376.333 519.333 349 524 311 524 c 0
 270.333 522 242.333 512 227 494 c 1
 214.333 476.667 207 452.667 205 422 c 1
 51 422 l 1
 53 568 139.667 641 311 641 c 0
 373 641 423 633.333 461 618 c 0
 535.667 590.667 573 532 573 442 c 2
 573 96 l 2
 573 70 585.333 45.6667 610 23 c 1
 610 0 l 1
420 262 m 2
 420 297 l 1
 400 287.667 371.333 279.333 334 272 c 1
 268 264 l 1
 246 260 228.333 251.333 215 238 c 0
 200.333 222 193 204 193 184 c 1
 197 162 l 1
 201.667 151.333 207 141.667 213 133 c 0
 219 125.667 230 119.667 246 115 c 0
 260 111 279.667 109 305 109 c 1
 350.333 115 380.333 132 395 160 c 1
 411.667 185.333 420 219.333 420 262 c 2
EndSplineSet
EndChar
StartChar: b
Encoding: 68 98
OldEncoding: 98
Width: 712
Flags: W
Fore
70 0 m 1
 70 850 l 1
 231 850 l 1
 231 545 l 1
 262.333 609 322.667 641 412 641 c 0
 518 639 590.333 592 629 500 c 0
 656.333 433.333 670 371.667 670 315 c 0
 670 258.333 654.333 193 623 119 c 1
 604.333 80.3333 585 52.3333 565 35 c 1
 547.667 15 523.333 -0.666667 492 -12 c 0
 465.333 -22 432.333 -27 393 -27 c 0
 329 -25 275 5 231 63 c 1
 231 0 l 1
 70 0 l 1
369 500 m 0
 321.667 500 285.333 476 260 428 c 0
 240.667 390 231 349 231 305 c 0
 231 261 240.667 220 260 182 c 0
 284.667 136 321 113 369 113 c 0
 419.667 113 455.667 136 477 182 c 0
 496.333 222 506 263 506 305 c 0
 506 347 496.333 388 477 428 c 0
 465 454.667 449.333 473 430 483 c 0
 409.333 494.333 389 500 369 500 c 0
EndSplineSet
EndChar
StartChar: c
Encoding: 69 99
OldEncoding: 99
Width: 647
Flags: W
Fore
608 395 m 1
 453 395 l 1
 441.667 439.667 427.333 467.667 410 479 c 0
 389.333 493 363.333 500 332 500 c 0
 278.667 502 241 471.333 219 408 c 1
 215 387 l 1
 211 350 l 1
 207 301 l 1
 207 269.667 209.667 243.667 215 223 c 0
 227.667 177 242.667 147 260 133 c 0
 279.333 119 304 111 334 109 c 0
 363.333 109 388 115.667 408 129 c 0
 427.333 143.667 442.333 174.333 453 221 c 1
 608 221 l 1
 608 183.667 596.333 147.667 573 113 c 0
 550.333 77 528.667 49.6667 508 31 c 0
 483.333 10.3333 458.667 -4 434 -12 c 0
 401.333 -22 364.667 -27 324 -27 c 0
 264.667 -29 214 -16 172 12 c 0
 132.667 38 102.667 71 82 111 c 0
 59.3333 153.667 47 189.667 45 219 c 1
 41 242.333 39 271 39 305 c 0
 39 370.333 48.6667 423 68 463 c 1
 89.3333 513 113.667 552 141 580 c 0
 169 606.667 196.333 623 223 629 c 0
 259 637 295.333 641 332 641 c 0
 400.667 643 456 631.333 498 606 c 0
 531.333 585.333 558 553.333 578 510 c 0
 598 463.333 608 425 608 395 c 1
EndSplineSet
EndChar
StartChar: d
Encoding: 70 100
OldEncoding: 100
Width: 712
Flags: W
Fore
635 850 m 1
 635 -4 l 1
 471 -4 l 1
 471 63 l 1
 451.667 34.3333 427 12.6667 397 -2 c 0
 361 -18.6667 331.667 -27 309 -27 c 0
 276.333 -29 244.333 -24 213 -12 c 0
 183.667 -2 158.333 13.6667 137 35 c 0
 116.333 55.6667 98 83.6667 82 119 c 0
 50.6667 187 35 245.667 35 295 c 0
 33 366.333 46 434 74 498 c 0
 115.333 591.333 187.667 639 291 641 c 0
 383.667 641 443.667 609 471 545 c 1
 471 850 l 1
 635 850 l 1
336 502 m 0
 289.333 502 252.333 478 225 430 c 1
 207.667 390.667 199 349.667 199 307 c 0
 199 265 207.667 223.333 225 182 c 1
 251.667 136 288.667 113 336 113 c 0
 382.667 113 418.667 136 444 182 c 1
 462 220.667 471 262.333 471 307 c 0
 471 355.667 462 396.667 444 430 c 0
 419.333 478 383.333 502 336 502 c 0
EndSplineSet
EndChar
StartChar: e
Encoding: 71 101
OldEncoding: 101
Width: 647
Flags: W
Fore
610 264 m 1
 190 264 l 1
 190 219.333 197 186 211 164 c 0
 225.667 142.667 244 127.667 266 119 c 0
 290.667 110.333 318 106 348 106 c 1
 373.333 113.333 394.667 122.333 412 133 c 1
 428 147 438 162 442 178 c 1
 604 178 l 1
 593.333 137.333 573 102 543 72 c 0
 511 40 474.667 16 434 0 c 0
 392.667 -18 353 -27 315 -27 c 0
 263.667 -27 209.333 -11.3333 152 20 c 1
 121.333 42 98 64.6667 82 88 c 1
 61.3333 114.667 47 142.667 39 172 c 1
 33 202 29 227.333 27 248 c 1
 27 305.333 29 350.333 33 383 c 0
 45 457 68 513.667 102 553 c 0
 134 591 169 615.667 207 627 c 0
 239.667 636.333 276.333 641 317 641 c 0
 377.667 641 427 629.333 465 606 c 1
 503 584.667 533.667 555.333 557 518 c 0
 577 486 589.333 458 594 434 c 0
 601.333 406 606 378.667 608 352 c 1
 610 264 l 1
190 375 m 1
 442 375 l 1
 442 406.333 434 435.667 418 463 c 0
 399.333 491.667 369.333 506 328 506 c 0
 283.333 508 249 495 225 467 c 0
 201.667 438.333 190 407.667 190 375 c 1
EndSplineSet
EndChar
StartChar: f
Encoding: 72 102
OldEncoding: 102
Width: 387
Flags: W
Fore
16 510 m 1
 16 618 l 1
 104 618 l 1
 104 692 l 2
 104 741.333 117 780.333 143 809 c 1
 170.333 836.333 208.667 850 258 850 c 2
 360 850 l 1
 360 727 l 1
 303 727 l 2
 279.667 727 268 712.667 268 684 c 2
 268 618 l 1
 365 618 l 1
 365 510 l 1
 268 510 l 1
 268 0 l 1
 104 0 l 1
 104 510 l 1
 16 510 l 1
EndSplineSet
EndChar
StartChar: g
Encoding: 73 103
OldEncoding: 103
Width: 712
Flags: W
Fore
477 631 m 1
 631 631 l 1
 631 -16 l 2
 631 -54.6667 621.333 -91.6667 602 -127 c 0
 584 -160.333 560 -187 530 -207 c 0
 478.667 -241.667 394 -258 276 -256 c 0
 216 -254 163 -233.667 117 -195 c 0
 73 -159 51 -118.667 51 -74 c 1
 221 -74 l 1
 221 -110 253 -133 317 -143 c 1
 363 -143 401.333 -130.667 432 -106 c 0
 462 -82.6667 477 -55 477 -23 c 2
 477 66 l 1
 464.333 51.3333 448 34.6667 428 16 c 0
 414.667 2.66667 397.667 -7.33333 377 -14 c 1
 359 -22.6667 335.667 -27 307 -27 c 0
 262.333 -27 229 -22 207 -12 c 0
 182.333 -2 155.667 16.3333 127 43 c 0
 107.667 62.3333 92 85.6667 80 113 c 1
 65.3333 141 55 169.667 49 199 c 0
 42.3333 232.333 39 264.333 39 295 c 0
 39 349 47 399.333 63 446 c 0
 80.3333 496.667 103.667 536.333 133 565 c 1
 179.667 615.667 238.333 641 309 641 c 0
 333.667 641 354.333 638.333 371 633 c 0
 379 629.667 392.667 622 412 610 c 1
 440 582 l 2
 446 576 458.333 561 477 537 c 1
 477 631 l 1
334 494 m 0
 284.667 494 245.667 470.667 217 424 c 1
 196.333 379.333 186 337.667 186 299 c 0
 186 257.667 196.333 216.667 217 176 c 0
 242.333 128 281.333 104 334 104 c 0
 386.667 104 425.667 128 451 176 c 0
 469.667 212.667 479 253.667 479 299 c 0
 479 341.667 469.667 383.333 451 424 c 1
 422.333 470.667 383.333 494 334 494 c 0
EndSplineSet
EndChar
StartChar: h
Encoding: 74 104
OldEncoding: 104
Width: 712
Flags: W
Fore
229 850 m 1
 229 549 l 1
 270.333 610.333 335.333 641 424 641 c 0
 480 641 528.333 626.667 569 598 c 0
 610.333 568.667 631 523 631 461 c 2
 631 0 l 1
 467 0 l 1
 467 399 l 2
 467 421 462.333 443 453 465 c 1
 441.667 481.667 419.667 492.667 387 498 c 1
 345.667 498 311.667 487.667 285 467 c 0
 256.333 444.333 242 411.667 242 369 c 2
 242 0 l 1
 78 0 l 1
 78 850 l 1
 229 850 l 1
EndSplineSet
EndChar
StartChar: i
Encoding: 75 105
OldEncoding: 105
Width: 323
Flags: W
Fore
78 705 m 1
 78 850 l 1
 242 850 l 1
 242 705 l 1
 78 705 l 1
78 0 m 1
 78 631 l 1
 242 631 l 1
 242 0 l 1
 78 0 l 1
EndSplineSet
EndChar
StartChar: j
Encoding: 76 106
OldEncoding: 106
Width: 323
Flags: W
Fore
82 705 m 1
 82 850 l 1
 244 850 l 1
 244 705 l 1
 82 705 l 1
82 -76 m 2
 82 631 l 1
 244 631 l 1
 244 -117 l 2
 244 -137.667 239.667 -156.667 231 -174 c 0
 222.333 -194.667 211.667 -210.333 199 -221 c 1
 184.333 -235.667 168 -244 150 -246 c 0
 106.667 -252.667 58 -256 4 -256 c 1
 4 -121 l 1
 34 -121 54.6667 -118.333 66 -113 c 1
 76.6667 -105.667 82 -93.3333 82 -76 c 2
EndSplineSet
EndChar
StartChar: k
Encoding: 77 107
OldEncoding: 107
Width: 647
Flags: W
Fore
70 850 m 1
 231 850 l 1
 231 385 l 1
 438 631 l 1
 625 631 l 1
 412 391 l 1
 639 0 l 1
 446 0 l 1
 299 270 l 1
 231 197 l 1
 231 0 l 1
 70 0 l 1
 70 850 l 1
EndSplineSet
EndChar
StartChar: l
Encoding: 78 108
OldEncoding: 108
Width: 323
Flags: W
Fore
78 850 m 1
 242 850 l 1
 242 0 l 1
 78 0 l 1
 78 850 l 1
EndSplineSet
EndChar
StartChar: m
Encoding: 79 109
OldEncoding: 109
Width: 1036
Flags: W
Fore
231 0 m 1
 70 0 l 1
 70 631 l 1
 231 631 l 1
 231 537 l 1
 257.667 574.333 285 600.667 313 616 c 1
 339.667 632.667 378 641 428 641 c 1
 466.667 637 494.667 628.667 512 616 c 0
 531.333 601.333 553.333 579 578 549 c 1
 597.333 578.333 621 602.333 649 621 c 1
 676.333 637 710.667 645 752 645 c 1
 799 641 l 1
 907 627 961 559.333 961 438 c 2
 961 0 l 1
 797 0 l 1
 797 434 l 2
 797 473.333 769.667 496 715 502 c 1
 677 502 647.667 489.667 627 465 c 0
 606.333 438.333 596 412.333 596 387 c 2
 596 0 l 1
 434 0 l 1
 434 434 l 1
 424 477.333 394 500 344 502 c 0
 313.333 502 286.667 491.667 264 471 c 1
 242 453 231 425 231 387 c 2
 231 0 l 1
EndSplineSet
EndChar
StartChar: n
Encoding: 80 110
OldEncoding: 110
Width: 712
Flags: W
Fore
74 0 m 1
 74 631 l 1
 236 631 l 1
 236 537 l 1
 253.333 571 275.667 596.667 303 614 c 0
 330.333 632 360.333 641 393 641 c 0
 555.667 641 637 568.667 637 424 c 2
 637 0 l 1
 473 0 l 1
 473 387 l 2
 473 426.333 466.333 456.333 453 477 c 0
 438.333 499 405.333 510 354 510 c 1
 312 504 282 491 264 471 c 0
 245.333 450.333 236 427.667 236 403 c 2
 236 0 l 1
 74 0 l 1
EndSplineSet
EndChar
StartChar: o
Encoding: 81 111
OldEncoding: 111
Width: 712
Flags: W
Fore
352 -29 m 0
 264 -29 191 -3 133 49 c 0
 105 75 82.6667 112.667 66 162 c 0
 49.3333 212 41 260.333 41 307 c 0
 41 359.667 49.3333 409 66 455 c 1
 80 503 102.333 539.667 133 565 c 1
 187.667 615.667 260.667 641 352 641 c 0
 442 641 514.333 615.667 569 565 c 0
 601 535.667 625 499 641 455 c 1
 656.333 405.667 664 356.333 664 307 c 0
 664 259.667 656.333 211.333 641 162 c 0
 625.667 117.333 601.667 79.6667 569 49 c 0
 513 -3 440.667 -29 352 -29 c 0
352 502 m 0
 300.667 502 262 478.667 236 432 c 0
 215.333 393.333 205 351.667 205 307 c 0
 205 263.667 215.333 222.667 236 184 c 0
 262 136.667 300.667 113 352 113 c 0
 400.667 113 439.667 136.667 469 184 c 1
 489.667 228.667 500 269.667 500 307 c 0
 500 353.667 489.667 395.333 469 432 c 0
 443 478.667 404 502 352 502 c 0
EndSplineSet
EndChar
StartChar: p
Encoding: 82 112
OldEncoding: 112
Width: 712
Flags: W
Fore
68 631 m 1
 229 631 l 1
 229 537 l 1
 262 575 l 2
 271.333 586.333 283 598 297 610 c 0
 309 619.333 322.667 627 338 633 c 0
 352 638.333 371.667 641 397 641 c 0
 469 641 528.333 615.667 575 565 c 0
 604.333 534.333 627 495.667 643 449 c 0
 659.667 397 668 345.667 668 295 c 0
 668 248.333 660.333 201.333 645 154 c 0
 631 108.667 610 71.6667 582 43 c 0
 556 17 529.333 -1.33333 502 -12 c 0
 479.333 -22 445.667 -27 401 -27 c 0
 371 -27 347.333 -22.6667 330 -14 c 1
 312.667 -8.66667 296.333 0.666667 281 14 c 0
 271.667 20.6667 254.333 38 229 66 c 1
 229 -256 l 1
 68 -256 l 1
 68 631 l 1
369 498 m 0
 321 498 283.333 474 256 426 c 1
 238 380.667 229 339.667 229 303 c 0
 229 266.333 238 225.333 256 180 c 1
 283.333 132.667 321 109 369 109 c 0
 415 109 451 132.667 477 180 c 1
 495 222.667 504 263.667 504 303 c 0
 504 342.333 495 383.333 477 426 c 1
 450.333 474 414.333 498 369 498 c 0
EndSplineSet
EndChar
StartChar: q
Encoding: 83 113
OldEncoding: 113
Width: 712
Flags: W
Fore
633 629 m 1
 633 -256 l 1
 471 -256 l 1
 471 66 l 1
 458.333 51.3333 442 34.6667 422 16 c 0
 408.667 2.66667 391.667 -7.33333 371 -14 c 1
 353 -22.6667 329.667 -27 301 -27 c 0
 255 -27 221 -22 199 -12 c 0
 169.667 0 143 18.3333 119 43 c 0
 91.6667 70.3333 70.3333 107.333 55 154 c 0
 40.3333 201.333 33 248.333 33 295 c 0
 33 349 41 399.333 57 446 c 0
 75 497.333 97.6667 537 125 565 c 0
 145 586.333 169.667 605 199 621 c 0
 223.667 634.333 258.333 641 303 641 c 0
 350.333 639 385.333 629.333 408 612 c 1
 432 596 453 571 471 537 c 1
 471 629 l 1
 633 629 l 1
334 494 m 0
 286.667 494 250.333 470 225 422 c 1
 206.333 381.333 197 339.667 197 297 c 0
 197 252.333 206.333 210 225 170 c 0
 248.333 122 284.667 98 334 98 c 0
 381.333 98 417.333 122 442 170 c 0
 461.333 206 471 248.333 471 297 c 0
 471 346.333 461.333 388 442 422 c 1
 417.333 470 381.333 494 334 494 c 0
EndSplineSet
EndChar
StartChar: r
Encoding: 84 114
OldEncoding: 114
Width: 452
Flags: W
Fore
74 0 m 1
 74 631 l 1
 236 631 l 1
 236 510 l 1
 244.667 532 253.333 549 262 561 c 0
 272 574.333 289.667 590 315 608 c 0
 344.333 630 382.667 641 430 641 c 1
 430 475 l 1
 373 479 l 1
 335.667 479 306.333 470.333 285 453 c 0
 260.333 434.333 244 402 236 356 c 1
 236 0 l 1
 74 0 l 1
EndSplineSet
EndChar
StartChar: s
Encoding: 85 115
OldEncoding: 115
Width: 647
Flags: W
Fore
33 186 m 1
 195 186 l 1
 201 164 211 147 225 135 c 0
 237 123.667 251.333 115 268 109 c 0
 291.333 100.333 314 96 336 96 c 0
 400 94 433.333 116 436 162 c 0
 436 173.333 432.667 185 426 197 c 0
 420 207 409.667 213 395 215 c 1
 193 274 l 2
 139.667 289.333 104 310.667 86 338 c 0
 66.6667 367.333 57 397.333 57 428 c 0
 57 496 82.3333 551.333 133 594 c 1
 172.333 625.333 228.333 641 301 641 c 0
 382.333 643 447.333 628 496 596 c 0
 535.333 570.667 561 544.667 573 518 c 0
 584.333 491.333 590 461.333 590 428 c 1
 432 428 l 1
 432 450.667 428.667 467.667 422 479 c 1
 412.667 491 395.667 500.667 371 508 c 0
 347.667 514.667 327.667 518 311 518 c 0
 283.667 518 260 512 240 500 c 1
 223.333 492 215 477 215 455 c 0
 215 433.667 227.333 420 252 414 c 2
 487 350 l 2
 506.333 344.667 525.667 334.333 545 319 c 0
 564.333 303.667 579.333 286 590 266 c 0
 600.667 242.667 606 219.667 606 197 c 0
 606 157.667 595.667 118.667 575 80 c 0
 553 40.6667 517.667 12 469 -6 c 0
 454.333 -10.6667 429.667 -15.3333 395 -20 c 0
 367 -24.6667 339 -27 311 -27 c 0
 255 -25 208.667 -16.6667 172 -2 c 1
 83.3333 37.3333 37 100 33 186 c 1
EndSplineSet
EndChar
StartChar: t
Encoding: 86 116
OldEncoding: 116
Width: 387
Flags: W
Fore
16 618 m 1
 96 618 l 1
 96 791 l 1
 260 791 l 1
 260 618 l 1
 350 618 l 1
 350 510 l 1
 260 510 l 1
 260 156 l 2
 260 118.667 269 100 287 100 c 2
 348 98 l 1
 348 -12 l 1
 318 -22 292 -27 270 -27 c 0
 240.667 -29 215.667 -26 195 -18 c 1
 139 -2 106 36.6667 96 98 c 1
 96 510 l 1
 16 510 l 1
 16 618 l 1
EndSplineSet
EndChar
StartChar: u
Encoding: 87 117
OldEncoding: 117
Width: 712
Flags: W
Fore
631 631 m 1
 631 0 l 1
 467 0 l 1
 467 78 l 1
 441.667 39.3333 419 14 399 2 c 0
 381.667 -9.33333 352.333 -19 311 -27 c 1
 265 -25 227 -20 197 -12 c 0
 163 -4 134.333 16.3333 111 49 c 1
 82.3333 84.3333 68 132.333 68 193 c 2
 68 631 l 1
 229 631 l 1
 229 240 l 2
 229 201.333 236 172 250 152 c 0
 263.333 130 296 119 348 119 c 1
 392.667 125 422.667 137.333 438 156 c 1
 457.333 176.667 467 199 467 223 c 2
 467 631 l 1
 631 631 l 1
EndSplineSet
EndChar
StartChar: v
Encoding: 88 118
OldEncoding: 118
Width: 647
Flags: W
Fore
16 631 m 1
 188 631 l 1
 319 168 l 1
 453 631 l 1
 625 631 l 1
 406 0 l 1
 233 0 l 1
 16 631 l 1
EndSplineSet
EndChar
StartChar: w
Encoding: 89 119
OldEncoding: 119
Width: 905
Flags: W
Fore
6 631 m 1
 174 631 l 1
 272 188 l 1
 365 631 l 1
 535 631 l 1
 625 188 l 1
 723 631 l 1
 893 631 l 1
 717 0 l 1
 549 0 l 1
 451 444 l 1
 350 0 l 1
 182 0 l 1
 6 631 l 1
EndSplineSet
EndChar
StartChar: x
Encoding: 90 120
OldEncoding: 120
Width: 647
Flags: W
Fore
25 631 m 1
 221 631 l 1
 324 440 l 1
 428 631 l 1
 621 631 l 1
 416 315 l 1
 623 0 l 1
 428 0 l 1
 324 186 l 1
 213 0 l 1
 18 0 l 1
 225 315 l 1
 25 631 l 1
EndSplineSet
EndChar
StartChar: y
Encoding: 91 121
OldEncoding: 121
Width: 647
Flags: W
Fore
10 631 m 1
 190 631 l 1
 328 172 l 1
 459 631 l 1
 627 631 l 1
 358 -131 l 1
 352 -156.333 336.333 -183 311 -211 c 0
 295.667 -228.333 265 -240 219 -246 c 0
 171 -252.667 130.667 -256 98 -256 c 1
 98 -123 l 1
 148 -123 181.667 -117.333 199 -106 c 1
 225 -92 238 -69 238 -37 c 0
 238 -21.6667 235.667 -9.33333 231 0 c 1
 10 631 l 1
EndSplineSet
EndChar
StartChar: z
Encoding: 92 122
OldEncoding: 122
Width: 581
Flags: W
Fore
47 631 m 1
 537 631 l 1
 537 498 l 1
 227 133 l 1
 545 133 l 1
 545 0 l 1
 25 0 l 1
 25 133 l 1
 336 498 l 1
 47 498 l 1
 47 631 l 1
EndSplineSet
EndChar
StartChar: braceleft
Encoding: 93 123
OldEncoding: 123
Width: 452
Flags: W
Fore
43 258 m 1
 43 367 l 1
 107 367 139 385.333 139 422 c 2
 139 690 l 2
 139 739.333 154 778.333 184 807 c 0
 214.667 835.667 243.333 850 270 850 c 2
 369 850 l 1
 369 735 l 1
 326 735 l 2
 301.333 735 286.333 730.333 281 721 c 0
 275 712.333 272 696.667 272 674 c 2
 272 426 l 2
 272 362.667 235.333 324.333 162 311 c 1
 189.333 307.667 215.333 298.333 240 283 c 1
 261.333 265 272 233.333 272 188 c 2
 272 -59 l 2
 272 -78.3333 275.667 -93.3333 283 -104 c 0
 289 -115.333 303.333 -121 326 -121 c 2
 369 -121 l 1
 369 -236 l 1
 270 -236 l 2
 244.667 -236 216 -221.667 184 -193 c 0
 154 -164.333 139 -125.333 139 -76 c 2
 139 190 l 2
 139 235.333 107 258 43 258 c 1
EndSplineSet
EndChar
StartChar: bar
Encoding: 94 124
OldEncoding: 124
Width: 325
Flags: W
Fore
209 850 m 1
 209 -236 l 1
 117 -236 l 1
 117 850 l 1
 209 850 l 1
EndSplineSet
EndChar
StartChar: braceright
Encoding: 95 125
OldEncoding: 125
Width: 452
Flags: W
Fore
410 367 m 1
 410 258 l 1
 379.333 258 356.667 253.333 342 244 c 0
 324 233.333 315 215.333 315 190 c 2
 315 -76 l 2
 315 -126.667 299.333 -165.667 268 -193 c 0
 237.333 -221.667 208.667 -236 182 -236 c 2
 84 -236 l 1
 84 -121 l 1
 127 -121 l 2
 151 -121 166 -115.333 172 -104 c 0
 177.333 -95.3333 180 -80.3333 180 -59 c 2
 180 188 l 2
 180 263.333 217.667 305 293 313 c 1
 266.333 315 239.667 324 213 340 c 0
 191 353.333 180 382 180 426 c 2
 180 674 l 2
 180 696.667 177.333 712.333 172 721 c 0
 165.333 731.667 150.333 737 127 737 c 2
 84 737 l 1
 84 850 l 1
 182 850 l 2
 198 850 217.333 844.667 240 834 c 1
 259.333 820 277 801.333 293 778 c 1
 307.667 752.667 315 723.333 315 690 c 2
 315 424 l 2
 315 386 346.667 367 410 367 c 1
EndSplineSet
EndChar
StartChar: asciitilde
Encoding: 96 126
OldEncoding: 126
Width: 679
Flags: W
Fore
152 203 m 1
 70 203 l 1
 78 262.333 98.3333 307.333 131 338 c 0
 159 362.667 187 375 215 375 c 0
 235.667 375 258.333 368 283 354 c 2
 401 287 l 2
 426.333 271.667 447 264 463 264 c 0
 497 264 514 288.667 514 338 c 1
 604 338 l 1
 604 316 600.667 293.333 594 270 c 0
 588 250.667 573 229 549 205 c 0
 525 179 499 166 471 166 c 0
 446.333 166 418.333 175 387 193 c 2
 258 262 l 2
 237.333 273.333 220.333 279 207 279 c 0
 187.667 279 174.667 271.333 168 256 c 0
 160.667 238.667 155.333 221 152 203 c 1
EndSplineSet
EndChar
StartChar: exclamdown
Encoding: 98 161
OldEncoding: 161
Width: 250
Flags: W
Fore
215 638 m 1
 215 509 l 1
 40 509 l 1
 40 638 l 1
 215 638 l 1
189 435 m 1
 228 1 l 1
 228 -180 l 1
 28 -180 l 1
 28 1 l 1
 64 435 l 1
 189 435 l 1
EndSplineSet
EndChar
StartChar: cent
Encoding: 99 162
OldEncoding: 162
Width: 594
Flags: W
Fore
432 511 m 1
 309 121 l 1
 320 117 l 1
 404.667 117 454.667 162.333 470 253 c 1
 595 225 l 1
 582.333 157 550 101.667 498 59 c 0
 446.667 15.6667 382.667 -6 306 -6 c 0
 296.667 -6 284.667 -4 270 0 c 2
 265 2 l 1
 189 -230 l 1
 67 -210 l 1
 142 22 l 1
 70 56 25.6667 115 9 199 c 0
 3 231.667 0 270.667 0 316 c 0
 0 410.667 23.6667 487.333 71 546 c 0
 125.667 611.333 202.333 644 301 644 c 1
 340 640 l 1
 413 866 l 1
 533 847 l 1
 462 620 l 1
 509.333 603.333 542 571 560 523 c 0
 565.333 509.667 570.333 493.333 575 474 c 1
 580 448 l 1
 461 423 l 1
 450 486 l 1
 449 487 l 1
 449 488 l 1
 448 489 l 1
 448 490 l 1
 444.667 498 439.333 505 432 511 c 1
298 529 m 1
 294 530 l 2
 184 532.667 129 463.667 129 323 c 0
 129 252.333 133.333 206 142 184 c 0
 148.667 166 159.333 152 174 142 c 1
 298 529 l 1
EndSplineSet
EndChar
StartChar: sterling
Encoding: 100 163
OldEncoding: 163
Width: 580
Flags: W
Fore
212 363 m 1
 359 363 l 1
 359 275 l 1
 228 275 l 1
 234 263.667 237 248.333 237 229 c 2
 237 174 l 1
 234.333 157.333 218.333 135.333 189 108 c 1
 225 117 l 1
 232 118 l 2
 242 118 257.667 113.333 279 104 c 0
 288.333 100 297.333 97 306 95 c 0
 364.667 82.3333 404.333 76 425 76 c 0
 449 76 481.667 84.3333 523 101 c 1
 547 9 l 1
 495.667 -9.66667 454.667 -19 424 -19 c 1
 380 -15 l 1
 314 0 l 1
 247 17 l 1
 199 20 l 1
 144.333 20 93.3333 6.33333 46 -21 c 1
 7 61 l 1
 85 100.333 124 158.333 124 235 c 1
 119 275 l 1
 19 275 l 1
 19 363 l 1
 96 363 l 1
 79.3333 411.667 71 447.333 71 470 c 0
 71 526.667 93.3333 572 138 606 c 1
 180 640 234.333 657 301 657 c 0
 433 657 508.333 600.333 527 487 c 1
 423 453 l 1
 413.667 504.333 394.667 536.667 366 550 c 0
 350.667 557.333 330 561 304 561 c 0
 268 561 236.667 550 210 528 c 0
 194.667 516 187 496 187 468 c 0
 187 472 187 466.333 187 451 c 0
 187 436.333 191.333 417.667 200 395 c 0
 204.667 383.667 208.667 373 212 363 c 1
EndSplineSet
EndChar
StartChar: currency
Encoding: 101 164
OldEncoding: 164
Width: 638
Flags: W
Fore
117 400 m 1
 37 472 l 1
 122 557 l 1
 202 482 l 1
 238 504 269 516.333 295 519 c 2
 296 519 l 2
 298.667 519 301.667 519.333 305 520 c 2
 318 520 l 2
 352 520 385 510.333 417 491 c 2
 432 482 l 1
 512 557 l 1
 605 471 l 1
 527 399 l 1
 546.333 370.333 557 341.667 559 313 c 1
 559 312 l 1
 559 295 l 2
 559 253 555 223 547 205 c 1
 533 182 l 1
 611 108 l 1
 518 22 l 1
 438 98 l 1
 410 78.6667 375.667 68.3333 335 67 c 2
 318 67 l 2
 272.667 67 236.667 74.6667 210 90 c 0
 206 92.6667 201.667 95.6667 197 99 c 1
 117 23 l 1
 27 110 l 1
 107 184 l 1
 87.6667 211.333 77.6667 243 77 279 c 1
 77 280 l 1
 77 281 l 1
 77 282 l 1
 77 283 l 1
 77 295 l 2
 77 323.667 86.3333 353 105 383 c 1
 117 400 l 1
229 290 m 0
 229 266.667 237 247 253 231 c 0
 269.667 214.333 290 206 314 206 c 0
 338.667 206 359 214.333 375 231 c 0
 391.667 247 400 266.667 400 290 c 0
 400 313.333 391.667 333 375 349 c 0
 357.667 365 337.333 373 314 373 c 0
 290 373 270 365 254 349 c 0
 237.333 333 229 313.333 229 290 c 0
EndSplineSet
EndChar
StartChar: yen
Encoding: 102 165
OldEncoding: 165
Width: 811
Flags: W
Fore
343 1 m 1
 343 157 l 1
 47 157 l 1
 47 268 l 1
 343 268 l 1
 343 319 l 1
 47 319 l 1
 47 435 l 1
 291 435 l 1
 3 840 l 1
 162 840 l 1
 369 544 l 1
 405 475 l 1
 441 551 l 1
 638 840 l 1
 808 840 l 1
 520 435 l 1
 763 435 l 1
 763 319 l 1
 471 319 l 1
 471 268 l 1
 763 268 l 1
 763 157 l 1
 471 157 l 1
 471 1 l 1
 343 1 l 1
EndSplineSet
EndChar
StartChar: brokenbar
Encoding: 103 166
OldEncoding: 166
Width: 163
Flags: W
Fore
145 644 m 1
 145 262 l 1
 18 262 l 1
 18 644 l 1
 145 644 l 1
145 95 m 1
 145 -287 l 1
 18 -287 l 1
 18 95 l 1
 145 95 l 1
EndSplineSet
EndChar
StartChar: section
Encoding: 104 167
OldEncoding: 167
Width: 759
Flags: W
Fore
65 -19 m 1
 220 -5 l 1
 242.667 -43 261 -67 275 -77 c 2
 276 -78 l 2
 294 -90 324.333 -98.3333 367 -103 c 1
 409.667 -103 446.667 -95.3333 478 -80 c 0
 512.667 -63.3333 530 -40 530 -10 c 0
 530 6 522.333 19.6667 507 31 c 1
 507 31 l 1
 506 31 l 2
 496.667 38.3333 474.333 51 439 69 c 1
 273 145 l 2
 193.667 180.333 137.333 210 104 234 c 0
 46.6667 274.667 18 319 18 367 c 0
 18 444.333 74.3333 495 187 519 c 1
 122.333 562.333 90 607.333 90 654 c 0
 90 706 118.667 748.333 176 781 c 0
 228.667 811 270.333 829.333 301 836 c 0
 318.333 839.333 335.667 841 353 841 c 0
 485 841 579 805.333 635 734 c 0
 656.333 706 670.333 673.667 677 637 c 1
 530 620 l 1
 512 656.667 496 680 482 690 c 0
 464 703.333 436.667 711.667 400 715 c 0
 368.667 717 334.667 710 298 694 c 1
 274.667 682 262.333 660 261 628 c 0
 261 615.333 270.333 604 289 594 c 0
 255 612 273 602.667 343 566 c 2
 361 557 l 1
 480 487 l 1
 567.333 449 625.667 420.333 655 401 c 0
 712.333 361.667 741 318 741 270 c 0
 741 200.667 684.667 148.667 572 114 c 1
 651.333 71.3333 691 21.3333 691 -36 c 0
 691 -92.6667 659.667 -137.667 597 -171 c 0
 541.667 -199.667 474.333 -214 395 -214 c 0
 205 -214 95 -149 65 -19 c 1
480 189 m 1
 532.667 208.333 559 231.667 559 259 c 0
 559 289 509.667 324.667 411 366 c 1
 367.667 386 331.667 403.667 303 419 c 1
 249.667 397.667 223 373.333 223 346 c 0
 223 316 268 282 358 244 c 0
 414.667 220.667 455.333 202.333 480 189 c 1
EndSplineSet
EndChar
StartChar: dieresis
Encoding: 105 168
OldEncoding: 168
Width: 499
Flags: W
Fore
40 741 m 1
 40 870 l 1
 196 870 l 1
 196 741 l 1
 40 741 l 1
306 741 m 1
 306 870 l 1
 460 870 l 1
 460 741 l 1
 306 741 l 1
EndSplineSet
EndChar
StartChar: copyright
Encoding: 106 169
OldEncoding: 169
Width: 750
Flags: W
Fore
375 704 m 0
 477.667 704 564 669.333 634 600 c 1
 704.667 532.667 740 448.333 740 347 c 0
 740 249 704 165.333 632 96 c 1
 562 26 476.333 -9 375 -9 c 0
 273.667 -9 188 25.3333 118 94 c 0
 47.3333 163.333 12 247.667 12 347 c 0
 12 448.333 46.6667 533.333 116 602 c 0
 186 670 272.333 704 375 704 c 0
375 612 m 0
 301.667 612 239.667 586.333 189 535 c 0
 137.667 483.667 112 420.667 112 346 c 0
 112 272 137.667 209.667 189 159 c 0
 239.667 109 301.667 84 375 84 c 0
 449 84 511 109 561 159 c 0
 611.667 209.667 637 272 637 346 c 0
 637 419.333 611.667 481.667 561 533 c 0
 509.667 585.667 447.667 612 375 612 c 0
460 298 m 1
 552 273 l 1
 527.333 187 468.333 144 375 144 c 0
 315 144 268.333 163 235 201 c 0
 201.667 238.333 185 287 185 347 c 0
 185 407.667 202.333 456.333 237 493 c 0
 271.667 530.333 319.667 549 381 549 c 0
 465.667 549 520 511.333 544 436 c 1
 456 401 l 1
 440.667 438.333 413.667 457 375 457 c 0
 343 457 318.333 445 301 421 c 0
 285.667 399.667 278 373 278 341 c 0
 278 265.667 309 228 371 228 c 0
 417.667 228 447.333 251.333 460 298 c 1
EndSplineSet
EndChar
StartChar: ordfeminine
Encoding: 107 170
OldEncoding: 170
Width: 351
Flags: W
Fore
236 590 m 1
 212.667 571.333 186.667 561.667 158 561 c 1
 158 561 l 1
 154.667 561 150.333 561 145 561 c 2
 132 561 l 2
 54 561 15 591.667 15 653 c 0
 15 692.333 38 719.333 84 734 c 1
 132 743 l 1
 202 752 l 1
 248 761 l 1
 240 782.333 230 795.333 218 800 c 0
 210.667 802.667 195.667 804.333 173 805 c 0
 139 806.333 115.667 799.667 103 785 c 2
 102 784 l 1
 101 783 l 1
 93 773 l 1
 28 786 l 1
 40 844.667 88.3333 874 173 874 c 0
 269 874 317 840.333 317 773 c 2
 317 646 l 1
 315.667 608.667 322 582.667 336 568 c 1
 248 568 l 1
 237 584 l 1
 236 590 l 1
230 700 m 1
 160 688 l 2
 126.667 681.333 110 670.667 110 656 c 0
 110 634 125.333 623 156 623 c 0
 205.333 623 230 648.667 230 700 c 1
EndSplineSet
EndChar
StartChar: guillemotleft
Encoding: 108 171
OldEncoding: 171
Width: 744
Flags: W
Fore
217 314 m 1
 429 0 l 1
 282 0 l 1
 20 314 l 1
 282 628 l 1
 431 628 l 1
 217 314 l 1
507 314 m 1
 724 0 l 1
 571 0 l 1
 341 314 l 1
 571 628 l 1
 724 628 l 1
 507 314 l 1
EndSplineSet
EndChar
StartChar: logicalnot
Encoding: 109 172
OldEncoding: 172
Width: 543
Flags: W
Fore
529 406 m 1
 409 406 l 1
 409 510 l 1
 14 510 l 1
 14 591 l 1
 529 591 l 1
 529 406 l 1
EndSplineSet
EndChar
StartChar: uni00AD
Encoding: 110 173
OldEncoding: 173
Width: 300
Flags: W
Fore
21 241 m 1
 21 334 l 1
 279 334 l 1
 279 241 l 1
 21 241 l 1
EndSplineSet
EndChar
StartChar: registered
Encoding: 111 174
OldEncoding: 174
Width: 860
Flags: W
Fore
899 379 m 0
 899 307.667 879.667 240.667 841 178 c 0
 801 115.333 747.667 66.3333 681 31 c 0
 610.333 -6.33333 537.333 -25 462 -25 c 0
 388 -25 315 -6.33333 243 31 c 0
 175.667 67 122.333 116 83 178 c 0
 42.3333 244 22 311 22 379 c 0
 22 450.333 42.3333 517.333 83 580 c 1
 118.333 638 171.667 686.333 243 725 c 0
 313.667 761.667 386.667 780 462 780 c 0
 523.333 780 579.667 770 631 750 c 0
 685 729.333 732 700.667 772 664 c 0
 812.667 626.667 843.667 583.667 865 535 c 0
 887.667 487.667 899 435.667 899 379 c 0
802 379 m 0
 802 425 793.333 466.667 776 504 c 0
 760 539.333 735.333 573.333 702 606 c 0
 669.333 636.667 632.667 660.333 592 677 c 0
 552 693 507.333 701 458 701 c 0
 397.333 701 340.667 686 288 656 c 1
 234.667 628.667 192.333 589.667 161 539 c 0
 130.333 487.667 115 433.667 115 377 c 0
 115 321.667 130.333 268.333 161 217 c 0
 189.667 167 232 128 288 100 c 1
 340.667 70 398 55 460 55 c 0
 520.667 55 577.333 70 630 100 c 1
 682.667 126.667 725 165.667 757 217 c 0
 787 267.667 802 321.667 802 379 c 0
411 383 m 1
 411 251 l 2
 411 234.333 416.667 224 428 220 c 0
 434.667 218 443.667 217 455 217 c 1
 455 176 l 1
 252 176 l 1
 252 217 l 1
 294 217 315 227 315 247 c 2
 315 539 l 2
 315 556.333 311.667 566.667 305 570 c 0
 296.333 572.667 280.667 574 258 574 c 1
 258 618 l 1
 471 618 l 2
 515 618 547 614 567 606 c 1
 599 596 621 581 633 561 c 1
 642.333 549.667 647 532.667 647 510 c 0
 647 475.333 634.333 447.333 609 426 c 0
 581 404 551.333 393 520 393 c 1
 671 233 l 2
 681.667 222.333 697.333 217 718 217 c 1
 718 176 l 1
 558 176 l 1
 412 383 l 1
 411 383 l 1
409 550 m 2
 409 436 l 1
 442.333 436 466.667 438 482 442 c 0
 524 452 544 474.667 542 510 c 0
 540.667 542.667 523 560.667 489 564 c 0
 483 564 l 2
 429 567 l 2
 415.667 567 409 561.333 409 550 c 2
EndSplineSet
EndChar
StartChar: macron
Encoding: 112 175
OldEncoding: 175
Width: 321
Flags: W
Fore
20 813 m 1
 20 879 l 1
 301 879 l 1
 301 813 l 1
 20 813 l 1
EndSplineSet
EndChar
StartChar: degree
Encoding: 113 176
OldEncoding: 176
Width: 290
Flags: W
Fore
6 793 m 0
 6 825 19.3333 852.667 46 876 c 0
 73.3333 898 106 909 144 909 c 0
 183.333 909 216.667 898 244 876 c 0
 270.667 852.667 284 825 284 793 c 0
 284 760.333 270.667 732.667 244 710 c 1
 215.333 688 182 677 144 677 c 0
 106 677 73.3333 688 46 710 c 0
 19.3333 732.667 6 760.333 6 793 c 0
83 792 m 0
 83 777.333 89 764.333 101 753 c 0
 113.667 742.333 128 737 144 737 c 0
 161.333 737 176.333 742.333 189 753 c 0
 201 764.333 207 777.333 207 792 c 0
 207 807.333 201 820.667 189 832 c 0
 176.333 843.333 161.333 849 144 849 c 0
 128 849 113.667 843.667 101 833 c 0
 89 821 83 807.333 83 792 c 0
EndSplineSet
EndChar
StartChar: plusminus
Encoding: 114 177
OldEncoding: 177
Width: 777
Flags: W
Fore
304 164 m 1
 304 395 l 1
 16 395 l 1
 16 538 l 1
 304 538 l 1
 304 767 l 1
 473 767 l 1
 473 538 l 1
 761 538 l 1
 761 395 l 1
 473 395 l 1
 473 164 l 1
 304 164 l 1
761 0 m 1
 16 0 l 1
 16 136 l 1
 761 136 l 1
 761 0 l 1
EndSplineSet
EndChar
StartChar: twosuperior
Encoding: 115 178
OldEncoding: 178
Width: 213
Flags: W
Fore
1 583 m 1
 3.66667 610.333 30.3333 643.667 81 683 c 2
 122 714 l 2
 138.667 728 145.333 741.667 142 755 c 0
 138.667 768.333 126.333 775 105 775 c 0
 86.3333 775 74.6667 773 70 769 c 2
 56 755 l 1
 8 760 l 1
 19.3333 807.333 52.3333 831 107 831 c 0
 168.333 831 199 808.667 199 764 c 0
 199 738.667 196.667 722 192 714 c 1
 192 714 192 713.667 192 713 c 0
 189.333 709 186 704.667 182 700 c 0
 173.333 691.333 155 676.667 127 656 c 0
 119 649.333 113 644 109 640 c 1
 202 640 l 1
 202 583 l 1
 1 583 l 1
EndSplineSet
EndChar
StartChar: threesuperior
Encoding: 116 179
OldEncoding: 179
Width: 224
Flags: W
Fore
11 661 m 1
 70 666 l 1
 75.3333 647.333 89 638 111 638 c 0
 140.333 638 155 649.333 155 672 c 0
 155 690.667 139.333 700 108 700 c 2
 98 699 l 1
 93 699 l 1
 100 743 l 1
 125.333 743 138 752.333 138 771 c 0
 138 786.333 128.333 794 109 794 c 0
 93 794 81.6667 785.333 75 768 c 1
 16 775 l 1
 30.6667 814.333 61.6667 834 109 834 c 0
 170.333 834 201 814.333 201 775 c 0
 201 751.667 186 735.333 156 726 c 1
 193.333 716.667 212 696.333 212 665 c 0
 212 642.333 201 624.667 179 612 c 0
 160.333 600 138.333 594 113 594 c 0
 54.3333 594 20.3333 616.333 11 661 c 1
EndSplineSet
EndChar
StartChar: acute
Encoding: 117 180
OldEncoding: 180
Width: 261
Flags: W
Fore
44 759 m 1
 115 872 l 1
 258 872 l 1
 134 759 l 1
 44 759 l 1
EndSplineSet
EndChar
StartChar: mu
Encoding: 118 181
OldEncoding: 181
Width: 645
Flags: W
Fore
623 628 m 1
 623 9 l 1
 491 9 l 1
 491 82 l 1
 459 36.6667 422 9.33333 380 0 c 0
 364 -4 345.667 -6 325 -6 c 0
 271.667 -6 226.667 11.6667 190 47 c 0
 182 53.6667 174 61.6667 166 71 c 1
 166 -229 l 1
 22 -229 l 1
 22 628 l 1
 166 628 l 1
 166 365 l 2
 166 298.333 171.667 248.333 183 215 c 0
 200.333 168.333 225.667 139 259 127 c 1
 259 127 l 1
 275.667 121 295.333 118 318 118 c 0
 373.333 118 413.333 136 438 172 c 0
 445.333 182.667 452.333 196.333 459 213 c 0
 473 247 480 297 480 363 c 2
 480 628 l 1
 623 628 l 1
EndSplineSet
EndChar
StartChar: paragraph
Encoding: 119 182
OldEncoding: 182
Width: 822
Flags: W
Fore
292 -144 m 1
 292 439 l 1
 221.333 439 160.333 457 109 493 c 0
 107.667 493.667 106.333 494.667 105 496 c 0
 53 534.667 27 583.667 27 643 c 0
 27 713 58 767 120 805 c 1
 178 838.333 256.333 855 355 855 c 2
 795 855 l 1
 795 710 l 1
 706 710 l 1
 706 -144 l 1
 549 -144 l 1
 549 710 l 1
 452 710 l 1
 452 -144 l 1
 292 -144 l 1
EndSplineSet
EndChar
StartChar: periodcentered
Encoding: 120 183
OldEncoding: 183
Width: 174
Flags: W
Fore
20 384 m 1
 20 503 l 1
 154 503 l 1
 154 384 l 1
 20 384 l 1
EndSplineSet
EndChar
StartChar: cedilla
Encoding: 121 184
OldEncoding: 184
Width: 327
Flags: W
Fore
91 -60 m 1
 127 28 l 1
 227 28 l 1
 204 -20 l 1
 270.667 -25.3333 305.667 -47.6667 309 -87 c 1
 309 -116.333 286.667 -138.667 242 -154 c 0
 207.333 -166.667 165.667 -173 117 -173 c 0
 80.3333 -173 47.3333 -171 18 -167 c 1
 25 -101 l 1
 88 -103 l 2
 136 -103.667 163 -102.333 169 -99 c 1
 174 -94 l 1
 174 -93 l 1
 176 -81 l 1
 176 -71 170 -65 158 -63 c 1
 158 -63 l 1
 157 -62 l 1
 157 -62 l 1
 156 -62 l 2
 146 -60.6667 124.333 -60 91 -60 c 1
EndSplineSet
EndChar
StartChar: onesuperior
Encoding: 122 185
OldEncoding: 185
Width: 242
Flags: W
Fore
126 558 m 1
 126 716 l 1
 87.3333 696 55 683.667 29 679 c 1
 29 744 l 1
 61 752 93.6667 769.333 127 796 c 0
 127.667 796.667 128.333 797.333 129 798 c 0
 129.667 798 130 798.333 130 799 c 1
 130 799 l 1
 131 800 l 1
 131 800 l 1
 132 800 l 1
 140 807 l 1
 213 807 l 1
 213 558 l 1
 126 558 l 1
EndSplineSet
EndChar
StartChar: ordmasculine
Encoding: 123 186
OldEncoding: 186
Width: 267
Flags: W
Fore
134 849 m 0
 174.667 849 206.333 835.333 229 808 c 0
 251 783.333 262 751.667 262 713 c 0
 262 674.333 251 642.667 229 618 c 0
 206.333 590.667 174.667 577 134 577 c 0
 94.6667 577 63 590.667 39 618 c 0
 19 641.333 9 672.333 9 711 c 0
 9 750.333 19 782.333 39 807 c 0
 61.6667 835 93.3333 849 134 849 c 0
135 771 m 0
 104.333 771 89 751 89 711 c 0
 89 671 104.333 651 135 651 c 0
 165.667 651 181 671.333 181 712 c 0
 181 751.333 165.667 771 135 771 c 0
EndSplineSet
EndChar
StartChar: guillemotright
Encoding: 124 187
OldEncoding: 187
Width: 819
Flags: W
Fore
571 314 m 1
 351 1 l 1
 509 1 l 1
 800 315 l 1
 509 629 l 1
 333 628 l 1
 571 314 l 1
259 315 m 1
 19 1 l 1
 197 1 l 1
 483 315 l 1
 197 629 l 1
 19 629 l 1
 259 315 l 1
EndSplineSet
EndChar
StartChar: onequarter
Encoding: 125 188
OldEncoding: 188
Width: 1080
Flags: W
Fore
123 -36 m 1
 792 776 l 1
 952 776 l 1
 283 -36 l 1
 123 -36 l 1
178 379 m 1
 178 651 l 1
 140 624.333 111 607.333 91 600 c 2
 63 592 l 1
 63 677 l 1
 102.333 687.667 140.667 711.667 178 749 c 2
 202 774 l 1
 316 774 l 1
 316 379 l 1
 178 379 l 1
848 -23 m 1
 848 31 l 1
 632 31 l 1
 632 140 l 1
 863 372 l 1
 979 372 l 1
 979 131 l 1
 1017 131 l 1
 1017 31 l 1
 979 31 l 1
 979 -23 l 1
 848 -23 l 1
848 131 m 1
 848 253 l 1
 726 131 l 1
 848 131 l 1
EndSplineSet
EndChar
StartChar: onehalf
Encoding: 126 189
OldEncoding: 189
Width: 1080
Flags: W
Fore
122 -36 m 1
 791 777 l 1
 945 777 l 1
 276 -36 l 1
 122 -36 l 1
181 379 m 1
 181 651 l 1
 141.667 623.667 109.667 606 85 598 c 2
 64 592 l 1
 64 677 l 1
 105.333 688.333 145.333 713.667 184 753 c 2
 205 774 l 1
 317 774 l 1
 317 379 l 1
 181 379 l 1
694 -39 m 1
 694 17.6667 726.333 71 791 121 c 1
 887 192 l 1
 897.667 201.333 903 209.667 903 217 c 0
 900.333 237.667 895.667 250 889 254 c 0
 883 258 871 261 853 263 c 1
 821.667 260.333 804.333 252.667 801 240 c 1
 801 240 l 1
 799 235 l 1
 705 241 l 1
 723 317 772.667 355 854 355 c 0
 950.667 355 999 319.333 999 248 c 0
 999 213.333 984.333 179.333 955 146 c 1
 870 75 l 1
 844 54 l 1
 1001 54 l 1
 1001 -39 l 1
 694 -39 l 1
EndSplineSet
EndChar
StartChar: threequarters
Encoding: 127 190
OldEncoding: 190
Width: 1080
Flags: W
Fore
34 484 m 1
 136 490 l 1
 144.667 456.667 166 440 200 440 c 0
 244 440 266 459.667 266 499 c 0
 266 529 252.333 548.333 225 557 c 1
 200 560 l 1
 179 559 l 1
 167 559 l 1
 184 629 l 1
 224 629 244 643 244 671 c 0
 244 695 228.333 707 197 707 c 0
 171.667 707 153.667 693.667 143 667 c 1
 42 680 l 1
 66.6667 747.333 118.667 781 198 781 c 0
 300 781 351 747.333 351 680 c 0
 351 639.333 326 611 276 595 c 1
 338.667 579 370 544.333 370 491 c 0
 370 451.667 351.667 421 315 399 c 0
 283 378.333 246 368 204 368 c 0
 105.333 368 48.6667 406.667 34 484 c 1
121 -36 m 1
 790 776 l 1
 943 776 l 1
 274 -36 l 1
 121 -36 l 1
857 -23 m 1
 857 31 l 1
 632 31 l 1
 632 125 l 1
 872 372 l 1
 984 372 l 1
 984 116 l 1
 1017 116 l 1
 1017 31 l 1
 984 31 l 1
 984 -23 l 1
 857 -23 l 1
857 116 m 1
 857 253 l 1
 726 116 l 1
 857 116 l 1
EndSplineSet
EndChar
StartChar: questiondown
Encoding: 128 191
OldEncoding: 191
Width: 639
Flags: W
Fore
394 581 m 1
 394 450 l 1
 245 450 l 1
 245 581 l 1
 394 581 l 1
391 380 m 1
 391 352 l 2
 391 290 381.667 244.667 363 216 c 1
 342.333 169.333 305 123 251 77 c 1
 205.667 42.3333 183 10 183 -20 c 0
 183 -50 195.667 -75.3333 221 -96 c 0
 246.333 -116.667 276.333 -127 311 -127 c 0
 383 -127 432 -105 458 -61 c 0
 468 -44.3333 475.333 -24.3333 480 -1 c 1
 621 -13 l 1
 596.333 -169.667 495.333 -248 318 -248 c 0
 236.667 -248 167.667 -229 111 -191 c 0
 49 -149.667 18 -94.3333 18 -25 c 0
 18 40.3333 65 109.667 159 183 c 0
 189.667 207 214.667 235 234 267 c 0
 248 291.667 255 329.333 255 380 c 1
 391 380 l 1
EndSplineSet
EndChar
StartChar: caron
Encoding: 129 711
OldEncoding: 711
Width: 1228
Flags: W
Fore
612 1174 m 1
 819 1311 l 1
 843 1325.67 860.667 1333 872 1333 c 0
 891.333 1333 908 1326.33 922 1313 c 1
 934 1297.67 940 1282 940 1266 c 0
 940 1240.67 925 1218 895 1198 c 2
 612 1010 l 1
 334 1198 l 2
 302.667 1219.33 287 1241.33 287 1264 c 0
 287 1282.67 293.667 1299 307 1313 c 0
 321 1326.33 337.333 1333 356 1333 c 0
 368 1333 386 1325.67 410 1311 c 1
 612 1174 l 1
EndSplineSet
EndChar
StartChar: ring
Encoding: 130 730
OldEncoding: 730
Width: 1228
Flags: W
Fore
809 1208 m 0
 809 1152 790 1105 752 1067 c 0
 714 1029 668 1010 614 1010 c 0
 559.333 1010 513 1029 475 1067 c 0
 437 1105 418 1152 418 1208 c 0
 418 1259.33 437 1303.67 475 1341 c 0
 514.333 1378.33 560.667 1397 614 1397 c 0
 670 1397 716.667 1378.33 754 1341 c 0
 790.667 1305 809 1260.67 809 1208 c 0
717 1208 m 0
 717 1234 707.333 1256.67 688 1276 c 0
 666.667 1295.33 642 1305 614 1305 c 0
 584.667 1305 560.333 1295.33 541 1276 c 0
 520.333 1257.33 510 1234.67 510 1208 c 0
 510 1179.33 520.333 1155 541 1135 c 0
 561 1114.33 585.333 1104 614 1104 c 0
 643.333 1104 668 1114.33 688 1135 c 0
 707.333 1155.67 717 1180 717 1208 c 0
EndSplineSet
EndChar
StartChar: uni0E01
Encoding: 131 3585
OldEncoding: 3585
Width: 755
Flags: W
Fore
180 489 m 1
 168 495 151.667 500.667 131 506 c 0
 103 514 77 518.667 53 520 c 1
 53 559 l 1
 78 590 l 2
 87.3333 600.667 107 617.667 137 641 c 1
 169.667 662.333 204 679.333 240 692 c 0
 276.667 706 323 713 379 713 c 0
 434.333 713 482 704.667 522 688 c 0
 564 669.333 597 643.333 621 610 c 0
 645 575.333 657 533 657 483 c 2
 657 0 l 1
 539 0 l 1
 539 473 l 2
 539 522.333 523.333 560 492 586 c 0
 460.667 610.667 419.667 623 369 623 c 0
 311 623 253.667 605 197 569 c 1
 223 563 l 2
 228.333 562.333 245.333 557.667 274 549 c 0
 295.333 541 315.333 530 334 516 c 1
 334 459 l 1
 311.333 459 289.333 452 268 438 c 0
 246.667 424.667 236 394 236 346 c 2
 236 0 l 1
 115 0 l 1
 115 338 l 2
 115 378.667 119.667 409.333 129 430 c 0
 139 453.333 156 473 180 489 c 1
EndSplineSet
EndChar
StartChar: uni0E02
Encoding: 132 3586
OldEncoding: 3586
Width: 739
Flags: W
Fore
356 522 m 1
 356 556.667 348 582 332 598 c 1
 312 612.667 292.667 621 274 623 c 1
 280 614.333 285.667 604 291 592 c 0
 297.667 573.333 301 554.333 301 535 c 0
 299 493.667 286 460 262 434 c 1
 236 408 202.667 395 162 395 c 0
 122 395 87.6667 408.667 59 436 c 0
 33 462.667 20 495.667 20 535 c 0
 20 572.333 30.3333 605 51 633 c 0
 73 660.333 99.6667 680.667 131 694 c 0
 161.667 708 195.667 715 233 715 c 0
 301 715 355.667 696.333 397 659 c 0
 438.333 623 459 580 459 530 c 0
 459 500.667 456.333 479.667 451 467 c 0
 445.667 454.333 436.667 438 424 418 c 2
 397 373 l 1
 391.667 359.667 389 341.667 389 319 c 2
 389 106 l 1
 465 106 l 2
 489 106 504.667 109.667 512 117 c 1
 517.333 124.333 520 140.667 520 166 c 2
 520 696 l 1
 641 696 l 1
 641 133 l 2
 641 77.6667 628 42.3333 602 27 c 1
 576.667 9 531 0 465 0 c 2
 186 0 l 1
 186 106 l 1
 268 106 l 1
 268 315 l 2
 268 338.333 271.667 359 279 377 c 0
 285 391.667 295.667 408.667 311 428 c 0
 323.667 442.667 334 457 342 471 c 0
 346.667 478.333 351.333 495.333 356 522 c 1
162 479 m 0
 179.333 479 193 484.667 203 496 c 0
 211 506 215 518 215 532 c 0
 215 548 211 561 203 571 c 0
 193.667 581 180 586 162 586 c 0
 146 586 133 580.333 123 569 c 0
 113.667 559.667 109 547.333 109 532 c 0
 109 517.333 113.667 505.333 123 496 c 0
 133 484.667 146 479 162 479 c 0
EndSplineSet
EndChar
StartChar: uni0E03
Encoding: 133 3587
OldEncoding: 3587
Width: 817
Flags: W
Fore
186 303 m 0
 132.667 303 93.3333 320 68 354 c 1
 40.6667 387.333 27 430.333 27 483 c 0
 27 503.667 28.3333 522.333 31 539 c 0
 34.3333 573.667 48.6667 605.667 74 635 c 0
 94 659.667 119.333 680 150 696 c 0
 176 710 198.333 717 217 717 c 1
 295 674 l 1
 383 717 l 1
 418.333 711 452.333 694.667 485 668 c 0
 518.333 640.667 535 609.667 535 575 c 0
 535 553 529.333 534 518 518 c 1
 483 477 l 1
 472.333 462.333 467 443.333 467 420 c 2
 467 106 l 1
 545 106 l 2
 569 106 584.667 109.667 592 117 c 1
 597.333 124.333 600 140.667 600 166 c 2
 600 696 l 1
 719 696 l 1
 719 166 l 2
 719 106 709.333 63.6667 690 39 c 1
 672.667 13 632.333 0 569 0 c 2
 264 0 l 1
 264 106 l 1
 348 106 l 1
 348 430 l 2
 348 488 369.333 528.333 412 551 c 1
 426.667 561.667 434 571.333 434 580 c 0
 434 595.333 419 610.333 389 625 c 1
 295 580 l 1
 199 625 l 1
 179 621.667 161.667 612 147 596 c 1
 135.667 580 129 567.667 127 559 c 1
 130.333 562.333 135.667 565 143 567 c 0
 154.333 571 168.667 573 186 573 c 0
 214 573 238 567 258 555 c 1
 276 546.333 291 531.333 303 510 c 0
 315.667 487.333 322 465.333 322 444 c 0
 324 406.667 312.333 372.667 287 342 c 1
 263 316 229.333 303 186 303 c 0
184 385 m 0
 201.333 385 214.333 390.333 223 401 c 0
 233 412.333 238 424.667 238 438 c 0
 238 454 233 467 223 477 c 1
 215 487 202 492 184 492 c 0
 170.667 492 157.667 486.333 145 475 c 0
 135.667 465.667 131 453.333 131 438 c 0
 131 423.333 135.667 411 145 401 c 0
 157 390.333 170 385 184 385 c 0
EndSplineSet
EndChar
StartChar: uni0E04
Encoding: 134 3588
OldEncoding: 3588
Width: 749
Flags: W
Fore
340 262 m 1
 307 266 l 1
 291 270 283 272.667 283 274 c 2
 283 0 l 1
 162 0 l 1
 162 121 l 2
 162 152.333 157 180.333 147 205 c 0
 135 233.667 120.667 261.667 104 289 c 0
 91.3333 309.667 77.6667 338.333 63 375 c 0
 53.6667 399 49 429 49 465 c 0
 51 519.667 66.6667 566 96 604 c 0
 125.333 644 163 672.667 209 690 c 0
 257 709.333 306 719 356 719 c 0
 408.667 719 457.333 710 502 692 c 0
 545.333 674 581.333 646 610 608 c 0
 637.333 570.667 651 525.667 651 473 c 2
 651 0 l 1
 532 0 l 1
 532 467 l 2
 532 517.667 514.333 556.667 479 584 c 0
 442.333 611.333 399.333 625 350 625 c 0
 298.667 625 253 610.667 213 582 c 0
 172.333 551.333 152 511 152 461 c 0
 152 431.667 156.667 404.333 166 379 c 0
 173.333 357 178 346 180 346 c 1
 180 348 l 2
 180 387.333 191 427.667 213 469 c 1
 233.667 513.667 276 537 340 539 c 0
 380.667 539 414 526 440 500 c 0
 464.667 473.333 477 440.333 477 401 c 0
 477 363.667 464.667 331.667 440 305 c 0
 415.333 278.333 382 264 340 262 c 1
340 346 m 0
 356.667 346 370.333 351.333 381 362 c 1
 389 372.667 393 385.667 393 401 c 0
 393 417 389 430 381 440 c 0
 371.667 450 358 455 340 455 c 0
 324 455 311 449.333 301 438 c 0
 291.667 428.667 287 416.333 287 401 c 0
 287 385 291.667 372 301 362 c 0
 311.667 351.333 324.667 346 340 346 c 0
EndSplineSet
EndChar
StartChar: uni0E05
Encoding: 135 3589
OldEncoding: 3589
Width: 749
Flags: W
Fore
258 709 m 1
 365 664 l 1
 479 709 l 1
 519 697.667 552.667 678.333 580 651 c 0
 607.333 623.667 625.667 594.333 635 563 c 0
 645.667 527.667 651 497.667 651 473 c 2
 651 0 l 1
 532 0 l 1
 532 469 l 2
 532 500.333 528.667 527.667 522 551 c 0
 516 569.667 499 587.333 471 604 c 1
 365 565 l 1
 262 610 l 1
 227.333 596 200 576.333 180 551 c 1
 161.333 523 152 493 152 461 c 0
 152 431.667 156.667 404.333 166 379 c 0
 173.333 357 178 346 180 346 c 1
 180 348 l 2
 180 387.333 191 427.667 213 469 c 1
 233.667 513.667 276 537 340 539 c 0
 380.667 539 414 526 440 500 c 0
 464.667 473.333 477 440.333 477 401 c 0
 477 363.667 464.667 331.667 440 305 c 0
 415.333 278.333 382 264 340 262 c 1
 307 266 l 1
 291 270 283 272.667 283 274 c 2
 283 0 l 1
 162 0 l 1
 162 121 l 2
 162 152.333 157 180.333 147 205 c 0
 135 233.667 120.667 261.667 104 289 c 0
 91.3333 309.667 77.6667 338.333 63 375 c 0
 53.6667 399 49 429 49 465 c 0
 51 584.333 120.667 665.667 258 709 c 1
340 346 m 0
 356.667 346 370.333 351.333 381 362 c 1
 389 372.667 393 385.667 393 401 c 0
 393 417 389 430 381 440 c 0
 371.667 450 358 455 340 455 c 0
 324 455 311 449.333 301 438 c 0
 291.667 428.667 287 416.333 287 401 c 0
 287 385 291.667 372 301 362 c 0
 311.667 351.333 324.667 346 340 346 c 0
EndSplineSet
EndChar
StartChar: uni0E06
Encoding: 136 3590
OldEncoding: 3590
Width: 937
Flags: W
Fore
473 412 m 2
 473 322 l 1
 511.667 316 543.667 307.667 569 297 c 0
 586.333 290.333 617.333 273.333 662 246 c 1
 691.333 226 711 209 721 195 c 1
 721 696 l 1
 840 696 l 1
 840 0 l 1
 721 0 l 1
 721 12 710.667 35.3333 690 70 c 0
 668.667 106.667 640 140 604 170 c 0
 569.333 199.333 525.667 217 473 223 c 1
 473 106 l 2
 473 72 461.333 43.3333 438 20 c 0
 415.333 -2.66667 384.667 -14 346 -14 c 0
 298 -14 260.333 1.66667 233 33 c 0
 206.333 63.6667 193 100.333 193 143 c 0
 193 187.667 207.333 227.333 236 262 c 0
 264 297.333 303.333 317.333 354 322 c 1
 354 424 l 2
 354 482 375.333 522.333 418 545 c 1
 432.667 551 440 559.667 440 571 c 0
 440 589 425 604.667 395 618 c 1
 301 573 l 1
 205 618 l 1
 183.667 614.667 166 604.667 152 588 c 0
 138.667 571.333 129.667 557 125 545 c 1
 129 549 137.333 553 150 557 c 0
 158 560.333 172.333 563 193 565 c 1
 232.333 565 264.333 552.667 289 528 c 0
 315 502 328 471.333 328 436 c 0
 330 399.333 317 366.667 289 338 c 0
 261.667 310.667 229.667 297 193 297 c 0
 139.667 299 100 315.333 74 346 c 0
 46.6667 379.333 33 421.667 33 473 c 0
 33 492.333 34.3333 511.333 37 530 c 0
 45 582 70.3333 625 113 659 c 0
 154.333 692.333 191 709 223 709 c 1
 301 668 l 1
 389 709 l 1
 423 705 457.333 689.333 492 662 c 0
 524.667 634.667 541 603.667 541 569 c 0
 541 551.667 538 537.333 532 526 c 1
 508 492 l 1
 481 457 l 1
 475.667 447 473 432 473 412 c 2
299 96 m 0
 305 84 315.333 78 330 78 c 0
 346 78 354 87.3333 354 106 c 2
 354 227 l 1
 336 225 319.667 215.667 305 199 c 1
 293 179.667 287 160.333 287 141 c 0
 287 125.667 291 110.667 299 96 c 0
188 377 m 0
 203.333 377 216.333 382.333 227 393 c 0
 237 402.333 242 415.333 242 432 c 0
 242 447.333 237.667 459.667 229 469 c 0
 218.333 479.667 204.667 485 188 485 c 0
 173.333 485 160.667 479.667 150 469 c 0
 140 459.667 135 447.333 135 432 c 0
 135 415.333 140 402.333 150 393 c 0
 160.667 382.333 173.333 377 188 377 c 0
EndSplineSet
EndChar
StartChar: uni0E07
Encoding: 137 3591
OldEncoding: 3591
Width: 598
Flags: W
Fore
358 709 m 0
 398.667 709 433 696.667 461 672 c 1
 487 645.333 500 614 500 578 c 2
 500 100 l 2
 500 63.3333 488.333 34 465 12 c 1
 439 -9.33333 409 -20 375 -20 c 0
 317.667 -20 276 2.33333 250 47 c 2
 20 436 l 1
 115 498 l 1
 184 381 l 1
 287 209 l 1
 342 111 l 1
 352 91.6667 361 82 369 82 c 0
 377 82 381 95 381 121 c 2
 381 436 l 1
 375 436 l 1
 358 434 l 1
 318.667 434 284.667 447.667 256 475 c 1
 231.333 501.667 219 533.667 219 571 c 0
 219 609 231.333 641.333 256 668 c 0
 282 695.333 316 709 358 709 c 0
358 516 m 0
 375.333 516 388.333 521.333 397 532 c 0
 407 542 412 555 412 571 c 0
 412 587.667 407 600.667 397 610 c 1
 389.667 620 376.667 625 358 625 c 0
 344.667 625 331.667 619.333 319 608 c 0
 309.667 598.667 305 586.333 305 571 c 0
 305 555 309.667 542 319 532 c 0
 331 521.333 344 516 358 516 c 0
EndSplineSet
EndChar
StartChar: uni0E08
Encoding: 138 3592
OldEncoding: 3592
Width: 706
Flags: W
Fore
608 139 m 2
 608 78.3333 595.667 38.6667 571 20 c 0
 548.333 1.33333 517.667 -8 479 -8 c 0
 446.333 -8 419.667 0 399 16 c 0
 377.667 30.6667 362 55.3333 352 90 c 1
 330 178 l 1
 313 231 l 1
 312.333 229 305.667 224.333 293 217 c 0
 282.333 211.667 265.333 209 242 209 c 0
 196 211 162.333 224.667 141 250 c 1
 116.333 276.667 104 308.667 104 346 c 0
 104 381.333 116.333 413.333 141 442 c 0
 164.333 469.333 198 483 242 483 c 0
 314 483 360.667 451.667 382 389 c 0
 383.333 386.333 384.333 383.667 385 381 c 2
 463 104 l 1
 465 86.6667 469.667 78 477 78 c 0
 485 78 489 90.3333 489 115 c 2
 489 475 l 2
 489 525 474 560 444 580 c 0
 414.667 601.333 377.333 612 332 612 c 0
 247.333 612 175 574 115 498 c 1
 39 553 l 1
 102.333 657 201.333 709 336 709 c 0
 414.667 709 480 689 532 649 c 0
 582.667 611 608 554.333 608 479 c 2
 608 139 l 2
242 293 m 0
 259.333 293 273 297.667 283 307 c 1
 291 317 295 330 295 346 c 0
 295 362 291 375 283 385 c 1
 273 394.333 259.333 399 242 399 c 0
 224.667 399 211.667 393.667 203 383 c 0
 193 373 188 360.667 188 346 c 0
 188 331.333 193 319 203 309 c 0
 213.667 298.333 226.667 293 242 293 c 0
EndSplineSet
EndChar
StartChar: uni0E09
Encoding: 139 3593
OldEncoding: 3593
Width: 815
Flags: W
Fore
170 473 m 0
 207.333 473 239.333 461.333 266 438 c 0
 293.333 416 307 386.667 307 350 c 2
 307 184 l 1
 331 218 364.667 246 408 268 c 1
 448 290.667 491 307 537 317 c 1
 537 477 l 2
 537 523 523.333 558 496 582 c 0
 468.667 604.667 427 616 371 616 c 0
 335.667 616 300 604.667 264 582 c 0
 230 559.333 199.333 532 172 500 c 1
 92 555 l 1
 121.333 599 161.667 637.333 213 670 c 1
 263 698.667 319 713 381 713 c 0
 464.333 713 531.333 692.333 582 651 c 1
 630.667 608.333 655 551 655 479 c 2
 655 317 l 1
 698.333 309 731.333 288.667 754 256 c 0
 779.333 218 790.667 178.333 788 137 c 1
 788 91.6667 774.667 55.6667 748 29 c 0
 721.333 0.333333 688.333 -14 649 -14 c 0
 619 -14 593 -5.33333 571 12 c 0
 548.333 31.3333 537 60 537 98 c 2
 537 229 l 1
 475 213.667 421.667 183.667 377 139 c 0
 333.667 95.6667 309 49.3333 303 0 c 1
 188 0 l 1
 188 201 l 1
 180 199 l 1
 170 197 l 1
 127.333 199 94 213.333 70 240 c 0
 45.3333 265.333 33 296.667 33 334 c 0
 33 369.333 45.3333 401.333 70 430 c 0
 94 458.667 127.333 473 170 473 c 0
707 147 m 0
 707 169 702 187.667 692 203 c 0
 682.667 216.333 670.333 225 655 229 c 1
 655 100 l 1
 657 82.6667 662.667 74 672 74 c 1
 678 76 684 80 690 86 c 1
 702 117 l 1
 705.333 128.333 707 138.333 707 147 c 0
172 281 m 0
 188.667 281 202.333 286.333 213 297 c 1
 221 307 225 320 225 336 c 0
 225 352 221 365 213 375 c 0
 203.667 384.333 190 389 172 389 c 0
 156.667 389 143.667 383.667 133 373 c 0
 123.667 363 119 350.667 119 336 c 0
 119 320.667 123.667 308.333 133 299 c 0
 143 287 156 281 172 281 c 0
EndSplineSet
EndChar
StartChar: uni0E0A
Encoding: 140 3594
OldEncoding: 3594
Width: 753
Flags: W
Fore
375 524 m 0
 377 556 368.667 580.667 350 598 c 1
 334.667 615.333 317 625 297 627 c 1
 299 625 305.667 614 317 594 c 1
 324.333 574 328 555 328 537 c 0
 328 496.333 315.667 462 291 434 c 0
 265 406.667 230 393 186 393 c 0
 146.667 393 112.667 406.667 84 434 c 0
 58 460 45 494.333 45 537 c 0
 45 571 56 601 78 627 c 1
 98 653 124 673.333 156 688 c 0
 188.667 703.333 219.333 711 248 711 c 0
 300 711 345.667 700 385 678 c 0
 425 655.333 450.333 628 461 596 c 1
 477.667 596 504.333 606.333 541 627 c 1
 577.667 645 615.667 688 655 756 c 1
 741 700 l 1
 721.667 654 696 619.333 664 596 c 0
 634.667 574.667 610.667 560.333 592 553 c 1
 602.667 548.333 616.333 536 633 516 c 1
 647.667 495.333 655 460.667 655 412 c 2
 655 133 l 2
 655 95 651 66.3333 643 47 c 0
 634.333 28.3333 620 16 600 10 c 0
 578 3.33333 546.667 2.1684e-19 506 0 c 2
 205 0 l 1
 205 106 l 1
 291 106 l 1
 291 319 l 2
 291 339.667 294.333 358.333 301 375 c 0
 307.667 391 318 407.333 332 424 c 1
 362 467 l 1
 370.667 481.667 375 500.667 375 524 c 0
188 479 m 0
 204 479 217 484.667 227 496 c 0
 237 505.333 242 517.333 242 532 c 0
 242 548.667 237 561.667 227 571 c 0
 217.667 581 204.667 586 188 586 c 0
 172.667 586 160 580.333 150 569 c 0
 140 559.667 135 547.333 135 532 c 0
 135 517.333 140 505.333 150 496 c 0
 160 484.667 172.667 479 188 479 c 0
473 510 m 1
 471 479.333 467.667 459.667 463 451 c 0
 455.667 435 448 422.667 440 414 c 1
 433.333 404 426 389.667 418 371 c 0
 412.667 357.667 410 336.333 410 307 c 2
 410 106 l 1
 479 106 l 2
 504.333 106 520.667 109.667 528 117 c 0
 534 123.667 537 140 537 166 c 2
 537 401 l 2
 537 443.667 528.667 472.333 512 487 c 1
 498 502.333 485 510 473 510 c 1
EndSplineSet
EndChar
StartChar: uni0E0B
Encoding: 141 3595
OldEncoding: 3595
Width: 796
Flags: W
Fore
373 717 m 1
 399 715 428.333 701.333 461 676 c 0
 492.333 650.667 510 624 514 596 c 1
 533.333 598.667 558.667 610.333 590 631 c 1
 622.667 649.667 658.667 691.333 698 756 c 1
 786 700 l 1
 766 652.667 741 618 711 596 c 0
 681.667 574.667 657.667 560.333 639 553 c 1
 649.667 549 662.667 536.667 678 516 c 1
 692.667 492.667 700 458 700 412 c 2
 700 133 l 2
 700 77.6667 690.667 41.6667 672 25 c 0
 651.333 8.33333 611 8.67362e-19 551 0 c 2
 248 0 l 1
 248 106 l 1
 334 106 l 1
 334 330 l 2
 334 351.333 337.333 369.667 344 385 c 1
 352.667 399.667 363.667 414 377 428 c 1
 410 471 l 1
 417.333 483.667 422 501.333 424 524 c 1
 424 552 421.333 572.667 416 586 c 0
 410.667 598 399 610 381 622 c 1
 381 623 l 1
 377 625 l 1
 285 580 l 1
 188 625 l 1
 164.667 621 147.667 611.333 137 596 c 0
 125.667 580 119 567.667 117 559 c 1
 120.333 562.333 125.667 565 133 567 c 0
 141 571 155.333 573 176 573 c 0
 201.333 573 225.333 567 248 555 c 0
 267.333 544.333 282.333 529.333 293 510 c 0
 305 488.667 311 466.667 311 444 c 0
 313 406 300.667 372.667 274 344 c 0
 250 316.667 217.333 303 176 303 c 0
 123.333 303 83 320 55 354 c 1
 27.6667 390.667 14 433.667 14 483 c 1
 18 539 l 1
 25.3333 575.667 39.6667 607 61 633 c 0
 85.6667 661 111 682 137 696 c 0
 164.333 710 187 717 205 717 c 1
 285 674 l 1
 340 700 l 1
 373 717 l 1
516 510 m 1
 514 486.667 510 469 504 457 c 0
 497.333 440.333 489.667 427.333 481 418 c 1
 461 373 l 1
 455.667 357.667 453 335.667 453 307 c 2
 453 106 l 1
 522 106 l 2
 547.333 106 563.667 109.667 571 117 c 0
 578.333 125.667 582 142 582 166 c 2
 582 401 l 2
 582 444.333 573 473 555 487 c 1
 541 502.333 528 510 516 510 c 1
172 385 m 0
 188.667 385 202.333 390.333 213 401 c 1
 221 412.333 225 424.667 225 438 c 0
 225 454 221 467 213 477 c 1
 203 487 189.333 492 172 492 c 0
 157.333 492 144.333 486.333 133 475 c 0
 123.667 465.667 119 453.333 119 438 c 0
 119 423.333 123.667 411 133 401 c 0
 143.667 390.333 156.667 385 172 385 c 0
EndSplineSet
EndChar
StartChar: uni0E0C
Encoding: 142 3596
OldEncoding: 3596
Width: 978
Flags: W
Fore
614 82 m 2
 614 54.6667 605.333 32 588 14 c 0
 570 -3.33333 543.333 -12 508 -12 c 0
 472.667 -12 446 0.333333 428 25 c 0
 410 49 401 81 401 121 c 0
 401 153.667 408.667 183.667 424 211 c 0
 438.667 234.333 462.667 250.667 496 260 c 1
 496 524 l 2
 496 556.667 483 582 457 600 c 0
 431 617.333 395.333 627 350 629 c 0
 328.667 629 302 624 270 614 c 0
 233.333 603.333 208.333 589 195 571 c 1
 213.667 567.667 234 562.333 256 555 c 0
 285.333 546.333 311.333 533.333 334 516 c 1
 334 459 l 1
 311.333 459 289.333 452 268 438 c 0
 246.667 424.667 236 394 236 346 c 2
 236 248 l 1
 240 250 l 1
 246 250 l 2
 274 250 297.667 243.667 317 231 c 0
 337.667 217.667 352.667 201.333 362 182 c 0
 372 164 377 143 377 119 c 0
 377 95.6667 372 74.3333 362 55 c 0
 352 35 337 18.6667 317 6 c 0
 297 -6 273.333 -12 246 -12 c 0
 203.333 -12 171.333 1 150 27 c 1
 126.667 51.6667 115 83 115 121 c 2
 115 338 l 2
 115 378.667 119.667 409.333 129 430 c 0
 139 453.333 156 473 180 489 c 1
 168 495 151.667 500.667 131 506 c 0
 102.333 514 76.3333 518.667 53 520 c 1
 53 559 l 1
 67.6667 583 102 615 156 655 c 0
 208.667 693.667 283 713 379 713 c 0
 427 713 465.333 706 494 692 c 0
 527.333 676.667 551 659.667 565 641 c 0
 583.667 618.333 596 595.667 602 573 c 0
 610 549 614 526.667 614 506 c 2
 614 254 l 1
 639.333 248 662.667 237.667 684 223 c 0
 713.333 205 731 193.333 737 188 c 0
 749 178.667 757.333 170.667 762 164 c 1
 762 696 l 1
 881 696 l 1
 881 0 l 1
 762 0 l 1
 752 22.6667 735 52.6667 711 90 c 1
 683 128.667 650.667 152.667 614 162 c 1
 614 82 l 2
248 63 m 0
 257.333 63 267.667 66 279 72 c 1
 287.667 78.6667 293.667 85.3333 297 92 c 0
 301 100 303 109 303 119 c 0
 303 137 298.333 150.667 289 160 c 0
 279.667 169.333 266 174 248 174 c 0
 231.333 174 217.667 168.667 207 158 c 0
 195.667 145.333 190 132.333 190 119 c 0
 190 105.667 195.667 93.3333 207 82 c 0
 217.667 69.3333 231.333 63 248 63 c 0
514 70 m 1
 514 182 l 1
 496 180 483.667 173.333 477 162 c 0
 470.333 150.667 467 134.333 467 113 c 0
 467 98.3333 471 86 479 76 c 1
 485.667 64.6667 493.333 59 502 59 c 0
 508 59 512 62.6667 514 70 c 1
EndSplineSet
EndChar
StartChar: uni0E0D
Encoding: 143 3597
OldEncoding: 3597
Width: 978
Flags: W
Fore
881 696 m 1
 881 133 l 2
 881 97 875.333 68.3333 864 47 c 0
 854 28.3333 837 16 813 10 c 0
 788.333 3.33333 755 2.1684e-19 713 0 c 2
 428 0 l 1
 428 106 l 1
 496 106 l 1
 496 524 l 2
 496 556.667 483 582 457 600 c 0
 431 617.333 395.333 627 350 629 c 0
 328.667 629 302 624 270 614 c 0
 233.333 603.333 208.333 589 195 571 c 1
 213.667 567.667 234 562.333 256 555 c 0
 285.333 546.333 311.333 533.333 334 516 c 1
 334 459 l 1
 311.333 459 289.333 452 268 438 c 0
 246.667 424.667 236 394 236 346 c 2
 236 248 l 1
 240 250 l 1
 246 250 l 2
 274 250 297.667 243.667 317 231 c 0
 337.667 217.667 352.667 201.333 362 182 c 0
 372 164 377 143 377 119 c 0
 377 95.6667 372 74.3333 362 55 c 0
 352 35 337 18.6667 317 6 c 0
 297 -6 273.333 -12 246 -12 c 0
 203.333 -12 171.333 1 150 27 c 1
 126.667 51.6667 115 83 115 121 c 2
 115 338 l 2
 115 378.667 119.667 409.333 129 430 c 0
 139 453.333 156 473 180 489 c 1
 168 495 151.667 500.667 131 506 c 0
 103 514 77 518.667 53 520 c 1
 53 559 l 1
 67.6667 583 102 615 156 655 c 0
 208.667 693.667 283 713 379 713 c 0
 427 713 465.333 706 494 692 c 0
 527.333 676.667 551 659.667 565 641 c 0
 583.667 618.333 596 595.667 602 573 c 0
 610 549 614 526.667 614 506 c 2
 614 106 l 1
 713 106 l 2
 734.333 106 748.667 109.667 756 117 c 1
 760 123 762 139.333 762 166 c 2
 762 696 l 1
 881 696 l 1
643 -236 m 1
 667 -236 693 -223.667 721 -199 c 1
 747 -173 760 -119.667 760 -39 c 1
 877 -39 l 1
 877 -114.333 864 -174.333 838 -219 c 0
 810.667 -264.333 777.667 -295 739 -311 c 1
 702.333 -329 661.333 -338 616 -338 c 0
 578 -338 547.333 -333.333 524 -324 c 0
 477.333 -307.333 445.333 -286 428 -260 c 0
 408 -230 399 -197.333 401 -162 c 0
 401 -127.333 413.333 -96.6667 438 -70 c 1
 460 -44 492.333 -31 535 -31 c 0
 578.333 -31 611 -44 633 -70 c 0
 653.667 -96.6667 664 -128 664 -164 c 0
 664 -194.667 657 -218.667 643 -236 c 1
535 -217 m 0
 551.667 -217 566 -211.667 578 -201 c 0
 587.333 -191 592 -178 592 -162 c 0
 592 -145.333 587.333 -132.333 578 -123 c 0
 565.333 -111.667 551 -106 535 -106 c 0
 519 -106 505.333 -111.667 494 -123 c 0
 484 -132.333 479 -145.333 479 -162 c 0
 479 -176.667 484.667 -189.667 496 -201 c 0
 506.667 -211.667 519.667 -217 535 -217 c 0
248 63 m 0
 257.333 63 267.667 66 279 72 c 1
 287.667 78.6667 293.667 85.3333 297 92 c 0
 301 100 303 109 303 119 c 0
 303 137 298.333 150.667 289 160 c 0
 279.667 169.333 266 174 248 174 c 0
 231.333 174 217.667 168.667 207 158 c 0
 195.667 145.333 190 132.333 190 119 c 0
 190 105.667 195.667 93.3333 207 82 c 0
 217.667 69.3333 231.333 63 248 63 c 0
EndSplineSet
EndChar
StartChar: uni0E0E
Encoding: 144 3598
OldEncoding: 3598
Width: 823
Flags: W
Fore
494 -96 m 1
 536 -120 559 -133.667 563 -137 c 2
 606 -172 l 1
 606 473 l 2
 606 521.667 589.667 559.333 557 586 c 0
 525 610.667 484.667 623 436 623 c 0
 408 623 378.667 618 348 608 c 0
 318 600 290 587 264 569 c 1
 324 555 l 2
 347.333 549.667 373 536.667 401 516 c 1
 401 459 l 1
 379.667 459 358.667 452 338 438 c 0
 314.667 424 303 393.333 303 346 c 2
 303 125 l 2
 303 84.3333 291.333 51.6667 268 27 c 1
 247.333 1.66667 214 -12 168 -14 c 1
 122 -12 88.6667 1.66667 68 27 c 1
 43.3333 52.3333 31 83.6667 31 121 c 0
 31 161 43.3333 193.667 68 219 c 1
 90 246.333 123.333 260 168 260 c 2
 178 260 l 1
 182 258 l 1
 182 338 l 2
 182 376.667 187.667 407.333 199 430 c 0
 209.667 454 226 473.667 248 489 c 1
 237.333 494.333 221 500 199 506 c 0
 169 514 142.333 518.667 119 520 c 1
 119 559 l 1
 145 590 l 2
 157.667 604 177.667 621 205 641 c 0
 235 661.667 268.333 678.667 305 692 c 0
 343 706 390 713 446 713 c 0
 501.333 713 549.333 704 590 686 c 1
 632.667 670 665.333 644 688 608 c 1
 712.667 573.333 725 531.667 725 483 c 2
 725 -334 l 1
 606 -334 l 1
 578 -294 550.667 -264 524 -244 c 0
 494.667 -220 473.667 -204.333 461 -197 c 1
 445 -235 420.333 -267 387 -293 c 0
 347.667 -322.333 304.667 -336 258 -334 c 0
 220 -334 186 -319 156 -289 c 1
 127.333 -262.333 113 -226.667 113 -182 c 0
 115 -136 131.333 -100 162 -74 c 0
 192.667 -47.3333 233 -33 283 -31 c 0
 313.667 -31 351.667 -38.3333 397 -53 c 1
 406 -20 l 1
 418 39 l 1
 518 16 l 1
 508 -47 l 1
 494 -96 l 1
168 63 m 0
 186 63 200.333 69.3333 211 82 c 0
 221.667 94.6667 227 108.333 227 123 c 0
 227 140.333 222.333 154.667 213 166 c 0
 202.333 176.667 187.333 182 168 182 c 0
 150 182 135.667 176.667 125 166 c 0
 114.333 153.333 109 139 109 123 c 0
 109 108.333 114.333 94.6667 125 82 c 0
 135.667 69.3333 150 63 168 63 c 0
303 -225 m 1
 324.333 -215.667 340 -202.667 350 -186 c 0
 360.667 -170.667 367 -158.667 369 -150 c 1
 343 -137.333 315 -131 285 -131 c 0
 261.667 -131 243 -136.333 229 -147 c 0
 215.667 -157.667 209 -171.333 209 -188 c 1
 213 -207 l 1
 219 -224.333 236.667 -233 266 -233 c 0
 283.333 -233 295.667 -230.333 303 -225 c 1
EndSplineSet
EndChar
StartChar: uni0E0F
Encoding: 145 3599
OldEncoding: 3599
Width: 823
Flags: W
Fore
535 -104 m 1
 606 -176 l 1
 606 473 l 2
 606 521.667 589.667 559.333 557 586 c 0
 525 610.667 484.667 623 436 623 c 0
 408 623 378.667 618 348 608 c 0
 318 600 290 587 264 569 c 1
 324 555 l 2
 347.333 549.667 373 536.667 401 516 c 1
 401 459 l 1
 379.667 459 358.667 452 338 438 c 0
 314.667 424 303 393.333 303 346 c 2
 303 125 l 2
 303 84.3333 291.333 51.6667 268 27 c 1
 247.333 1.66667 214 -12 168 -14 c 1
 122 -12 88.6667 1.66667 68 27 c 1
 43.3333 52.3333 31 83.6667 31 121 c 0
 31 161 43.3333 193.667 68 219 c 1
 90 246.333 123.333 260 168 260 c 2
 178 260 l 1
 182 258 l 1
 182 338 l 2
 182 376.667 187.667 407.333 199 430 c 0
 209.667 454 226 473.667 248 489 c 1
 237.333 494.333 221 500 199 506 c 0
 169 514 142.333 518.667 119 520 c 1
 119 559 l 1
 145 590 l 2
 157.667 604 177.667 621 205 641 c 0
 235 661.667 268.333 678.667 305 692 c 0
 343 706 390 713 446 713 c 0
 501.333 713 549.333 704 590 686 c 1
 632.667 670 665.333 644 688 608 c 1
 712.667 573.333 725 531.667 725 483 c 2
 725 -334 l 1
 612 -334 l 1
 528 -233 l 1
 434 -334 l 1
 423.333 -311.333 411.667 -292 399 -276 c 0
 389.667 -264 379.667 -252.667 369 -242 c 1
 359 -262 345.333 -281 328 -299 c 0
 305.333 -323.667 271.667 -336 227 -336 c 0
 190.333 -336 161 -323 139 -297 c 0
 114.333 -269 102 -232.667 102 -188 c 1
 106 -151.333 121 -122.667 147 -102 c 0
 174.333 -82 205.333 -72 240 -72 c 0
 274 -72 306 -81.3333 336 -100 c 1
 341.333 -86 346.667 -67.6667 352 -45 c 0
 360.667 -8.33333 365.667 18.3333 367 35 c 1
 455 20 l 1
 441 -64 426 -123.333 410 -158 c 1
 426 -172 l 1
 444 -195 l 1
 502 -139 l 2
 524 -117 535 -105.333 535 -104 c 1
168 63 m 1
 188 66.3333 201.667 73.3333 209 84 c 0
 217 94 221 107 221 123 c 0
 221 140.333 216.333 154.667 207 166 c 0
 196.333 176.667 180 182 158 182 c 1
 140.667 180 127 174 117 164 c 0
 107 153.333 102 140.333 102 125 c 0
 102 107 108.333 92.6667 121 82 c 1
 131.667 69.3333 147.333 63 168 63 c 1
258 -242 m 0
 269.333 -236.667 279.667 -225.667 289 -209 c 1
 299 -186 l 1
 299 -186 l 1
 275 -167.333 254 -158 236 -158 c 0
 212.667 -158 196.667 -168.667 188 -190 c 1
 188 -228.667 202.333 -248 231 -248 c 0
 241 -248 250 -246 258 -242 c 0
EndSplineSet
EndChar
StartChar: uni0E10
Encoding: 146 3600
OldEncoding: 3600
Width: 622
Flags: W
Fore
387 0 m 1
 381 34 366.667 78.3333 344 133 c 1
 324 186.333 312.333 213 309 213 c 1
 298.333 202.333 287.333 192.667 276 184 c 1
 258.667 173.333 235 168 205 168 c 0
 161 168 127.333 181.667 104 209 c 0
 80 236.333 68 268.333 68 305 c 0
 68 343 80 375 104 401 c 0
 128.667 427.667 162.333 442 205 444 c 0
 243.667 444 275 436.667 299 422 c 0
 319.667 408 337.333 381.333 352 342 c 1
 379 281 l 1
 395 242 l 1
 395 338 l 2
 395 376 392.333 402.667 387 418 c 0
 380.333 435.333 371.333 447 360 453 c 0
 352.667 456.333 329.667 463.667 291 475 c 0
 221.667 493 173.667 504 147 508 c 2
 39 524 l 1
 39 569 l 1
 57.6667 597 78.6667 621.667 102 643 c 0
 128.667 667.667 155.333 684.667 182 694 c 1
 208 706.667 239.333 713 276 713 c 0
 312.667 713 356.667 705.333 408 690 c 0
 457.333 674 490.667 666 508 666 c 0
 530.667 666 556.667 672 586 684 c 0
 586.667 684 590 672.333 596 649 c 1
 606 590 l 1
 564.667 577.333 532 571 508 571 c 1
 459 575 l 1
 393 598 l 1
 326 618 l 2
 310 622.667 293.333 625 276 625 c 0
 258.667 625 241 620.667 223 612 c 0
 205 604 195 596.667 193 590 c 1
 272 578 l 1
 356 559 l 1
 430 538.333 474.333 513.667 489 485 c 0
 505.667 455.667 514 408 514 342 c 2
 514 0 l 1
 387 0 l 1
389 -307 m 1
 422 -285 l 1
 422 -260 l 1
 408 -262 l 1
 370.667 -262 342 -250.333 322 -227 c 1
 301.333 -205.667 291 -178.333 291 -145 c 0
 291 -112.333 302 -85 324 -63 c 0
 344.667 -40.3333 372.667 -29 408 -29 c 0
 442 -29 470 -39.6667 492 -61 c 0
 513.333 -81.6667 524 -107.667 524 -139 c 2
 524 -262 l 2
 524 -282.667 518 -299 506 -311 c 1
 494.667 -325.667 479.667 -338 461 -348 c 2
 393 -387 l 1
 313 -342 l 1
 244 -385 l 1
 188 -330 l 1
 169.333 -372.667 132.667 -393 78 -391 c 0
 50.6667 -391 25.3333 -379.333 2 -356 c 1
 -17.3333 -332.667 -27 -305.333 -27 -274 c 0
 -27 -245.333 -14.6667 -221.667 10 -203 c 0
 33.3333 -183.667 60 -174 90 -174 c 0
 118.667 -174 144.667 -183.667 168 -203 c 1
 178 -150 l 1
 182 -123.333 184 -92.3333 184 -57 c 1
 262 -57 l 1
 262 -99.6667 259.333 -136.667 254 -168 c 0
 248 -204.667 238.333 -236 225 -262 c 1
 258 -295 l 1
 287 -279 l 2
 304.333 -268.333 313 -262 313 -260 c 1
 389 -307 l 1
88 -244 m 0
 73.3333 -244 63 -248 57 -256 c 0
 50.3333 -264.667 47 -274.333 47 -285 c 0
 47 -307.667 60.6667 -319 88 -319 c 0
 102.667 -319 115 -313 125 -301 c 0
 133.667 -289.667 139 -280 141 -272 c 1
 137 -266 131 -260 123 -254 c 0
 111.667 -247.333 100 -244 88 -244 c 0
410 -193 m 0
 423.333 -193 434 -188 442 -178 c 1
 450.667 -170 455 -159.667 455 -147 c 0
 455 -135 450.667 -124.333 442 -115 c 0
 434.667 -105 424 -100 410 -100 c 0
 393.333 -100 382.333 -105 377 -115 c 1
 369 -125 365 -135.667 365 -147 c 0
 365 -159.667 369 -170 377 -178 c 1
 383 -188 394 -193 410 -193 c 0
207 252 m 0
 223.667 252 237.333 257.333 248 268 c 1
 256 278.667 260 291 260 305 c 0
 260 319.667 256 332 248 342 c 1
 237.333 352.667 223.667 358 207 358 c 0
 189.667 358 176.667 352.667 168 342 c 0
 158.667 332.667 154 320.333 154 305 c 0
 154 290.333 158.667 278 168 268 c 0
 178.667 257.333 191.667 252 207 252 c 0
EndSplineSet
EndChar
StartChar: uni0E11
Encoding: 147 3601
OldEncoding: 3601
Width: 960
Flags: W
Fore
453 424 m 2
 453 287 l 1
 573 582 l 1
 593 626.667 610.333 657.333 625 674 c 0
 640.333 691.333 671 700 717 700 c 0
 781 700 821.333 685.667 838 657 c 0
 854 629 862 588.333 862 535 c 2
 862 0 l 1
 743 0 l 1
 743 526 l 2
 743 555.333 741.667 576.667 739 590 c 0
 737 598 730.333 603.333 719 606 c 1
 709 606 700.667 602.667 694 596 c 1
 686 578 l 1
 446 0 l 1
 334 0 l 1
 334 430 l 2
 334 488 355 528.333 397 551 c 1
 412.333 561 420 570.667 420 580 c 0
 420 593.333 405 608.333 375 625 c 1
 281 580 l 1
 184 625 l 1
 163.333 621 146.333 611.333 133 596 c 1
 121.667 580 115 567.667 113 559 c 1
 116.333 562.333 121.667 565 129 567 c 0
 139 571 153.333 573 172 573 c 0
 198.667 573 222.667 567 244 555 c 0
 264 545 279.667 530 291 510 c 0
 299.667 492.667 305 470.667 307 444 c 1
 307 404 294.667 370.667 270 344 c 0
 246 316.667 213.333 303 172 303 c 0
 119.333 303 79.6667 319.333 53 352 c 0
 25.6667 386.667 12 429.667 12 481 c 0
 12 502.333 13.3333 521.667 16 539 c 0
 23.3333 575 37.6667 607 59 635 c 1
 82.3333 662.333 107.667 682.667 135 696 c 0
 160.333 710 183 717 203 717 c 1
 281 674 l 1
 369 717 l 1
 404.333 711 437.667 694.667 469 668 c 0
 500.333 640.667 516 609.667 516 575 c 0
 516 559.667 514 547 510 537 c 1
 485 506 l 2
 477.667 497.333 469.667 485.667 461 471 c 0
 455.667 462.333 453 446.667 453 424 c 2
170 385 m 0
 186.667 385 200.333 390.333 211 401 c 1
 219 412.333 223 424.667 223 438 c 0
 223 454 219 467 211 477 c 1
 201 487 187.333 492 170 492 c 0
 155.333 492 142.333 486.333 131 475 c 0
 121.667 465.667 117 453.333 117 438 c 0
 117 423.333 121.667 411 131 401 c 0
 141.667 390.333 154.667 385 170 385 c 0
EndSplineSet
EndChar
StartChar: uni0E12
Encoding: 148 3602
OldEncoding: 3602
Width: 1013
Flags: W
Fore
236 145 m 1
 276 207 l 1
 317 266 l 1
 288.333 268 262.667 282.333 240 309 c 0
 218 335 207 366.333 207 403 c 0
 207 441.667 220 474 246 500 c 0
 272 526 305.333 539 346 539 c 0
 388.667 539 421.333 526.667 444 502 c 0
 470 471.333 483 437.667 483 401 c 0
 485 357 472.667 317 446 281 c 1
 258 0 l 1
 154 0 l 1
 154 68 148.333 122 137 162 c 1
 106 225 l 2
 88 260.333 71.6667 298.667 57 340 c 1
 46.3333 377.333 41 416.333 41 457 c 0
 43 513.667 67 566 113 614 c 1
 156.333 662.667 203.333 694.333 254 709 c 1
 365 662 l 1
 477 711 l 1
 547 676.333 592.667 642.667 614 610 c 1
 637.333 579.333 649 533.667 649 473 c 2
 649 254 l 1
 681.667 246.667 711.667 232.333 739 211 c 1
 795 164 l 1
 795 696 l 1
 913 696 l 1
 913 0 l 1
 793 0 l 1
 783 25.3333 766.333 55.3333 743 90 c 0
 718.333 128 687 152 649 162 c 1
 649 82 l 2
 649 56.6667 639.667 34 621 14 c 0
 603 -3.33333 577 -12 543 -12 c 0
 507.667 -12 481 0.333333 463 25 c 0
 441.667 51.6667 432 83.6667 434 121 c 0
 434 153 442.333 183 459 211 c 0
 473.667 234.333 497.333 250.667 530 260 c 1
 530 489 l 2
 530 527.667 524.667 555.667 514 573 c 0
 504 589.667 489.667 603.333 471 614 c 1
 365 573 l 1
 254 614 l 1
 180 575.333 143 521.667 143 453 c 0
 143 403 162.333 339.333 201 262 c 0
 213 237.333 222.333 212 229 186 c 1
 236 145 l 1
547 70 m 1
 547 182 l 1
 517 178 502 155 502 113 c 0
 502 99.6667 505.333 87.3333 512 76 c 1
 521.333 64.6667 529 59 535 59 c 0
 541 59 545 62.6667 547 70 c 1
346 346 m 0
 363.333 346 376.333 351.333 385 362 c 0
 394.333 372 399 385 399 401 c 0
 399 417.667 394.333 430.667 385 440 c 1
 377.667 450 364.667 455 346 455 c 0
 330 455 317 449.333 307 438 c 0
 297.667 428.667 293 416.333 293 401 c 0
 293 385 297.667 372 307 362 c 0
 317.667 351.333 330.667 346 346 346 c 0
EndSplineSet
EndChar
StartChar: uni0E13
Encoding: 149 3603
OldEncoding: 3603
Width: 1011
Flags: W
Fore
496 0 m 1
 496 524 l 2
 496 556.667 483 582 457 600 c 0
 431 617.333 395.333 627 350 629 c 0
 328.667 629 302 624 270 614 c 0
 233.333 603.333 208.333 589 195 571 c 1
 213.667 567.667 234 562.333 256 555 c 0
 285.333 546.333 311.333 533.333 334 516 c 1
 334 459 l 1
 311.333 459 289.333 452 268 438 c 0
 246.667 424.667 236 394 236 346 c 2
 236 248 l 1
 240 250 l 1
 246 250 l 2
 274 250 297.667 243.667 317 231 c 0
 337.667 217.667 352.667 201.333 362 182 c 0
 372 164 377 143 377 119 c 0
 377 95.6667 372 74.3333 362 55 c 0
 352 35 337 18.6667 317 6 c 0
 297 -6 273.333 -12 246 -12 c 0
 203.333 -12 171.333 1 150 27 c 1
 126.667 51.6667 115 83 115 121 c 2
 115 338 l 2
 115 378.667 119.667 409.333 129 430 c 0
 139 453.333 156 473 180 489 c 1
 168 495 151.667 500.667 131 506 c 0
 102.333 514 76.3333 518.667 53 520 c 1
 53 559 l 1
 67.6667 583 102 615 156 655 c 0
 208.667 693.667 283 713 379 713 c 0
 427 713 465.333 706 494 692 c 0
 527.333 676.667 551 659.667 565 641 c 0
 583.667 618.333 596 595.667 602 573 c 0
 610 549 614 526.667 614 506 c 2
 614 217 l 1
 633.333 240.333 657.333 261.667 686 281 c 0
 717.333 301.667 742.667 313.667 762 317 c 1
 762 696 l 1
 881 696 l 1
 881 317 l 1
 923 309 956.333 288.667 981 256 c 0
 1003 224.667 1014 185 1014 137 c 0
 1014 92.3333 1000.33 56.3333 973 29 c 0
 946.333 0.333333 913.333 -14 874 -14 c 0
 842.667 -14 816.333 -5.33333 795 12 c 0
 773 30 762 58.6667 762 98 c 2
 762 229 l 1
 721.333 212.333 688 182.333 662 139 c 0
 632.667 92.3333 615.333 46 610 0 c 1
 496 0 l 1
248 63 m 0
 257.333 63 267.667 66 279 72 c 1
 287.667 78.6667 293.667 85.3333 297 92 c 0
 301 100 303 109 303 119 c 0
 303 137 298.333 150.667 289 160 c 0
 279.667 169.333 266 174 248 174 c 0
 231.333 174 217.667 168.667 207 158 c 0
 195.667 145.333 190 132.333 190 119 c 0
 190 105.667 195.667 93.3333 207 82 c 0
 217.667 69.3333 231.333 63 248 63 c 0
932 147 m 0
 932 167.667 926.333 185.667 915 201 c 0
 904.333 215.667 893 225 881 229 c 1
 881 100 l 2
 881 82.6667 885.667 74 895 74 c 0
 906.333 76 915.333 84 922 98 c 0
 928.667 114.667 932 131 932 147 c 0
EndSplineSet
EndChar
StartChar: uni0E14
Encoding: 150 3604
OldEncoding: 3604
Width: 747
Flags: W
Fore
350 713 m 0
 452 711 527 687 575 641 c 0
 624.333 594.333 649 538.333 649 473 c 2
 649 0 l 1
 530 0 l 1
 530 483 l 2
 530 525 513 557.333 479 580 c 1
 443.667 600 402 610 354 610 c 0
 300 610 251.667 595 209 565 c 0
 166.333 535 145 494 145 442 c 0
 145 402.667 163.667 342.667 201 262 c 0
 213 237.333 222.333 212 229 186 c 1
 236 145 l 1
 276 205 l 2
 274.667 203.667 288.333 223.333 317 264 c 1
 288.333 266 262.667 280.333 240 307 c 0
 218 333 207 364.333 207 401 c 0
 207 439.667 220 472 246 498 c 0
 272 524 305.333 537 346 537 c 0
 388.667 537 421.333 524.667 444 500 c 0
 470 469.333 483 435.667 483 399 c 0
 485 355 472.667 315 446 279 c 1
 258 0 l 1
 154 0 l 1
 154 68 148.333 122 137 162 c 1
 106 225 l 1
 90 259.667 75 298 61 340 c 1
 49 384.667 43 423.667 43 457 c 0
 45 499 59.3333 539.333 86 578 c 0
 112 618 147.667 650.667 193 676 c 0
 239 700.667 291.333 713 350 713 c 0
346 346 m 0
 363.333 346 376.333 351.333 385 362 c 0
 394.333 372 399 384.333 399 399 c 0
 399 415.667 394.333 428.667 385 438 c 1
 377.667 448 364.667 453 346 453 c 0
 331.333 453 318.333 447.333 307 436 c 0
 297.667 426.667 293 414.333 293 399 c 0
 293 384.333 297.667 372 307 362 c 0
 317.667 351.333 330.667 346 346 346 c 0
EndSplineSet
EndChar
StartChar: uni0E15
Encoding: 151 3605
OldEncoding: 3605
Width: 747
Flags: W
Fore
649 0 m 1
 530 0 l 1
 530 489 l 2
 530 527.667 524.667 555.667 514 573 c 0
 504 589.667 489.667 603.333 471 614 c 1
 365 573 l 1
 254 614 l 1
 180 575.333 143 521.667 143 453 c 0
 143 403 162.333 339.333 201 262 c 0
 213 237.333 222.333 212 229 186 c 1
 236 145 l 1
 276 207 l 1
 317 266 l 1
 288.333 268 262.667 282.333 240 309 c 0
 218 335 207 366.333 207 403 c 0
 207 441.667 220 474 246 500 c 0
 272 526 305.333 539 346 539 c 0
 388.667 539 421.333 526.667 444 502 c 0
 470 471.333 483 437.667 483 401 c 0
 485 357 472.667 317 446 281 c 1
 258 0 l 1
 154 0 l 1
 154 68 148.333 122 137 162 c 1
 106 225 l 2
 88 260.333 71.6667 298.667 57 340 c 1
 46.3333 377.333 41 416.333 41 457 c 0
 43 513.667 67 566 113 614 c 1
 156.333 662.667 203.333 694.333 254 709 c 1
 365 662 l 1
 477 711 l 1
 547 676.333 592.667 642.667 614 610 c 1
 637.333 579.333 649 533.667 649 473 c 2
 649 0 l 1
346 346 m 0
 363.333 346 376.333 351.333 385 362 c 0
 394.333 372 399 385 399 401 c 0
 399 417.667 394.333 430.667 385 440 c 1
 377.667 450 364.667 455 346 455 c 0
 330 455 317 449.333 307 438 c 0
 297.667 428.667 293 416.333 293 401 c 0
 293 385 297.667 372 307 362 c 0
 317.667 351.333 330.667 346 346 346 c 0
EndSplineSet
EndChar
StartChar: uni0E16
Encoding: 152 3606
OldEncoding: 3606
Width: 755
Flags: W
Fore
236 262 m 1
 252 262 l 2
 296 262 330 248.333 354 221 c 0
 378.667 193.667 391 161.667 391 125 c 0
 391 86.3333 378.667 54.3333 354 29 c 1
 330 1.66667 296 -12 252 -12 c 0
 210.667 -12 178 1.66667 154 29 c 1
 128 54.3333 115 86.3333 115 125 c 2
 115 338 l 2
 115 378.667 119.667 409.333 129 430 c 0
 139 453.333 156 473 180 489 c 1
 168 495 151.667 500.667 131 506 c 0
 103 514 77 518.667 53 520 c 1
 53 559 l 1
 78 590 l 2
 87.3333 600.667 107 617.667 137 641 c 1
 169.667 662.333 204 679.333 240 692 c 0
 276.667 706 323 713 379 713 c 0
 434.333 713 482 704.667 522 688 c 0
 564 669.333 597 643.333 621 610 c 0
 645 575.333 657 533 657 483 c 2
 657 0 l 1
 539 0 l 1
 539 473 l 2
 539 522.333 523.333 560 492 586 c 0
 460.667 610.667 419.667 623 369 623 c 0
 311 623 253.667 605 197 569 c 1
 223 563 l 2
 228.333 562.333 245.333 557.667 274 549 c 0
 295.333 541 315.333 530 334 516 c 1
 334 459 l 1
 311.333 459 289.333 452 268 438 c 0
 246.667 424.667 236 394 236 346 c 2
 236 262 l 1
262 66 m 1
 278 68 291 74 301 84 c 0
 311.667 94.6667 317 107.667 317 123 c 0
 317 140.333 311.667 155.333 301 168 c 0
 290.333 178.667 274 184 252 184 c 1
 234 182 221 176 213 166 c 0
 203.667 156.667 199 143 199 125 c 0
 199 110.333 204.333 96.6667 215 84 c 0
 225 72 240.667 66 262 66 c 1
EndSplineSet
EndChar
StartChar: uni0E17
Encoding: 153 3607
OldEncoding: 3607
Width: 819
Flags: W
Fore
197 0 m 1
 197 436 l 1
 152 434 l 1
 117.333 438 89.3333 453.667 68 481 c 0
 47.3333 507.667 37 538.333 37 573 c 0
 37 611 49.3333 643.333 74 670 c 1
 96 696 129.333 709 174 709 c 0
 218 709 253 695.333 279 668 c 0
 303 641.333 315 607.667 315 567 c 2
 315 287 l 1
 436 582 l 2
 454.667 626.667 471.667 658 487 676 c 1
 503.667 692 534.667 700 580 700 c 0
 646 700 686 685.667 700 657 c 1
 716.667 629.667 725 589 725 535 c 2
 725 0 l 1
 606 0 l 1
 606 526 l 2
 606 555.333 604.667 576.667 602 590 c 0
 600.667 598 594 603.333 582 606 c 1
 571.333 606 563.667 602.667 559 596 c 0
 555 592 551.667 586 549 578 c 1
 309 0 l 1
 197 0 l 1
174 516 m 0
 191.333 516 204.333 521.333 213 532 c 0
 222.333 542 227 555 227 571 c 0
 227 587.667 222.333 600.667 213 610 c 1
 205.667 620 192.667 625 174 625 c 0
 159.333 625 146.333 619.333 135 608 c 0
 125.667 598.667 121 586.333 121 571 c 0
 121 555 125.667 542 135 532 c 0
 145.667 521.333 158.667 516 174 516 c 0
EndSplineSet
EndChar
StartChar: uni0E18
Encoding: 154 3608
OldEncoding: 3608
Width: 649
Flags: W
Fore
160 561 m 1
 178 563 l 1
 229 563 l 2
 351 563 440.667 540.667 498 496 c 1
 533.333 466 551 414 551 340 c 2
 551 133 l 2
 551 77 541.333 41 522 25 c 1
 504.667 8.33333 464.333 8.67362e-19 401 0 c 2
 66 0 l 1
 66 106 l 1
 152 106 l 1
 152 432 l 1
 270 432 l 1
 270 106 l 1
 377 106 l 2
 401 106 416.667 109.667 424 117 c 1
 429.333 124.333 432 140.667 432 166 c 2
 432 342 l 2
 432 366 430 385 426 399 c 0
 422 413 410.333 427.333 391 442 c 1
 378.333 454 344.333 463 289 469 c 0
 227 475.667 169 479 115 479 c 2
 31 477 l 1
 31 549 l 1
 54.3333 591 87.6667 628.667 131 662 c 0
 175 694.667 227 711 287 711 c 0
 325 711 370.667 703.333 424 688 c 0
 473.333 672 505.333 664 520 664 c 0
 544.667 664 570 670.667 596 684 c 1
 623 596 l 1
 587 580.667 554.667 573 526 573 c 0
 502.667 573 463.333 581.333 408 598 c 0
 349.333 614.667 304.667 623 274 623 c 0
 242.667 623 217 615.333 197 600 c 0
 181 588 168.667 575 160 561 c 1
EndSplineSet
EndChar
StartChar: uni0E19
Encoding: 155 3609
OldEncoding: 3609
Width: 808
Flags: W
Fore
537 696 m 1
 655 696 l 1
 655 317 l 1
 698.333 309 731.333 288.667 754 256 c 0
 779.333 218 790.667 178.333 788 137 c 1
 788 91.6667 774.667 55.6667 748 29 c 0
 721.333 0.333333 688.333 -14 649 -14 c 0
 619 -14 593 -5.33333 571 12 c 0
 548.333 31.3333 537 60 537 98 c 2
 537 229 l 1
 485 213.667 435.667 181.667 389 133 c 0
 341.667 85.6667 313 41.3333 303 0 c 1
 188 0 l 1
 188 440 l 1
 180 440 l 1
 170 438 l 1
 128 438 94.6667 452.333 70 481 c 0
 45.3333 507.667 33 539 33 575 c 0
 33 613 45.3333 645.333 70 672 c 0
 95.3333 699.333 128.667 713 170 713 c 0
 208 713 240 702 266 680 c 1
 293.333 654.667 307 624.667 307 590 c 2
 307 178 l 1
 334.333 214 368.667 243.333 410 266 c 0
 453.333 290.667 495.667 307.667 537 317 c 1
 537 696 l 1
172 520 m 0
 189.333 520 203 525.667 213 537 c 0
 221 547 225 559.667 225 575 c 0
 225 591 221 604 213 614 c 0
 203.667 624 190 629 172 629 c 0
 156 629 143 623.333 133 612 c 0
 123.667 602.667 119 590.333 119 575 c 0
 119 559 123.667 546.333 133 537 c 0
 143 525.667 156 520 172 520 c 0
707 147 m 0
 707 169 702 187.667 692 203 c 0
 682.667 216.333 670.333 225 655 229 c 1
 655 100 l 1
 657 82.6667 662.667 74 672 74 c 1
 678 76 684 80 690 86 c 1
 702 117 l 1
 705.333 128.333 707 138.333 707 147 c 0
EndSplineSet
EndChar
StartChar: uni0E1A
Encoding: 156 3610
OldEncoding: 3610
Width: 776
Flags: W
Fore
176 106 m 1
 176 436 l 1
 170.667 434.667 155.667 434 131 434 c 1
 97 438 69 453.667 47 481 c 0
 26.3333 509 16 539.667 16 573 c 0
 16 597.667 21 620.333 31 641 c 0
 41.6667 663 57.3333 679.333 78 690 c 0
 99.3333 702.667 124.667 709 154 709 c 0
 197.333 709 232 695.333 258 668 c 0
 282.667 641.333 295 607.667 295 567 c 2
 295 106 l 1
 494 106 l 2
 520.667 106 538.333 110.333 547 119 c 0
 553.667 125.667 557 141.333 557 166 c 2
 557 696 l 1
 678 696 l 1
 678 135 l 2
 678 82.3333 663.667 47 635 29 c 0
 603.667 9.66667 556.667 -8.67362e-19 494 0 c 2
 86 0 l 1
 86 106 l 1
 176 106 l 1
154 516 m 0
 168 516 181 521.333 193 532 c 0
 202.333 542 207 555 207 571 c 0
 207 587.667 202.333 600.667 193 610 c 0
 183 620 170 625 154 625 c 0
 139.333 625 126.333 619.333 115 608 c 0
 105 598.667 100 586.333 100 571 c 0
 100 555 105 542 115 532 c 0
 125.667 521.333 138.667 516 154 516 c 0
EndSplineSet
EndChar
StartChar: uni0E1B
Encoding: 157 3611
OldEncoding: 3611
Width: 776
Flags: W
Fore
176 106 m 1
 176 436 l 1
 170.667 434.667 155.667 434 131 434 c 1
 97 438 69 453.667 47 481 c 0
 26.3333 509 16 539.667 16 573 c 0
 16 597.667 21 620.333 31 641 c 0
 41.6667 663 57.3333 679.333 78 690 c 0
 99.3333 702.667 124.667 709 154 709 c 0
 197.333 709 232 695.333 258 668 c 0
 282.667 641.333 295 607.667 295 567 c 2
 295 106 l 1
 494 106 l 2
 520.667 106 538.333 110.333 547 119 c 0
 553.667 125.667 557 141.333 557 166 c 2
 557 969 l 1
 678 969 l 1
 678 135 l 2
 678 82.3333 663.667 47 635 29 c 0
 603.667 9.66667 556.667 -8.67362e-19 494 0 c 2
 86 0 l 1
 86 106 l 1
 176 106 l 1
154 516 m 0
 168 516 181 521.333 193 532 c 0
 202.333 542 207 555 207 571 c 0
 207 587.667 202.333 600.667 193 610 c 0
 183 620 170 625 154 625 c 0
 139.333 625 126.333 619.333 115 608 c 0
 105 598.667 100 586.333 100 571 c 0
 100 555 105 542 115 532 c 0
 125.667 521.333 138.667 516 154 516 c 0
EndSplineSet
EndChar
StartChar: uni0E1C
Encoding: 158 3612
OldEncoding: 3612
Width: 765
Flags: W
Fore
211 0 m 1
 98 0 l 1
 98 567 l 2
 98 606.333 110.333 640 135 668 c 0
 161 695.333 196 709 240 709 c 0
 270 709 295.667 702.667 317 690 c 0
 337.667 676.667 352.667 660.333 362 641 c 0
 372 620.333 377 597.667 377 573 c 0
 377 538.333 366.667 507.667 346 481 c 0
 324.667 453.667 296.667 438 262 434 c 1
 217 436 l 1
 217 236 l 1
 383 406 l 1
 549 236 l 1
 549 696 l 1
 668 696 l 1
 668 0 l 1
 551 0 l 1
 551 54.6667 537.333 97.6667 510 129 c 2
 381 274 l 1
 250 129 l 2
 224 101 211 58 211 0 c 1
240 625 m 0
 225.333 625 212.333 619.333 201 608 c 0
 191 598.667 186 586.333 186 571 c 0
 186 555 191 542 201 532 c 0
 211.667 521.333 224.667 516 240 516 c 0
 254 516 267 521.333 279 532 c 0
 288.333 542 293 555 293 571 c 0
 293 587.667 288.333 600.667 279 610 c 0
 269 620 256 625 240 625 c 0
EndSplineSet
EndChar
StartChar: uni0E1D
Encoding: 159 3613
OldEncoding: 3613
Width: 765
Flags: W
Fore
211 0 m 1
 98 0 l 1
 98 567 l 2
 98 606.333 110.333 640 135 668 c 0
 161 695.333 196 709 240 709 c 0
 270 709 295.667 702.667 317 690 c 0
 337.667 676.667 352.667 660.333 362 641 c 0
 372 620.333 377 597.667 377 573 c 0
 377 538.333 366.667 507.667 346 481 c 0
 324.667 453.667 296.667 438 262 434 c 1
 217 436 l 1
 217 236 l 1
 383 406 l 1
 549 236 l 1
 549 969 l 1
 668 969 l 1
 668 0 l 1
 551 0 l 1
 551 54.6667 537.333 97.6667 510 129 c 2
 381 274 l 1
 250 129 l 2
 224 101 211 58 211 0 c 1
240 625 m 0
 225.333 625 212.333 619.333 201 608 c 0
 191 598.667 186 586.333 186 571 c 0
 186 555 191 542 201 532 c 0
 211.667 521.333 224.667 516 240 516 c 0
 254 516 267 521.333 279 532 c 0
 288.333 542 293 555 293 571 c 0
 293 587.667 288.333 600.667 279 610 c 0
 269 620 256 625 240 625 c 0
EndSplineSet
EndChar
StartChar: uni0E1E
Encoding: 160 3614
OldEncoding: 3614
Width: 870
Flags: W
Fore
291 319 m 1
 471 680 l 1
 653 319 l 1
 653 696 l 1
 772 696 l 1
 772 0 l 1
 653 0 l 1
 649 45 l 1
 647 63.6667 643 80 637 94 c 1
 471 444 l 1
 303 94 l 1
 297 80 293 63.6667 291 45 c 1
 287 0 l 1
 170 0 l 1
 170 436 l 1
 166 434.667 151.667 434 127 434 c 1
 92.3333 438 64.3333 453.667 43 481 c 0
 22.3333 509 12 539.667 12 573 c 0
 12 597.667 17 620.333 27 641 c 0
 36.3333 661 52 677.333 74 690 c 0
 95.3333 702.667 120.667 709 150 709 c 0
 193.333 709 228 695.333 254 668 c 0
 278.667 641.333 291 607.667 291 567 c 2
 291 319 l 1
150 516 m 0
 164.667 516 177.333 521.333 188 532 c 0
 198 542 203 555 203 571 c 0
 203 587.667 198 600.667 188 610 c 0
 178.667 620 166 625 150 625 c 0
 135.333 625 122.333 619.333 111 608 c 0
 101 598.667 96 586.333 96 571 c 0
 96 555 101 542 111 532 c 0
 121.667 521.333 134.667 516 150 516 c 0
EndSplineSet
EndChar
StartChar: uni0E1F
Encoding: 161 3615
OldEncoding: 3615
Width: 870
Flags: W
Fore
291 319 m 1
 471 680 l 1
 653 319 l 1
 653 969 l 1
 772 969 l 1
 772 0 l 1
 653 0 l 1
 649 45 l 1
 647 63.6667 643 80 637 94 c 1
 471 444 l 1
 303 94 l 1
 297 80 293 63.6667 291 45 c 1
 287 0 l 1
 170 0 l 1
 170 436 l 1
 166 434.667 151.667 434 127 434 c 1
 92.3333 438 64.3333 453.667 43 481 c 0
 22.3333 509 12 539.667 12 573 c 0
 12 597.667 17 620.333 27 641 c 0
 36.3333 661 52 677.333 74 690 c 0
 95.3333 702.667 120.667 709 150 709 c 0
 193.333 709 228 695.333 254 668 c 0
 278.667 641.333 291 607.667 291 567 c 2
 291 319 l 1
150 516 m 0
 164.667 516 177.333 521.333 188 532 c 0
 198 542 203 555 203 571 c 0
 203 587.667 198 600.667 188 610 c 0
 178.667 620 166 625 150 625 c 0
 135.333 625 122.333 619.333 111 608 c 0
 101 598.667 96 586.333 96 571 c 0
 96 555 101 542 111 532 c 0
 121.667 521.333 134.667 516 150 516 c 0
EndSplineSet
EndChar
StartChar: uni0E20
Encoding: 162 3616
OldEncoding: 3616
Width: 819
Flags: W
Fore
164 260 m 2
 174 260 l 1
 178 258 l 1
 178 338 l 2
 178 376.667 183.667 407.333 195 430 c 1
 205.667 456.667 221.333 476.333 242 489 c 1
 228.667 495 212.333 500.667 193 506 c 0
 163.667 514 137.667 518.667 115 520 c 1
 115 559 l 1
 141 590 l 2
 153.667 604 173.667 621 201 641 c 0
 231 661.667 264.333 678.667 301 692 c 0
 339 706 386 713 442 713 c 0
 497.333 713 545.333 704 586 686 c 1
 628.667 670 661.333 644 684 608 c 1
 708.667 573.333 721 531.667 721 483 c 2
 721 0 l 1
 602 0 l 1
 602 473 l 2
 602 523 586.333 560.667 555 586 c 0
 523.667 610.667 482.667 623 432 623 c 0
 404 623 374.667 618 344 608 c 0
 314 600 286 587 260 569 c 1
 318 555 l 1
 319 555 l 2
 342.333 549.667 368.333 536.667 397 516 c 1
 397 459 l 1
 375.667 459 354.667 452 334 438 c 0
 310.667 424 299 393.333 299 346 c 2
 299 125 l 2
 299 84.3333 287.333 51.6667 264 27 c 1
 243.333 1.66667 210 -12 164 -14 c 1
 118 -12 84.3333 1.66667 63 27 c 1
 39 53 27 84.3333 27 121 c 0
 27 160.333 39 193 63 219 c 0
 86.3333 246.333 120 260 164 260 c 2
164 63 m 0
 183.333 63 198.333 69.3333 209 82 c 0
 218.333 91.3333 223 105 223 123 c 0
 223 162.333 203.333 182 164 182 c 0
 146 182 131.667 176.667 121 166 c 0
 109.667 152.667 104 138.333 104 123 c 0
 104 109 109.667 95.3333 121 82 c 0
 131.667 69.3333 146 63 164 63 c 0
EndSplineSet
EndChar
StartChar: uni0E21
Encoding: 163 3617
OldEncoding: 3617
Width: 788
Flags: W
Fore
571 696 m 1
 690 696 l 1
 690 0 l 1
 575 0 l 1
 569 24.6667 554.667 53.3333 532 86 c 0
 512.667 114.667 482.667 144 442 174 c 0
 406.667 200.667 367.333 217 324 223 c 1
 324 106 l 2
 324 66 313 36.6667 291 18 c 0
 266.333 -3.33333 240.333 -14 213 -14 c 0
 167 -16 128.667 -1.66667 98 29 c 0
 69.3333 57.6667 55 93.6667 55 137 c 0
 53 183.667 66.6667 226.667 96 266 c 1
 124.667 300 161 318.667 205 322 c 1
 205 436 l 1
 199 436 l 1
 188 434 l 1
 147.333 434 114 447.667 88 475 c 0
 63.3333 501.667 51 533.667 51 571 c 0
 51 609.667 62.6667 642.667 86 670 c 1
 111.333 696 145.333 709 188 709 c 0
 224 709 256.333 697.333 285 674 c 0
 311 651.333 324 622 324 586 c 2
 324 319 l 1
 399.333 308.333 456 288.667 494 260 c 0
 534.667 229.333 560.333 205.333 571 188 c 1
 571 696 l 1
188 516 m 0
 203.333 516 216.333 521.333 227 532 c 0
 237 542 242 555 242 571 c 0
 242 587.667 237 600.667 227 610 c 0
 217.667 620 204.667 625 188 625 c 0
 174 625 161.333 619.333 150 608 c 0
 140 598.667 135 586.333 135 571 c 0
 135 555 140 542 150 532 c 0
 160.667 521.333 173.333 516 188 516 c 0
205 229 m 1
 186.333 227 172 219 162 205 c 0
 150.667 188.333 145 169 145 147 c 0
 145 101.667 159.333 78 188 76 c 0
 199.333 76 205 84 205 100 c 2
 205 229 l 1
EndSplineSet
EndChar
StartChar: uni0E22
Encoding: 164 3618
OldEncoding: 3618
Width: 731
Flags: W
Fore
197 334 m 1
 164.333 344 137.667 365.667 117 399 c 1
 95 430.333 84 466.667 84 508 c 0
 84 538.667 88.6667 564.667 98 586 c 0
 112.667 626 135.333 657.333 166 680 c 1
 198 700.667 233.333 711 272 711 c 0
 312 711 343.667 698.667 367 674 c 0
 391 647.333 403 616 403 580 c 0
 403 544.667 391.667 513 369 485 c 1
 345.667 459 313.333 446 272 446 c 0
 255.333 446 235.667 451 213 461 c 1
 195 465 186 469 186 473 c 1
 188 473 l 1
 188 445.667 206.667 422.333 244 403 c 0
 278 386.333 314.667 377 354 375 c 1
 354 287 l 1
 304 287 268.667 276.667 248 256 c 1
 227.333 238 217 209.333 217 170 c 2
 217 106 l 1
 449 106 l 2
 475.667 106 493.333 110.333 502 119 c 0
 508.667 125.667 512 141.333 512 166 c 2
 512 696 l 1
 633 696 l 1
 633 133 l 2
 633 77 623.333 41 604 25 c 0
 584.667 8.33333 544.333 8.67362e-19 483 0 c 2
 98 0 l 1
 98 170 l 2
 98 210.667 105.667 243.333 121 268 c 0
 133.667 290.667 148 307.667 164 319 c 0
 174.667 325.667 185.667 330.667 197 334 c 1
274 528 m 0
 291.333 528 303.667 533 311 543 c 0
 319.667 553.667 324 565.333 324 578 c 0
 324 590 319.667 601.333 311 612 c 0
 303.667 622 291.333 627 274 627 c 0
 257.333 627 245.333 622 238 612 c 1
 228 602.667 223 591.333 223 578 c 0
 223 565.333 228 554.333 238 545 c 1
 247.333 533.667 259.333 528 274 528 c 0
EndSplineSet
EndChar
StartChar: uni0E23
Encoding: 165 3619
OldEncoding: 3619
Width: 636
Flags: W
Fore
541 344 m 2
 541 133 l 2
 541 93.6667 527.333 60.3333 500 33 c 0
 470.667 5.66667 435.667 -8 395 -8 c 0
 350.333 -8 317 5.66667 295 33 c 1
 270.333 58.3333 258 90.3333 258 129 c 0
 258 167.667 270.333 199.667 295 225 c 0
 319 251.667 352.333 266 395 268 c 1
 420 266 l 1
 420 344 l 2
 420 366.667 418 385 414 399 c 0
 410 413.667 398.333 428.667 379 444 c 0
 368.333 454 345 463 309 471 c 0
 273.667 477 228.667 483 174 489 c 0
 124.667 493.667 74.3333 496 23 496 c 1
 23 559 l 1
 45.6667 603 77.6667 640 119 670 c 0
 161.667 701.333 213.333 717 274 717 c 0
 316.667 717 364 709.333 416 694 c 0
 466.667 678 500.667 670 518 670 c 0
 544 670 570 676.667 596 690 c 1
 623 602 l 1
 586.333 587.333 552 580 520 580 c 0
 491.333 580 449 588 393 604 c 0
 339 620.667 295.333 629 262 629 c 0
 228.667 629 204 622 188 608 c 0
 171.333 593.333 160.667 581.667 156 573 c 1
 313.333 573 423 548 485 498 c 0
 522.333 466.667 541 415.333 541 344 c 2
397 76 m 0
 413.667 76 426.667 80.6667 436 90 c 0
 446 100 451 113 451 129 c 0
 451 144.333 446.667 157.333 438 168 c 0
 428.667 177.333 415 182 397 182 c 0
 381.667 182 368 176.667 356 166 c 0
 346.667 156.667 342 144.333 342 129 c 0
 342 113.667 346.667 101.333 356 92 c 0
 368 81.3333 381.667 76 397 76 c 0
EndSplineSet
EndChar
StartChar: uni0E24
Encoding: 166 3620
OldEncoding: 3620
Width: 755
Flags: W
Fore
236 262 m 1
 252 262 l 2
 296 262 330 248.333 354 221 c 0
 378.667 193.667 391 161.667 391 125 c 0
 391 86.3333 378.667 54.3333 354 29 c 1
 330 1.66667 296 -12 252 -12 c 0
 210.667 -12 178 1.66667 154 29 c 1
 128 54.3333 115 86.3333 115 125 c 2
 115 338 l 2
 115 378.667 119.667 409.333 129 430 c 0
 139 453.333 156 473 180 489 c 1
 168 495 151.667 500.667 131 506 c 0
 103 514 77 518.667 53 520 c 1
 53 559 l 1
 78 590 l 2
 87.3333 600.667 107 617.667 137 641 c 1
 169.667 662.333 204 679.333 240 692 c 0
 276.667 706 323 713 379 713 c 0
 434.333 713 482 704.667 522 688 c 0
 564 669.333 597 643.333 621 610 c 0
 645 575.333 657 533 657 483 c 2
 657 -362 l 1
 539 -362 l 1
 539 473 l 2
 539 522.333 523.333 560 492 586 c 0
 460.667 610.667 419.667 623 369 623 c 0
 311 623 253.667 605 197 569 c 1
 223 563 l 2
 228.333 562.333 245.333 557.667 274 549 c 0
 295.333 541 315.333 530 334 516 c 1
 334 459 l 1
 311.333 459 289.333 452 268 438 c 0
 246.667 424.667 236 394 236 346 c 2
 236 262 l 1
252 66 m 0
 272 66 287 72 297 84 c 0
 306.333 93.3333 311 107 311 125 c 0
 311 164.333 291.333 184 252 184 c 0
 233.333 184 219.667 178.667 211 168 c 0
 200.333 155.333 195 141 195 125 c 0
 195 110.333 200.333 96.6667 211 84 c 0
 221 72 234.667 66 252 66 c 0
EndSplineSet
EndChar
StartChar: uni0E25
Encoding: 167 3621
OldEncoding: 3621
Width: 724
Flags: W
Fore
248 -14 m 0
 207.333 -14 173.667 -1.66667 147 23 c 0
 119 49 104 78.3333 102 111 c 0
 99.3333 142.333 98 202.333 98 291 c 1
 104 351.667 122 400.667 152 438 c 1
 180.667 478 220 498 270 498 c 0
 320.667 500 364.333 487 401 459 c 0
 435 432.333 461 402.333 479 369 c 1
 508 309 l 1
 508 477 l 2
 508 524.333 493 560 463 584 c 0
 431 608.667 388 621 334 621 c 0
 288.667 621 248.333 610 213 588 c 0
 181.667 567.333 154.333 542 131 512 c 1
 63 571 l 1
 84.3333 605.667 119.333 638 168 668 c 0
 217.333 696.667 272.667 711 334 711 c 0
 418 711 488.333 690.333 545 649 c 0
 601 607 629 550.333 629 479 c 2
 629 0 l 1
 508 0 l 1
 503.333 24 489.667 76.6667 467 158 c 1
 443.667 227.333 417 285.333 387 332 c 0
 353 384.667 316 410 276 408 c 0
 224.667 406 199 354.667 199 254 c 1
 219 258 l 1
 248 260 l 1
 293.333 258 326.667 245.667 348 223 c 0
 372.667 197 385 165 385 127 c 0
 387 87.6667 374.667 54.3333 348 27 c 1
 327.333 1.66667 294 -12 248 -14 c 0
248 68 m 0
 264.667 68 278.333 73.3333 289 84 c 1
 297 94 301 107 301 123 c 0
 301 139 297 152 289 162 c 0
 279.667 171.333 266 176 248 176 c 0
 230.667 176 217.667 170.667 209 160 c 0
 199.667 150.667 195 138.333 195 123 c 0
 195 107.667 199.667 95.3333 209 86 c 0
 219 74 232 68 248 68 c 0
EndSplineSet
EndChar
StartChar: uni0E26
Encoding: 168 3622
OldEncoding: 3622
Width: 819
Flags: W
Fore
164 260 m 2
 174 260 l 1
 178 258 l 1
 178 338 l 2
 178 376.667 183.667 407.333 195 430 c 1
 205.667 456.667 221.333 476.333 242 489 c 1
 228.667 495 212.333 500.667 193 506 c 0
 163.667 514 137.667 518.667 115 520 c 1
 115 559 l 1
 141 590 l 2
 153.667 604 173.667 621 201 641 c 0
 231 661.667 264.333 678.667 301 692 c 0
 339 706 386 713 442 713 c 0
 497.333 713 545.333 704 586 686 c 1
 628.667 670 661.333 644 684 608 c 1
 708.667 573.333 721 531.667 721 483 c 2
 721 -362 l 1
 602 -362 l 1
 602 473 l 2
 602 523 586.333 560.667 555 586 c 0
 523.667 610.667 482.667 623 432 623 c 0
 404 623 374.667 618 344 608 c 0
 314 600 286 587 260 569 c 1
 318 555 l 1
 319 555 l 2
 342.333 549.667 368.333 536.667 397 516 c 1
 397 459 l 1
 375.667 459 354.667 452 334 438 c 0
 310.667 424 299 393.333 299 346 c 2
 299 125 l 2
 299 84.3333 287.333 51.6667 264 27 c 1
 243.333 1.66667 210 -12 164 -14 c 1
 118 -12 84.3333 1.66667 63 27 c 1
 39 53 27 84.3333 27 121 c 0
 27 160.333 39 193 63 219 c 0
 86.3333 246.333 120 260 164 260 c 2
164 63 m 0
 183.333 63 198.333 69.3333 209 82 c 0
 218.333 91.3333 223 105 223 123 c 0
 223 162.333 203.333 182 164 182 c 0
 146 182 131.667 176.667 121 166 c 0
 109.667 152.667 104 138.333 104 123 c 0
 104 109 109.667 95.3333 121 82 c 0
 131.667 69.3333 146 63 164 63 c 0
EndSplineSet
EndChar
StartChar: uni0E27
Encoding: 169 3623
OldEncoding: 3623
Width: 655
Flags: W
Fore
418 260 m 1
 438 258 l 1
 438 473 l 2
 438 524.333 423 560 393 580 c 0
 361 602.667 322 614 276 614 c 0
 198.667 616 132 576.667 76 496 c 1
 -6 559 l 1
 20 601.667 56.6667 638.667 104 670 c 1
 153.333 698.667 211.667 713 279 713 c 0
 367.667 713 436.333 691.667 485 649 c 0
 533 605 557 547 557 475 c 2
 557 127 l 2
 557 85.6667 544 52.3333 518 27 c 0
 492 -0.333333 458.667 -14 418 -14 c 0
 374.667 -14 340.333 -0.333333 315 27 c 0
 288.333 56.3333 276.333 90.3333 279 129 c 1
 279 163 292.333 194.333 319 223 c 0
 343.667 247.667 376.667 260 418 260 c 1
418 68 m 0
 434.667 68 448.333 73.3333 459 84 c 1
 467 94 471 107 471 123 c 0
 471 139 467 152 459 162 c 0
 449.667 171.333 436 176 418 176 c 0
 400.667 176 387.667 170.667 379 160 c 0
 369.667 150.667 365 138.333 365 123 c 0
 365 107.667 369.667 95.3333 379 86 c 0
 389 74 402 68 418 68 c 0
EndSplineSet
EndChar
StartChar: uni0E28
Encoding: 170 3624
OldEncoding: 3624
Width: 749
Flags: W
Fore
571 647 m 1
 573 647 580 657.333 592 678 c 0
 604.667 703.333 613.333 726.667 618 748 c 1
 721 700 l 1
 715 672 702.667 644 684 616 c 0
 664 585.333 648.333 565 637 555 c 1
 645 528 l 1
 649 516 651 497.667 651 473 c 2
 651 0 l 1
 532 0 l 1
 532 444 l 1
 532 477 l 1
 514.667 465 493.667 455.667 469 449 c 1
 473 432 l 2
 475.667 421.333 477 411 477 401 c 0
 475 362.333 462.667 329.667 440 303 c 0
 419.333 277.667 386 264 340 262 c 1
 307 266 l 1
 291 270 283 272.667 283 274 c 2
 283 0 l 1
 162 0 l 1
 162 121 l 2
 162 154.333 157 182.333 147 205 c 0
 135.667 232.333 121.333 261 104 291 c 0
 86 323.667 71.6667 352.333 61 377 c 0
 51.6667 399.667 47 429 47 465 c 0
 49 519 64.6667 565.333 94 604 c 0
 122 642.667 159 670.667 205 688 c 1
 249 706.667 296.667 717 348 719 c 0
 380.667 719 409.333 716.333 434 711 c 0
 456.667 706.333 483.333 696.667 514 682 c 0
 535.333 672.667 554.333 661 571 647 c 1
420 516 m 1
 434.667 516 449.667 522.333 465 535 c 2
 500 561 l 1
 482.667 583 460 598.667 432 608 c 0
 401.333 618 369.333 623 336 623 c 0
 287.333 621 245 605 209 575 c 1
 169.667 545 150 507 150 461 c 0
 150 437.667 155.333 411.667 166 383 c 0
 174 358.333 178.667 346 180 346 c 1
 180 348 l 2
 180 381.333 190.333 421 211 467 c 1
 229 514.333 272 539 340 541 c 0
 366.667 541 385 538 395 532 c 0
 406.333 526.667 414.667 521.333 420 516 c 1
340 346 m 0
 356.667 346 370.333 351.333 381 362 c 1
 389 372.667 393 385.667 393 401 c 0
 393 417 389 430 381 440 c 0
 371.667 450 358 455 340 455 c 0
 324 455 311 449.333 301 438 c 0
 291.667 428.667 287 416.333 287 401 c 0
 287 385 291.667 372 301 362 c 0
 311.667 351.333 324.667 346 340 346 c 0
EndSplineSet
EndChar
StartChar: uni0E29
Encoding: 171 3625
OldEncoding: 3625
Width: 792
Flags: W
Fore
850 504 m 1
 850 463.333 843.667 429 831 401 c 0
 819 370.333 804 346.667 786 330 c 1
 770.667 312 753 297.667 733 287 c 2
 694 264 l 1
 694 135 l 2
 694 82.3333 679.667 47 651 29 c 0
 622.333 9.66667 575.333 -8.67362e-19 510 0 c 2
 102 0 l 1
 102 106 l 1
 193 106 l 1
 193 436 l 1
 150 434 l 1
 115.333 438 87.3333 453.667 66 481 c 0
 44 507 33 537.667 33 573 c 0
 33 611 45.3333 643.333 70 670 c 1
 92 696 125.333 709 170 709 c 0
 217.333 709 252 696 274 670 c 1
 298.667 643.333 311 609 311 567 c 2
 311 106 l 1
 514 106 l 2
 541.333 106 558.333 110.333 565 119 c 0
 571.667 125.667 575 141.333 575 166 c 2
 575 238 l 1
 500.333 238 445.333 247.333 410 266 c 1
 381.333 286 362.667 301.667 354 313 c 0
 344 328.333 338 352.333 336 385 c 0
 336 412.333 344.667 437 362 459 c 0
 382 482.333 410 494 446 494 c 0
 477.333 494 502.667 484.333 522 465 c 0
 542.667 442.333 553 417.667 553 391 c 0
 555 359.667 546.667 333.667 528 313 c 1
 555.333 313 571 313.667 575 315 c 1
 575 696 l 1
 694 696 l 1
 694 358 l 1
 730 377.333 748 426 748 504 c 1
 850 504 l 1
446 350 m 0
 460.667 350 471 354 477 362 c 0
 483.667 372 487 381.667 487 391 c 0
 487 402.333 483 412 475 420 c 0
 468.333 426.667 458.667 430 446 430 c 0
 433.333 430 424 426 418 418 c 1
 410 410 406 401 406 391 c 0
 406 382.333 410 372.667 418 362 c 0
 424 354 433.333 350 446 350 c 0
170 516 m 0
 186.667 516 200.333 521.333 211 532 c 1
 219 542.667 223 555.667 223 571 c 0
 223 587 219 600 211 610 c 0
 201.667 620 188 625 170 625 c 0
 155.333 625 142.333 619.333 131 608 c 0
 121.667 598.667 117 586.333 117 571 c 0
 117 555 121.667 542 131 532 c 0
 141.667 521.333 154.667 516 170 516 c 0
EndSplineSet
EndChar
StartChar: uni0E2A
Encoding: 172 3626
OldEncoding: 3626
Width: 724
Flags: W
Fore
248 68 m 0
 264.667 68 278.333 73.3333 289 84 c 1
 297 94 301 107 301 123 c 0
 301 139 297 152 289 162 c 0
 279.667 171.333 266 176 248 176 c 0
 230.667 176 217.667 170.667 209 160 c 0
 199.667 150.667 195 138.333 195 123 c 0
 195 107.667 199.667 95.3333 209 86 c 0
 219 74 232 68 248 68 c 0
459 575 m 1
 430.333 605.667 388.667 621 334 621 c 0
 288.667 621 248.333 610 213 588 c 0
 181.667 567.333 154.333 542 131 512 c 1
 63 571 l 1
 84.3333 605.667 119.333 638 168 668 c 0
 217.333 696.667 272.667 711 334 711 c 0
 398 711 455.333 698 506 672 c 1
 509.333 672 521.667 691.667 543 731 c 1
 561.667 771 573.333 791 578 791 c 1
 623 766 l 2
 649.667 750.667 665.333 739.667 670 733 c 1
 625 668 l 1
 601.667 632.667 590 612.667 590 608 c 1
 602.667 595.333 613 577.667 621 555 c 0
 626.333 539 629 513.667 629 479 c 2
 629 0 l 1
 508 0 l 1
 503.333 24 489.667 76.6667 467 158 c 1
 443.667 227.333 417 285.333 387 332 c 0
 353 384.667 316 410 276 408 c 0
 224.667 406 199 354.667 199 254 c 1
 219 258 l 1
 248 260 l 1
 293.333 258 326.667 245.667 348 223 c 0
 372.667 197 385 165 385 127 c 0
 387 87.6667 374.667 54.3333 348 27 c 1
 327.333 1.66667 294 -12 248 -14 c 0
 207.333 -14 173.667 -1.66667 147 23 c 0
 119 49 104 78.3333 102 111 c 0
 99.3333 142.333 98 202.333 98 291 c 1
 104 351.667 122 400.667 152 438 c 1
 180.667 478 220 498 270 498 c 1
 319.333 500 361.667 490.333 397 469 c 1
 399.667 469 410 486.667 428 522 c 0
 446 557.333 456.333 575 459 575 c 1
504 506 m 1
 499.333 491.333 491 475 479 457 c 0
 465.667 437 459 425.333 459 422 c 1
 471 406 481 387 489 365 c 1
 508 309 l 1
 506 408 l 1
 504 506 l 1
EndSplineSet
EndChar
StartChar: uni0E2B
Encoding: 173 3627
OldEncoding: 3627
Width: 790
Flags: W
Fore
285 319 m 1
 311 361.667 341.667 396.667 377 424 c 0
 409.667 449.333 435.667 467 455 477 c 1
 431.667 504.333 420 536.333 420 573 c 0
 420 613.667 432.333 647.333 457 674 c 0
 481.667 698.667 517.667 711 565 711 c 0
 607 711 639.333 698 662 672 c 0
 684.667 644 696 611 696 573 c 0
 696 522.333 678.333 485 643 461 c 1
 650.333 459 660.667 448 674 428 c 0
 686 410 692 377.333 692 330 c 2
 692 0 l 1
 571 0 l 1
 571 330 l 2
 571 364.667 567 387 559 397 c 0
 551 408.333 544.333 414 539 414 c 1
 461.667 373.333 399.333 315.333 352 240 c 0
 306 165.333 283 94.3333 283 27 c 2
 283 0 l 1
 166 0 l 1
 166 436 l 1
 162 434.667 147.667 434 123 434 c 1
 88.3333 438 60.3333 453.667 39 481 c 0
 17 507 6 537.667 6 573 c 0
 6 611 18.3333 643.333 43 670 c 0
 66.3333 696 99.6667 709 143 709 c 0
 189 709 224.667 696 250 670 c 1
 273.333 641.333 285 607 285 567 c 2
 285 319 l 1
559 518 m 0
 577 518 590 523.667 598 535 c 1
 607.333 544.333 612 557 612 573 c 0
 612 589.667 607.333 602.667 598 612 c 1
 590.667 622 577.667 627 559 627 c 0
 543 627 530 621.333 520 610 c 0
 510.667 600.667 506 588.333 506 573 c 0
 506 557 510.667 544.333 520 535 c 0
 530 523.667 543 518 559 518 c 0
143 516 m 0
 160.333 516 173.333 521.333 182 532 c 0
 192 542 197 555 197 571 c 0
 197 587.667 192 600.667 182 610 c 1
 174.667 620 161.667 625 143 625 c 0
 129.667 625 116.667 619.333 104 608 c 0
 94.6667 598.667 90 586.333 90 571 c 0
 90 555 94.6667 542 104 532 c 0
 116 521.333 129 516 143 516 c 0
EndSplineSet
EndChar
StartChar: uni0E2C
Encoding: 174 3628
OldEncoding: 3628
Width: 874
Flags: W
Fore
776 582 m 1
 776 0 l 1
 657 0 l 1
 653 45 l 1
 650.333 68.3333 646.333 84.6667 641 94 c 2
 475 406 l 1
 309 94 l 1
 303 84 299 67.6667 297 45 c 1
 293 25 291 10 291 0 c 1
 176 0 l 1
 176 436 l 1
 170.667 434.667 155.667 434 131 434 c 1
 97 438 69 453.667 47 481 c 0
 26.3333 509 16 539.667 16 573 c 0
 16 597.667 21 620.333 31 641 c 0
 41.6667 663 57.3333 679.333 78 690 c 0
 99.3333 702.667 124.667 709 154 709 c 0
 197.333 709 232 695.333 258 668 c 0
 282.667 641.333 295 607.667 295 567 c 2
 295 303 l 1
 475 612 l 1
 657 303 l 1
 657 555 l 1
 619 555 587.667 567.333 563 592 c 1
 539 614 526 644 524 682 c 0
 524 718 535.667 748.667 559 774 c 0
 581.667 798.667 613 811 653 811 c 0
 701.667 811 735.333 796.667 754 768 c 1
 769.333 740 778 716.667 780 698 c 1
 798.667 712.667 813 741.333 823 784 c 1
 913 743 l 1
 906.333 711 895 685.333 879 666 c 0
 857 639.333 837.667 620 821 608 c 0
 801.667 592.667 786.667 584 776 582 c 1
653 637 m 0
 667.667 637 678.667 641.667 686 651 c 1
 695.333 658.333 700 669.333 700 684 c 0
 700 696 696 707 688 717 c 0
 680 725 668.333 729 653 729 c 0
 639.667 729 629 725 621 717 c 0
 612.333 707.667 608 696.667 608 684 c 0
 608 672.667 612.333 661.667 621 651 c 0
 630.333 641.667 641 637 653 637 c 0
154 516 m 0
 168 516 181 521.333 193 532 c 0
 202.333 542 207 555 207 571 c 0
 207 587.667 202.333 600.667 193 610 c 0
 183 620 170 625 154 625 c 0
 139.333 625 126.333 619.333 115 608 c 0
 105 598.667 100 586.333 100 571 c 0
 100 555 105 542 115 532 c 0
 125.667 521.333 138.667 516 154 516 c 0
EndSplineSet
EndChar
StartChar: uni0E2D
Encoding: 175 3629
OldEncoding: 3629
Width: 735
Flags: W
Fore
217 217 m 1
 217 166 l 2
 217 141.333 220.333 125.667 227 119 c 0
 233.667 110.333 250 106 276 106 c 2
 453 106 l 2
 479.667 106 497.333 110.333 506 119 c 0
 512.667 125.667 516 141.333 516 166 c 2
 516 473 l 2
 516 566.333 455.333 614 334 616 c 0
 295.333 616 258.333 608 223 592 c 1
 185 571.333 155.667 548 135 522 c 1
 59 584 l 1
 83.6667 618 120 648.667 168 676 c 1
 216 700.667 272.667 713 338 713 c 0
 434 713 507.667 692.333 559 651 c 0
 611 609 637 550.333 637 475 c 2
 637 137 l 2
 637 83 626.667 47 606 29 c 0
 585.333 9.66667 545.667 -8.67362e-19 487 0 c 2
 248 0 l 2
 208.667 0 178 3.33333 156 10 c 0
 134.667 15.3333 119.667 27.6667 111 47 c 0
 102.333 65 98 93.6667 98 133 c 2
 98 342 l 2
 98 383.333 111 418 137 446 c 0
 163.667 474.667 198.667 489 242 489 c 0
 274 489 299.667 482.333 319 469 c 1
 339.667 457 355.667 440.667 367 420 c 0
 376.333 400.667 381 378.667 381 354 c 0
 381 317.333 368.667 284.667 344 256 c 0
 318.667 228.667 284.667 215 242 215 c 1
 227 217 l 1
 217 217 l 1
244 299 m 0
 259.333 299 273 304.333 285 315 c 1
 293 326.333 297 338.667 297 352 c 0
 297 368 293 381 285 391 c 1
 273.667 401 260 406 244 406 c 0
 229.333 406 216.333 400.333 205 389 c 0
 195 379 190 366.667 190 352 c 0
 190 338.667 195 326.333 205 315 c 0
 215.667 304.333 228.667 299 244 299 c 0
EndSplineSet
EndChar
StartChar: uni0E2E
Encoding: 176 3630
OldEncoding: 3630
Width: 735
Flags: W
Fore
727 659 m 1
 696.333 617.667 666.333 585 637 561 c 1
 637 137 l 2
 637 83 626.667 47 606 29 c 0
 585.333 9.66667 545.667 -8.67362e-19 487 0 c 2
 248 0 l 2
 208.667 0 178 3.33333 156 10 c 0
 134 16 119 27.6667 111 45 c 0
 102.333 62.3333 98 90.3333 98 129 c 2
 98 287 l 2
 98 329 110.333 364.333 135 393 c 0
 159.667 421.667 195.333 436 242 436 c 0
 279.333 436 309.333 423.667 332 399 c 0
 354.667 372.333 367 341.667 369 307 c 1
 369 271.667 358 240.333 336 213 c 0
 314.667 187.667 283.333 174 242 172 c 1
 229 174 l 2
 222.333 174 218.333 174.667 217 176 c 1
 217 143 l 2
 217 125 219.667 114.333 225 111 c 1
 235 107.667 252 106 276 106 c 2
 455 106 l 2
 482.333 106 499.333 110.333 506 119 c 0
 512.667 125.667 516 141.333 516 166 c 2
 516 502 l 1
 510.667 496.667 492.333 489 461 479 c 0
 432.333 469.667 383.667 465 315 465 c 0
 251.667 465 195.667 474.667 147 494 c 0
 99.6667 512 76 541.333 76 582 c 0
 76 610.667 89 635.667 115 657 c 1
 137.667 679 168.333 695.667 207 707 c 0
 244.333 717.667 280.333 723 315 723 c 0
 385.667 723 443 713.333 487 694 c 0
 525 678 553 662.333 571 647 c 1
 585 659.667 609 687.667 643 731 c 1
 727 659 l 1
238 258 m 0
 253.333 258 264.667 262.667 272 272 c 0
 280.667 282.667 285 293.667 285 305 c 0
 285 317.667 280.667 328.667 272 338 c 0
 264.667 347.333 253.333 352 238 352 c 0
 222.667 352 211 348 203 340 c 0
 194.333 329.333 190 317.667 190 305 c 0
 190 293.667 195 282.667 205 272 c 0
 212.333 262.667 223.333 258 238 258 c 0
317 541 m 0
 363 539 404.667 544.333 442 557 c 0
 473.333 569 489 577.333 489 582 c 1
 482.333 590.667 465.333 602 438 616 c 0
 411.333 631.333 371.667 639 319 639 c 0
 285 639 251.667 634.333 219 625 c 0
 186.333 614.333 170 601.333 170 586 c 0
 170 558 219 543 317 541 c 0
EndSplineSet
EndChar
StartChar: uni0E2F
Encoding: 177 3631
OldEncoding: 3631
Width: 696
Flags: W
Fore
68 537 m 1
 78 651 132.333 709 231 711 c 0
 256.333 711 279.667 704.667 301 692 c 1
 323.667 680.667 340.667 663.667 352 641 c 0
 364.667 618.333 371 595 371 571 c 0
 371 533.667 358.667 501 334 473 c 1
 308 447 273.667 434 231 434 c 1
 213 436 l 1
 199 436 l 1
 209.667 412.667 251.333 401 324 401 c 1
 366 407.667 402.667 439.333 434 496 c 0
 465.333 551.333 481 618 481 696 c 1
 598 696 l 1
 598 217 l 2
 598 145 581.667 91.6667 549 57 c 1
 513 21.6667 450 -7 360 -29 c 1
 336 66 l 1
 380.667 81.3333 413.333 94.6667 434 106 c 0
 454 116.667 466.333 129.667 471 145 c 0
 476.333 160.333 479 187 479 225 c 2
 479 391 l 1
 468.333 365.667 446 344 412 326 c 1
 377.333 305.333 339 295 297 295 c 1
 252 299 l 1
 198 311 153.667 338.333 119 381 c 0
 85 423 68 475 68 537 c 1
233 516 m 0
 248.333 516 261.333 521.333 272 532 c 0
 282 542 287 555 287 571 c 0
 287 587.667 282 600.667 272 610 c 0
 262.667 620 249.667 625 233 625 c 0
 219 625 206.333 619.333 195 608 c 0
 185 598.667 180 586.333 180 571 c 0
 180 555 185 542 195 532 c 0
 205.667 521.333 218.333 516 233 516 c 0
EndSplineSet
EndChar
StartChar: uni0E30
Encoding: 178 3632
OldEncoding: 3632
Width: 550
Flags: W
Fore
172 285 m 0
 212.667 285 245.333 272.667 270 248 c 1
 292.667 223.333 305 192 307 154 c 1
 303 125 l 1
 299 98 l 1
 315 100 335.333 112.333 360 135 c 0
 384.667 157.667 397 204.667 397 276 c 1
 512 276 l 1
 512 191.333 490 124 446 74 c 0
 400.667 24.6667 326.333 1.73472e-18 223 0 c 0
 174.333 0 131.333 13.6667 94 41 c 0
 57.3333 67.6667 39 104.667 39 152 c 0
 39 190.667 50.6667 222.667 74 248 c 0
 96.6667 272.667 129.333 285 172 285 c 0
172 696 m 0
 215.333 696 248 683.667 270 659 c 0
 292.667 635.667 305 603.667 307 563 c 1
 303 535 l 1
 299 508 l 1
 299 508 l 1
 328 518 l 1
 344.667 527.333 361 545.667 377 573 c 0
 390.333 599 397 636.667 397 686 c 1
 512 686 l 1
 512 626 503 577.667 485 541 c 0
 466.333 500.333 435.667 468.667 393 446 c 0
 349 423.333 292.333 412 223 412 c 0
 176.333 412 133.333 425.667 94 453 c 0
 54 479.667 35 515.667 37 561 c 0
 37 598.333 49.3333 631 74 659 c 0
 96 683.667 128.667 696 172 696 c 0
174 100 m 0
 190.667 100 203 105.667 211 117 c 0
 219 127 223 138.667 223 152 c 0
 223 164.667 219 176 211 186 c 0
 203.667 196 191.333 201 174 201 c 0
 156.667 201 144.333 196 137 186 c 1
 127.667 176.667 123 165.333 123 152 c 0
 123 138 127.667 126.333 137 117 c 1
 145 105.667 157.333 100 174 100 c 0
174 510 m 0
 188 510 200.333 515.333 211 526 c 1
 219 536.667 223 548.333 223 561 c 0
 223 575.667 219 588 211 598 c 0
 203.667 607.333 191.333 612 174 612 c 0
 158.667 612 146.333 607.333 137 598 c 0
 127.667 588.667 123 576.333 123 561 c 0
 123 547.667 127.667 536 137 526 c 0
 147.667 515.333 160 510 174 510 c 0
EndSplineSet
EndChar
StartChar: uni0E31
Encoding: 179 3633
OldEncoding: 3633
Width: 0
Flags: W
Fore
-322 1122 m 0
 -282.667 1122 -251 1109 -227 1083 c 1
 -205.667 1057.67 -195 1025.67 -195 987 c 0
 -195 975.667 -197 963.333 -201 950 c 1
 -211 924 l 1
 -199 922 l 1
 -180 920 l 1
 -145.333 920 -108 932.667 -68 958 c 0
 -28 982.667 7.66667 1030 39 1100 c 1
 139 1065 l 1
 125 1015 102 972.667 70 938 c 1
 32 900 -8.33333 872 -51 854 c 0
 -101.667 834.667 -151.667 825 -201 825 c 1
 -246 827 l 1
 -300.667 833.667 -349 851 -391 879 c 1
 -433.667 905 -455 941 -455 987 c 0
 -455 1025.67 -443.333 1057.67 -420 1083 c 0
 -396 1111 -363.333 1124 -322 1122 c 0
-319 940 m 0
 -304.333 940 -292.333 944.667 -283 954 c 0
 -274.333 964.667 -270 976.333 -270 989 c 0
 -270 1003 -274.333 1014.67 -283 1024 c 0
 -292.333 1033.33 -304.333 1038 -319 1038 c 0
 -334.333 1038 -346.667 1033.33 -356 1024 c 0
 -364.667 1014.67 -369 1003 -369 989 c 0
 -369 976.333 -364.667 964.667 -356 954 c 0
 -346.667 944.667 -334.333 940 -319 940 c 0
EndSplineSet
EndChar
StartChar: uni0E32
Encoding: 180 3634
OldEncoding: 3634
Width: 606
Flags: W
Fore
12 528 m 1
 25.3333 573.333 51.3333 616.333 90 657 c 0
 130 697 189.333 717 268 717 c 0
 353.333 715 415 696.667 453 662 c 0
 489.667 626.667 508 574.667 508 506 c 2
 508 0 l 1
 389 0 l 1
 389 508 l 2
 389 584.667 344.667 623 256 623 c 0
 184 623 137 582 115 500 c 1
 12 528 l 1
EndSplineSet
EndChar
StartChar: uni0E33
Encoding: 181 3635
OldEncoding: 3635
Width: 606
Flags: W
Fore
12 528 m 1
 25.3333 573.333 51.3333 616.333 90 657 c 0
 130 697 189.333 717 268 717 c 0
 353.333 715 415 696.667 453 662 c 0
 489.667 626.667 508 574.667 508 506 c 2
 508 0 l 1
 389 0 l 1
 389 508 l 2
 389 584.667 344.667 623 256 623 c 0
 184 623 137 582 115 500 c 1
 12 528 l 1
-215 1100 m 0
 -170.333 1100 -137 1087 -115 1061 c 1
 -90.3333 1034.33 -78 1001.67 -78 963 c 0
 -78 923.667 -90.3333 890.667 -115 864 c 0
 -140.333 836.667 -173.667 823 -215 823 c 0
 -256.333 823 -289.667 836.667 -315 864 c 0
 -339.667 890.667 -352 923.667 -352 963 c 0
 -352 1001.67 -339.667 1034.33 -315 1061 c 1
 -293 1087 -259.667 1100 -215 1100 c 0
-213 907 m 0
 -197 907 -184 912.667 -174 924 c 0
 -164.667 933.333 -160 946.333 -160 963 c 0
 -160 979 -164.667 991.667 -174 1001 c 0
 -183.333 1011 -196.333 1016 -213 1016 c 0
 -231.667 1016 -244.667 1011 -252 1001 c 1
 -261.333 991.667 -266 979 -266 963 c 0
 -266 946.333 -261.333 933.333 -252 924 c 1
 -244 912.667 -231 907 -213 907 c 0
EndSplineSet
EndChar
StartChar: uni0E34
Encoding: 182 3636
OldEncoding: 3636
Width: 0
Flags: W
Fore
-350 1112 m 1
 -299.333 1110 -256.333 1096.33 -221 1071 c 0
 -191.667 1051.67 -166.333 1024.33 -145 989 c 1
 -127.667 955.667 -116.333 923 -111 891 c 1
 -94 815 l 1
 -188 844 l 1
 -235.333 855.333 -285.333 864.667 -338 872 c 0
 -371.333 878 -416.333 881 -473 881 c 1
 -578 877 l 1
 -643 870 l 1
 -637 915.333 -620.667 956.333 -594 993 c 0
 -565.333 1030.33 -531.333 1059 -492 1079 c 0
 -450.667 1101 -403.333 1112 -350 1112 c 1
-350 1030 m 1
 -388.667 1030 -421.667 1023.33 -449 1010 c 0
 -479 994 -496.667 978.333 -502 963 c 1
 -469 967 l 1
 -420 967 l 1
 -348 963 l 1
 -307.333 958.333 -275.333 952.667 -252 946 c 1
 -203 928 l 1
 -233.667 988 -282.667 1022 -350 1030 c 1
EndSplineSet
EndChar
StartChar: uni0E35
Encoding: 183 3637
OldEncoding: 3637
Width: 81
Flags: W
Fore
-307 1116 m 0
 -275 1116 -243.667 1109.33 -213 1096 c 1
 -190.333 1084 -174 1074.33 -164 1067 c 1
 -164 1190 l 1
 -57 1190 l 1
 -57 907 l 1
 -53 907 -45 876.333 -33 815 c 1
 -143 848 l 2
 -179.667 858 -229.667 867.667 -293 877 c 0
 -327.667 882.333 -372.667 885 -428 885 c 2
 -504 883 l 1
 -565 877 l 1
 -600 874 l 1
 -594 920.667 -577.667 961.667 -551 997 c 0
 -522.333 1035.67 -488.333 1064.33 -449 1083 c 1
 -404.333 1107 -357 1118 -307 1116 c 0
-307 1034 m 1
 -344.333 1034 -376.333 1027.33 -403 1014 c 0
 -433.667 998 -451.667 981.667 -457 965 c 1
 -426 969 l 1
 -367 971 l 1
 -305 967 l 1
 -227 954 l 1
 -176 938 l 1
 -158 932 l 1
 -158 932 l 1
 -187.333 990 -237 1024 -307 1034 c 1
EndSplineSet
EndChar
StartChar: uni0E36
Encoding: 184 3638
OldEncoding: 3638
Width: 0
Flags: W
Fore
-96 1100 m 1
 -96 1039.33 -114 999.667 -150 981 c 1
 -121 922 l 1
 -109 892.667 -100 857 -94 815 c 1
 -205 848 l 2
 -241 858 -290.667 867.667 -354 877 c 0
 -388.667 882.333 -433.667 885 -489 885 c 2
 -565 883 l 1
 -625 877 l 1
 -659 874 l 1
 -651 922 -634 963 -608 997 c 1
 -583.333 1035 -550 1063.67 -508 1083 c 1
 -466.667 1105 -419.667 1116 -367 1116 c 1
 -342 1114 l 2
 -332.667 1112 -328 1110.67 -328 1110 c 0
 -306.667 1171.33 -267.667 1202 -211 1202 c 0
 -177.667 1202 -151 1193.33 -131 1176 c 1
 -111.667 1155.33 -100 1130 -96 1100 c 1
-369 1034 m 1
 -405.667 1034 -437.667 1027.33 -465 1014 c 0
 -495 999.333 -512.667 983.667 -518 967 c 1
 -485 971 l 1
 -436 971 l 1
 -365 967 l 1
 -334.333 963.667 -302 958 -268 950 c 1
 -219 932 l 1
 -249.667 990 -299.667 1024 -369 1034 c 1
-213 1051 m 0
 -203 1051 -194.667 1055 -188 1063 c 0
 -181.333 1069.67 -178 1077.67 -178 1087 c 0
 -178 1097 -180.667 1104.67 -186 1110 c 0
 -192.667 1118 -201.667 1122 -213 1122 c 0
 -236.333 1122 -248 1110.33 -248 1087 c 0
 -248 1063 -236.333 1051 -213 1051 c 0
EndSplineSet
EndChar
StartChar: uni0E37
Encoding: 185 3639
OldEncoding: 3639
Width: 81
Flags: W
Fore
-160 1063 m 1
 -160 1190 l 1
 -57 1190 l 1
 -57 907 l 1
 -53 907 -45 876.333 -33 815 c 1
 -143 848 l 2
 -179.667 858 -229.667 867.667 -293 877 c 0
 -327.667 882.333 -372.667 885 -428 885 c 2
 -504 883 l 1
 -565 877 l 1
 -600 874 l 1
 -574.667 973.333 -534.333 1038.33 -479 1069 c 0
 -423.667 1100.33 -365 1116 -303 1116 c 1
 -303 1190 l 1
 -207 1190 l 1
 -207 1092 l 1
 -186 1081 l 1
 -160 1063 l 1
-307 1034 m 1
 -344.333 1034 -376.333 1027.33 -403 1014 c 0
 -433.667 998 -451.667 981.667 -457 965 c 1
 -426 969 l 1
 -367 971 l 1
 -305 967 l 1
 -227 954 l 1
 -176 938 l 1
 -158 932 l 1
 -158 932 l 1
 -187.333 990 -237 1024 -307 1034 c 1
EndSplineSet
EndChar
StartChar: uni0E38
Encoding: 186 3640
OldEncoding: 3640
Width: 0
Flags: W
Fore
-98 -512 m 1
 -209 -512 l 1
 -209 -356 l 1
 -258 -358 l 1
 -281.333 -356 -302.667 -348 -322 -334 c 1
 -338.667 -320 -352 -303 -362 -283 c 0
 -370.667 -265 -375 -244.333 -375 -221 c 0
 -375 -185 -362.667 -153 -338 -125 c 0
 -313.333 -96.3333 -278.333 -82 -233 -82 c 0
 -208.333 -82 -186.667 -86.6667 -168 -96 c 0
 -149.333 -104.667 -133 -119.667 -119 -141 c 0
 -105 -160.333 -98 -183 -98 -209 c 2
 -98 -512 l 1
-236 -274 m 0
 -219.333 -274 -205.667 -268.667 -195 -258 c 0
 -185 -248.667 -180 -236.333 -180 -221 c 0
 -180 -205 -185 -192 -195 -182 c 0
 -205.667 -171.333 -219.333 -166 -236 -166 c 0
 -252 -166 -265.333 -171.333 -276 -182 c 0
 -286 -192 -291 -205 -291 -221 c 0
 -291 -236.333 -286 -248.667 -276 -258 c 0
 -265.333 -268.667 -252 -274 -236 -274 c 0
EndSplineSet
EndChar
StartChar: uni0E39
Encoding: 187 3641
OldEncoding: 3641
Width: 0
Flags: W
Fore
-389 -408 m 2
 -389 -356 l 1
 -432 -358 l 1
 -455.333 -356 -476.667 -348 -496 -334 c 0
 -512 -320.667 -525.667 -303.667 -537 -283 c 1
 -545 -263.667 -549 -243 -549 -221 c 0
 -549 -183.667 -536.667 -151.667 -512 -125 c 0
 -487.333 -96.3333 -452.667 -82 -408 -82 c 0
 -372 -82 -340.333 -93.6667 -313 -117 c 0
 -285.667 -140.333 -272 -171 -272 -209 c 2
 -272 -389 l 2
 -272 -412.333 -261.333 -424 -240 -424 c 0
 -219.333 -424 -209 -413 -209 -391 c 2
 -209 -92 l 1
 -98 -92 l 1
 -98 -408 l 2
 -98 -442.667 -113 -470.667 -143 -492 c 0
 -173 -513.333 -206 -524 -242 -524 c 0
 -278.667 -524 -312 -513.333 -342 -492 c 0
 -373.333 -470.667 -389 -442.667 -389 -408 c 2
-410 -274 m 0
 -392.667 -274 -379 -268 -369 -256 c 1
 -359 -246.667 -354 -234.333 -354 -219 c 0
 -354 -205 -359 -192 -369 -180 c 0
 -379.667 -169.333 -393.333 -164 -410 -164 c 0
 -425.333 -164 -439 -169.333 -451 -180 c 1
 -460.333 -192 -465 -205 -465 -219 c 0
 -465 -234.333 -460.333 -246.667 -451 -256 c 0
 -439.667 -268 -426 -274 -410 -274 c 0
EndSplineSet
EndChar
StartChar: uni0E3A
Encoding: 188 3642
OldEncoding: 3642
Width: 0
Flags: W
Fore
-166 -115 m 0
 -152.667 -115 -140.333 -118.333 -129 -125 c 0
 -119 -131 -110.667 -140 -104 -152 c 0
 -98.6667 -160.667 -96 -172 -96 -186 c 0
 -96 -204.667 -102.333 -221.333 -115 -236 c 0
 -126.333 -249.333 -143.333 -256 -166 -256 c 0
 -188.667 -256 -205.667 -249.333 -217 -236 c 0
 -231 -221.333 -238 -204.667 -238 -186 c 0
 -238 -167.333 -231 -150.333 -217 -135 c 0
 -205.667 -121.667 -188.667 -115 -166 -115 c 0
EndSplineSet
EndChar
StartChar: uni0E3F
Encoding: 192 3647
OldEncoding: 3647
Width: 839
Flags: W
Fore
96 0 m 1
 96 850 l 1
 473 850 l 2
 501.667 850 538 844.667 582 834 c 0
 622.667 822.667 654 806 676 784 c 1
 700.667 766 718.333 747 729 727 c 1
 743 680 l 1
 754 627 l 1
 754 595 747 565 733 537 c 1
 721 505.667 700.667 477.667 672 453 c 1
 698.667 433.667 721 408.333 739 377 c 0
 758.333 343.667 770 309.333 774 274 c 1
 774 224 767.333 182.667 754 150 c 0
 738.667 114 716 83 686 57 c 0
 640 19 571 0 479 0 c 2
 96 0 l 1
379 932 m 1
 461 942 l 1
 461 -72 l 1
 379 -72 l 1
 379 932 l 1
270 365 m 1
 270 145 l 1
 475 145 l 2
 510.333 145 541 152 567 166 c 0
 595 180.667 608 213.333 606 264 c 0
 606 305.333 594.333 332 571 344 c 1
 549 358 518.333 365 479 365 c 2
 270 365 l 1
270 705 m 1
 270 510 l 1
 469 510 l 2
 507.667 510 536.333 519 555 537 c 0
 575.667 555.667 586 578.667 586 606 c 0
 584 672 547.667 705 477 705 c 2
 270 705 l 1
EndSplineSet
EndChar
StartChar: uni0E40
Encoding: 193 3648
OldEncoding: 3648
Width: 385
Flags: W
Fore
236 -8 m 0
 192.667 -8 158.333 5.66667 133 33 c 0
 109.667 60.3333 98 93.6667 98 133 c 2
 98 696 l 1
 217 696 l 1
 217 268 l 1
 236 268 l 2
 278 268 312 255 338 229 c 1
 359.333 205.667 371 173.667 373 133 c 1
 373 91.6667 361.333 58.3333 338 33 c 0
 314.667 5.66667 280.667 -8 236 -8 c 0
238 76 m 0
 254 76 266.667 80.6667 276 90 c 0
 286 99.3333 291 112.333 291 129 c 0
 291 145 287 158 279 168 c 1
 269 177.333 255.333 182 238 182 c 0
 221.333 182 207.667 176.667 197 166 c 0
 187 156.667 182 144.333 182 129 c 0
 182 114.333 187.667 102 199 92 c 0
 209.667 81.3333 222.667 76 238 76 c 0
EndSplineSet
EndChar
StartChar: uni0E41
Encoding: 194 3649
OldEncoding: 3649
Width: 712
Flags: W
Fore
236 -8 m 0
 192.667 -8 158.333 5.66667 133 33 c 0
 109.667 60.3333 98 93.6667 98 133 c 2
 98 696 l 1
 217 696 l 1
 217 268 l 1
 236 268 l 2
 278 268 312 255 338 229 c 1
 359.333 205.667 371 173.667 373 133 c 1
 373 91.6667 361.333 58.3333 338 33 c 0
 314.667 5.66667 280.667 -8 236 -8 c 0
565 -8 m 0
 520.333 -8 487 5.66667 465 33 c 1
 440.333 58.3333 428 91.6667 428 133 c 2
 428 696 l 1
 547 696 l 1
 547 268 l 1
 565 268 l 2
 605.667 268 638.667 254.333 664 227 c 0
 687.333 201.667 700 170.333 702 133 c 1
 702 92.3333 690 59 666 33 c 0
 640.667 5.66667 607 -8 565 -8 c 0
238 76 m 0
 254 76 266.667 80.6667 276 90 c 0
 286 99.3333 291 112.333 291 129 c 0
 291 145 287 158 279 168 c 1
 269 177.333 255.333 182 238 182 c 0
 221.333 182 207.667 176.667 197 166 c 0
 187 156.667 182 144.333 182 129 c 0
 182 114.333 187.667 102 199 92 c 0
 209.667 81.3333 222.667 76 238 76 c 0
565 76 m 0
 583.667 76 596.667 80.6667 604 90 c 1
 613.333 99.3333 618 112.333 618 129 c 0
 618 145.667 613.333 158.667 604 168 c 1
 596.667 177.333 583.667 182 565 182 c 0
 548.333 182 535.333 176.667 526 166 c 0
 516.667 156.667 512 144.333 512 129 c 0
 512 113.667 516.667 101.333 526 92 c 0
 538 81.3333 551 76 565 76 c 0
EndSplineSet
EndChar
StartChar: uni0E42
Encoding: 195 3650
OldEncoding: 3650
Width: 483
Flags: W
Fore
299 940 m 2
 299 268 l 1
 317 268 l 2
 360.333 268 394.667 254.333 420 227 c 0
 441.333 203.667 453 172.333 455 133 c 1
 455 93.6667 443.333 60.3333 420 33 c 0
 394.667 5.66667 360.333 -8 317 -8 c 0
 274.333 -8 240.333 5.66667 215 33 c 0
 191.667 60.3333 180 93.6667 180 133 c 2
 180 944 l 2
 180 968 178.667 988.667 176 1006 c 1
 172.667 1016 165.333 1026.67 154 1038 c 0
 142 1048 122.667 1059 96 1071 c 2
 -47 1133 l 1
 -41.6667 1141.67 -28 1156 -6 1176 c 0
 12.6667 1194.67 39.3333 1214.33 74 1235 c 1
 111.333 1254.33 147.333 1264 182 1264 c 0
 207.333 1264 226 1261.67 238 1257 c 2
 301 1231 l 2
 332.333 1217 355.667 1210 371 1210 c 0
 390.333 1210 414 1219.67 442 1239 c 1
 483 1149 l 1
 445.667 1121.67 409 1108 373 1108 c 0
 344.333 1108 312 1116.33 276 1133 c 0
 242.667 1147.67 219.667 1156.33 207 1159 c 2
 178 1163 l 2
 170 1163 162 1161.67 154 1159 c 1
 143 1151 l 1
 193.667 1125.67 228 1107.33 246 1096 c 1
 262.667 1082 276.333 1064 287 1042 c 1
 295 1020 299 986 299 940 c 2
317 80 m 0
 334.333 80 346.667 84.6667 354 94 c 0
 362.667 104.667 367 116.333 367 129 c 0
 367 141.667 362.667 153.333 354 164 c 0
 346.667 173.333 334.333 178 317 178 c 0
 301.667 178 290.333 173.333 283 164 c 1
 273 154.667 268 143 268 129 c 0
 268 115 273 103.333 283 94 c 1
 290.333 84.6667 301.667 80 317 80 c 0
EndSplineSet
EndChar
StartChar: uni0E43
Encoding: 196 3651
OldEncoding: 3651
Width: 483
Flags: W
Fore
301 1083 m 2
 301 266 l 1
 319 266 l 2
 360.333 266 394 253 420 227 c 1
 442.667 202.333 455 171 457 133 c 1
 457 93.6667 445.333 60.3333 422 33 c 0
 396.667 5.66667 362.333 -8 319 -8 c 0
 275 -8 240.333 5.66667 215 33 c 0
 191.667 60.3333 180 93.6667 180 133 c 2
 180 1085 l 2
 180 1119 177.333 1142.33 172 1155 c 0
 165.333 1170.33 150.333 1178 127 1178 c 0
 105 1178 91.3333 1175 86 1169 c 1
 77.3333 1162.33 72 1157 70 1153 c 1
 100.667 1153 123.667 1142 139 1120 c 0
 155.667 1098.67 164 1068.67 164 1030 c 1
 158 964.667 125.333 932 66 932 c 0
 39.3333 932 16 938 -4 950 c 0
 -26.6667 962.667 -41 979.667 -47 1001 c 0
 -53.6667 1029 -57 1051.67 -57 1069 c 0
 -57 1123.67 -39.3333 1170.67 -4 1210 c 0
 32 1250 76.3333 1270 129 1270 c 0
 184.333 1270 226.667 1253 256 1219 c 0
 286 1185 301 1139.67 301 1083 c 2
319 80 m 0
 334.333 80 346.667 84.6667 356 94 c 0
 364.667 103.333 369 115 369 129 c 0
 369 143 364.667 154.667 356 164 c 0
 346.667 173.333 334.333 178 319 178 c 0
 303.667 178 292.333 173.333 285 164 c 1
 275 154.667 270 143 270 129 c 0
 270 115 275 103.333 285 94 c 1
 292.333 84.6667 303.667 80 319 80 c 0
53 1079 m 0
 46.3333 1079 39.6667 1075.67 33 1069 c 0
 27.6667 1063.67 25 1056.33 25 1047 c 0
 25 1037 27.6667 1029.33 33 1024 c 0
 39.6667 1017.33 46.3333 1014 53 1014 c 0
 73.6667 1014 84 1025 84 1047 c 0
 84 1068.33 73.6667 1079 53 1079 c 0
EndSplineSet
EndChar
StartChar: uni0E44
Encoding: 197 3652
OldEncoding: 3652
Width: 550
Flags: W
Fore
250 1081 m 1
 193 891 l 1
 181.667 855.667 160.333 838 129 838 c 0
 111 838 96.6667 843.333 86 854 c 0
 74.6667 867.333 65.6667 885.667 59 909 c 1
 -6 1151 l 1
 -12 1175 -25.6667 1192 -47 1202 c 1
 20 1270 l 1
 50 1257.33 70 1234 80 1200 c 1
 131 1014 l 1
 190 1212 l 2
 201.333 1249.33 230 1268 276 1268 c 0
 301.333 1268 323.333 1260.33 342 1245 c 0
 360 1231 369 1209.33 369 1180 c 2
 369 268 l 1
 385 268 l 2
 428.333 268 462.333 255 487 229 c 0
 509.667 205.667 522 173.667 524 133 c 1
 524 91.6667 511.667 58.3333 487 33 c 1
 463 5.66667 429 -8 385 -8 c 0
 340.333 -8 307 5.66667 285 33 c 0
 261.667 59.6667 250 93 250 133 c 2
 250 1081 l 1
387 80 m 0
 404.333 80 416.667 84.6667 424 94 c 0
 432 104 436 115.667 436 129 c 0
 436 142.333 432 154 424 164 c 0
 416.667 173.333 404.333 178 387 178 c 0
 369.667 178 357.333 173.333 350 164 c 0
 342 154 338 142.333 338 129 c 0
 338 115.667 342 104 350 94 c 0
 357.333 84.6667 369.667 80 387 80 c 0
EndSplineSet
EndChar
StartChar: uni0E45
Encoding: 198 3653
OldEncoding: 3653
Width: 606
Flags: W
Fore
12 528 m 1
 25.3333 573.333 51.3333 616.333 90 657 c 0
 130 697 189.333 717 268 717 c 0
 353.333 715 415 696.667 453 662 c 0
 489.667 626.667 508 574.667 508 506 c 2
 508 -362 l 1
 389 -362 l 1
 389 508 l 2
 389 584.667 344.667 623 256 623 c 0
 184 623 137 582 115 500 c 1
 12 528 l 1
EndSplineSet
EndChar
StartChar: uni0E46
Encoding: 199 3654
OldEncoding: 3654
Width: 806
Flags: W
Fore
367 606 m 1
 345.667 596.667 330.667 581 322 559 c 1
 314 546.333 308.333 531.333 305 514 c 1
 330 526 l 2
 340 530 355 532 375 532 c 0
 414.333 532 445 521.333 467 500 c 1
 487.667 476 498 446.667 498 412 c 0
 498 376.667 487.667 346.667 467 322 c 1
 444.333 297.333 413.667 285 375 285 c 0
 324.333 287 282.667 305.333 250 340 c 0
 216.667 375.333 199 421.667 197 479 c 0
 197 536.333 214 587 248 631 c 0
 280.667 673 321.667 699.667 371 711 c 1
 430 682 l 2
 453.333 670 465 662.333 465 659 c 1
 545 711 l 1
 601.667 700.333 644 677 672 641 c 1
 696.667 605 709 559.333 709 504 c 2
 709 -39 l 2
 709 -104.333 686.333 -155.667 641 -193 c 1
 592.333 -230.333 534.333 -254.667 467 -266 c 1
 436 -162 l 1
 498 -141 l 2
 532.667 -130.333 556.333 -117.333 569 -102 c 1
 583 -88.6667 590 -65 590 -31 c 2
 590 492 l 2
 590 526.667 587.333 550.333 582 563 c 0
 575.333 579.667 563 594 545 606 c 1
 465 555 l 1
 465 555 l 1
 428 573 l 1
 367 606 l 1
375 371 m 0
 386.333 371 395 375 401 383 c 1
 408.333 389 412 397.333 412 408 c 0
 412 420 409 428.667 403 434 c 0
 396.333 440.667 387 444 375 444 c 0
 362.333 444 352.667 440.667 346 434 c 0
 340.667 428.667 338 420 338 408 c 0
 338 398 341.333 389.667 348 383 c 0
 354 375 363 371 375 371 c 0
EndSplineSet
EndChar
StartChar: uni0E47
Encoding: 200 3655
OldEncoding: 3655
Width: 0
Flags: W
Fore
-209 819 m 0
 -229 819 -247.333 824.667 -264 836 c 1
 -281.333 845.333 -300.667 858 -322 874 c 0
 -342.667 891.333 -359.667 904.333 -373 913 c 0
 -385.667 920.333 -400 924 -416 924 c 0
 -429.333 924 -441.667 912.333 -453 889 c 1
 -462.333 865.667 -467 841 -467 815 c 1
 -496 815 l 1
 -524.667 828.333 -550.333 855 -573 895 c 1
 -595 928.333 -606 964.667 -606 1004 c 0
 -606 1024 -602.667 1042.33 -596 1059 c 0
 -582.667 1092.33 -560.667 1117 -530 1133 c 0
 -505.333 1146.33 -467.333 1153 -416 1153 c 2
 -391 1153 l 1
 -373 1151 l 2
 -336.333 1147 -303.333 1145 -274 1145 c 0
 -238 1145 -213 1151 -199 1163 c 0
 -182.333 1177.67 -174 1203 -174 1239 c 1
 -74 1239 l 1
 -74 1174.33 -90.3333 1128 -123 1100 c 0
 -155.667 1071.33 -210.333 1057 -287 1057 c 0
 -315 1057 -344.333 1058.33 -375 1061 c 1
 -421.667 1061 -454.333 1055.33 -473 1044 c 0
 -491 1032.67 -500 1009 -500 973 c 1
 -498 979.667 -489.667 990 -475 1004 c 1
 -460.333 1014.67 -437.333 1020 -406 1020 c 0
 -376.667 1020 -355.333 1015.33 -342 1006 c 0
 -329.333 997.333 -318.333 988.333 -309 979 c 1
 -295 1019.67 -261.667 1040 -209 1040 c 0
 -172.333 1040 -145 1030 -127 1010 c 0
 -107.667 989.333 -98 963.333 -98 932 c 0
 -98 901.333 -108.333 874.667 -129 852 c 0
 -149 830 -175.667 819 -209 819 c 0
-209 897 m 0
 -187 897 -176 908.667 -176 932 c 0
 -176 942.667 -178.667 950.667 -184 956 c 0
 -189.333 962 -197.667 965 -209 965 c 0
 -219.667 965 -228.667 961.333 -236 954 c 0
 -241.333 948.667 -244 941.333 -244 932 c 0
 -244 908.667 -232.333 897 -209 897 c 0
EndSplineSet
EndChar
StartChar: uni0E48
Encoding: 201 3656
OldEncoding: 3656
Width: 0
Flags: W
Fore
-205 1268 m 1
 -205 1507 l 1
 -98 1507 l 1
 -98 1268 l 1
 -205 1268 l 1
EndSplineSet
EndChar
StartChar: uni0E49
Encoding: 202 3657
OldEncoding: 3657
Width: 0
Flags: W
Fore
-160 1395 m 0
 -162 1361 -166 1337 -172 1323 c 0
 -178.667 1306.33 -184.667 1297.33 -190 1296 c 2
 -162 1303 l 2
 -146.667 1307 -131.667 1313.67 -117 1323 c 0
 -103.667 1331.67 -91.3333 1344 -80 1360 c 0
 -65.3333 1383.33 -57 1403.67 -55 1421 c 0
 -52.3333 1446.33 -51 1473 -51 1501 c 1
 47 1501 l 1
 47 1371.67 5.33333 1287.67 -78 1249 c 0
 -127.333 1225.67 -181.333 1214 -240 1214 c 1
 -291 1219 l 1
 -319 1223 l 1
 -319 1257 l 1
 -297 1272 l 2
 -288.333 1278.67 -283 1286.67 -281 1296 c 1
 -313 1305 l 2
 -331.667 1311 -346.667 1322.33 -358 1339 c 0
 -370.667 1357.67 -377 1379.67 -377 1405 c 0
 -377 1433.67 -366.667 1458.33 -346 1479 c 1
 -328 1499 -302.667 1509 -270 1509 c 0
 -234.667 1509 -207.333 1497.67 -188 1475 c 1
 -169.333 1449 -160 1422.33 -160 1395 c 0
-272 1368 m 0
 -261.333 1368 -252.667 1371.33 -246 1378 c 0
 -240.667 1383.33 -238 1391.67 -238 1403 c 0
 -238 1412.33 -241.333 1420.33 -248 1427 c 0
 -254 1434.33 -262 1438 -272 1438 c 0
 -295.333 1438 -307 1426.33 -307 1403 c 0
 -307 1395 -303.667 1386.67 -297 1378 c 0
 -290.333 1371.33 -282 1368 -272 1368 c 0
EndSplineSet
EndChar
StartChar: uni0E4A
Encoding: 203 3658
OldEncoding: 3658
Width: 0
Flags: W
Fore
-408 1208 m 0
 -441.333 1208 -469.333 1223 -492 1253 c 0
 -515.333 1285.67 -526 1320.67 -524 1358 c 0
 -524 1390 -513.333 1420.67 -492 1450 c 1
 -471.333 1474.67 -443.333 1487 -408 1487 c 0
 -385.333 1487 -367.333 1483 -354 1475 c 1
 -339.333 1461.67 -331.333 1454 -330 1452 c 1
 -330 1452 -320.333 1459.67 -301 1475 c 0
 -289 1483 -273.333 1487 -254 1487 c 0
 -220.667 1487 -194.667 1476.67 -176 1456 c 0
 -158.667 1434.67 -150 1406 -150 1370 c 0
 -150 1345.33 -152 1329 -156 1321 c 0
 -160 1311 -166 1298 -174 1282 c 1
 -172 1282.67 -164.667 1288 -152 1298 c 1
 -139.333 1306 -130.333 1316.33 -125 1329 c 0
 -110.333 1361.67 -102 1390.33 -100 1415 c 0
 -100 1430.33 -102 1446 -106 1462 c 1
 -29 1491 l 1
 -23 1473 -20 1454.67 -20 1436 c 0
 -20 1382.67 -34.3333 1334.67 -63 1292 c 1
 -85.6667 1262 -111.667 1243.67 -141 1237 c 0
 -178.333 1226.33 -220 1221 -266 1221 c 1
 -266 1237 l 1
 -268 1251 l 1
 -244 1282 l 1
 -232.667 1298.67 -227 1319 -227 1343 c 0
 -227 1363.67 -229 1380.33 -233 1393 c 1
 -240.333 1405 -252.667 1411 -270 1411 c 0
 -285.333 1411 -295.667 1408.33 -301 1403 c 0
 -308.333 1397.67 -314.333 1392 -319 1386 c 1
 -319 1386 l 1
 -319 1388 -326 1393 -340 1401 c 0
 -353.333 1410.33 -369.667 1415 -389 1415 c 0
 -419.667 1415 -436 1401.33 -438 1374 c 1
 -426 1378 l 1
 -397 1380 l 1
 -372.333 1378 -353.333 1369.33 -340 1354 c 1
 -326 1335.33 -319 1313.33 -319 1288 c 0
 -319 1268 -327.333 1249.67 -344 1233 c 0
 -362.667 1216.33 -384 1208 -408 1208 c 0
-410 1321 m 0
 -428.667 1321 -438 1312 -438 1294 c 0
 -438 1276.67 -428.667 1268 -410 1268 c 0
 -392 1268 -383 1276.67 -383 1294 c 0
 -383 1312 -392 1321 -410 1321 c 0
EndSplineSet
EndChar
StartChar: uni0E4B
Encoding: 204 3659
OldEncoding: 3659
Width: 0
Flags: W
Fore
-201 1319 m 1
 -303 1319 l 1
 -303 1413 l 1
 -201 1413 l 1
 -201 1503 l 1
 -98 1503 l 1
 -98 1413 l 1
 4 1413 l 1
 4 1319 l 1
 -98 1319 l 1
 -98 1231 l 1
 -201 1231 l 1
 -201 1319 l 1
EndSplineSet
EndChar
StartChar: uni0E4C
Encoding: 205 3660
OldEncoding: 3660
Width: 0
Flags: W
Fore
-152 1376 m 0
 -144.667 1377.33 -180 1374 -258 1366 c 1
 -301 1364 l 1
 -271 1364 -247 1355 -229 1337 c 0
 -211.667 1317.67 -203 1295.33 -203 1270 c 0
 -201 1240.67 -209.667 1215.33 -229 1194 c 0
 -248.333 1170.67 -273 1159 -303 1159 c 0
 -343 1157 -375 1168.67 -399 1194 c 1
 -423.667 1216.67 -436 1246.67 -436 1284 c 0
 -436 1352.67 -409.333 1399 -356 1423 c 0
 -329.333 1435 -296 1442 -256 1444 c 0
 -218.667 1446 -188.667 1450.67 -166 1458 c 0
 -148 1464 -139 1481.67 -139 1511 c 1
 -53 1511 l 1
 -53 1475 -61.3333 1445.67 -78 1423 c 1
 -94 1395.67 -118.667 1380 -152 1376 c 0
-309 1296 m 0
 -332.333 1296 -344 1285.33 -344 1264 c 0
 -344 1240.67 -332.333 1229 -309 1229 c 0
 -299.667 1229 -291.667 1232.33 -285 1239 c 0
 -279 1245 -276 1253.33 -276 1264 c 0
 -276 1272.67 -279 1280 -285 1286 c 0
 -291.667 1292.67 -299.667 1296 -309 1296 c 0
EndSplineSet
EndChar
StartChar: uni0E4D
Encoding: 206 3661
OldEncoding: 3661
Width: 0
Flags: W
Fore
-240 1100 m 0
 -197.333 1100 -163 1086.33 -137 1059 c 1
 -113.667 1030.33 -102 998.333 -102 963 c 0
 -102 927 -114.333 894 -139 864 c 1
 -165 836.667 -198.667 823 -240 823 c 0
 -282 823 -316 836.667 -342 864 c 1
 -366.667 892.667 -379 925.667 -379 963 c 0
 -379 1000.33 -366.667 1032.33 -342 1059 c 0
 -316 1086.33 -282 1100 -240 1100 c 0
-240 907 m 0
 -224 907 -211 912.667 -201 924 c 0
 -191 933.333 -186 946.333 -186 963 c 0
 -186 977.667 -191 989.667 -201 999 c 0
 -211 1010.33 -224 1016 -240 1016 c 0
 -256 1016 -269 1011 -279 1001 c 0
 -288.333 991.667 -293 979 -293 963 c 0
 -293 946.333 -288.333 933.333 -279 924 c 0
 -267.667 912.667 -254.667 907 -240 907 c 0
EndSplineSet
EndChar
StartChar: uni0E4E
Encoding: 207 3662
OldEncoding: 3662
Width: 0
Flags: W
Fore
-43 1143 m 1
 -56 1147 l 2
 -63.3333 1150.33 -68.6667 1154.33 -72 1159 c 0
 -82 1170.33 -90.3333 1178.67 -97 1184 c 0
 -108.333 1192 -122.333 1196 -139 1196 c 0
 -155 1196 -169.333 1190.67 -182 1180 c 0
 -196 1169.33 -203 1152.67 -203 1130 c 0
 -203 1117.33 -198 1103 -188 1087 c 0
 -184 1082.33 -182 1073.67 -182 1061 c 0
 -182 1053 -186.333 1045.67 -195 1039 c 0
 -203 1033 -210.333 1030 -217 1030 c 0
 -231 1030 -242 1037 -250 1051 c 0
 -258.667 1065.67 -268.333 1074.67 -279 1078 c 0
 -286.333 1081.33 -298.333 1083 -315 1083 c 0
 -331 1083 -344.667 1077.67 -356 1067 c 0
 -368.667 1056.33 -375 1041.33 -375 1022 c 0
 -375 1007.33 -370.667 995.333 -362 986 c 0
 -354 976 -344.667 971 -334 971 c 0
 -319.333 971 -308 974 -300 980 c 1
 -281 999 l 1
 -250 987 l 1
 -258 942 l 1
 -282.667 913.333 -316 899 -358 899 c 0
 -396 899 -427 911.667 -451 937 c 0
 -473.667 961.667 -485 992 -485 1028 c 1
 -481 1063 l 1
 -481 1064 l 1
 -479 1076 -474.333 1088 -467 1100 c 0
 -452.333 1125.33 -433 1145.33 -409 1160 c 0
 -385.667 1174.67 -360 1182 -332 1182 c 0
 -316.667 1182 -301 1179.33 -285 1174 c 1
 -285 1205.33 -273.667 1231.67 -251 1253 c 0
 -227.667 1275 -200 1286 -168 1286 c 0
 -141.333 1286 -116.333 1281 -93 1271 c 0
 -70.3333 1261 -51.6667 1245 -37 1223 c 0
 -32.3333 1217.67 -27.6667 1208.67 -23 1196 c 0
 -18.3333 1186 -16 1177 -16 1169 c 0
 -16 1151.67 -25 1143 -43 1143 c 1
EndSplineSet
EndChar
StartChar: uni0E4F
Encoding: 208 3663
OldEncoding: 3663
Width: 696
Flags: W
Fore
348 0 m 0
 240.667 0 156 34.6667 94 104 c 0
 32.6667 174.667 2 256 2 348 c 0
 2 443.333 32 525.333 92 594 c 0
 152 662 237.333 696 348 696 c 0
 422 696 485.667 679.667 539 647 c 1
 592.333 612.333 631.667 569.333 657 518 c 0
 683 465.333 696 408.667 696 348 c 0
 696 286 683 229.333 657 178 c 0
 631.667 126.667 592.333 83.6667 539 49 c 1
 485.667 16.3333 422 -1.73472e-18 348 0 c 0
348 618 m 0
 262.667 618 196.667 591.667 150 539 c 0
 102 483 78 419.333 78 348 c 0
 78 301.333 88.3333 257 109 215 c 0
 129 173.667 159.667 141 201 117 c 1
 240.333 91 289.333 78 348 78 c 0
 406.667 78 456.667 91 498 117 c 0
 540 143.667 571.333 177 592 217 c 0
 611.333 256.333 621 300 621 348 c 0
 621 420.667 597 484.333 549 539 c 0
 502.333 591.667 435.333 618 348 618 c 0
348 152 m 0
 308.667 152 273.333 161.333 242 180 c 0
 211.333 200 189.333 224.667 176 254 c 0
 161.333 284.667 154 316 154 348 c 0
 154 379.333 161.333 410.667 176 442 c 0
 188.667 470.667 210.667 494.667 242 514 c 0
 274 533.333 309.333 543 348 543 c 0
 388 543 423.667 533.333 455 514 c 0
 485 496 506.667 472 520 442 c 0
 535.333 411.333 543 380 543 348 c 0
 543 296 526 250.333 492 211 c 0
 456.667 171.667 408.667 152 348 152 c 0
EndSplineSet
EndChar
StartChar: uni0E50
Encoding: 209 3664
OldEncoding: 3664
Width: 716
Flags: W
Fore
362 -8 m 0
 270.667 -8 199 18 147 70 c 0
 95.6667 121.333 70 180.667 70 248 c 0
 70 293.333 80.6667 335 102 373 c 0
 125.333 412.333 159 444.333 203 469 c 1
 248.333 492.333 301.333 504 362 504 c 0
 423.333 504 476.667 492.333 522 469 c 0
 568 443.667 602.333 411.667 625 373 c 0
 646.333 335 657 293.333 657 248 c 0
 657 204.667 645.667 163 623 123 c 0
 599.667 83.6667 566 52.3333 522 29 c 0
 476 4.33333 422.667 -8 362 -8 c 0
362 397 m 0
 308.667 397 267.333 382 238 352 c 0
 208 322.667 193 288 193 248 c 0
 193 206.667 208 171 238 141 c 1
 266 111 307.333 96 362 96 c 0
 416.667 96 459 111 489 141 c 0
 519.667 171.667 535 206.667 535 246 c 0
 535 286.667 519.667 322 489 352 c 0
 459.667 382 417.333 397 362 397 c 0
EndSplineSet
EndChar
StartChar: uni0E51
Encoding: 210 3665
OldEncoding: 3665
Width: 735
Flags: W
Fore
186 252 m 0
 186 216.667 195.667 187.333 215 164 c 1
 236.333 140.667 255.333 129 272 129 c 1
 262.667 131 253.333 139.333 244 154 c 0
 233.333 168 227 191.667 225 225 c 1
 225 261.667 238 293 264 319 c 0
 291.333 346.333 323.333 360 360 360 c 0
 406.667 362 442.333 348.333 467 319 c 0
 489 293 500 259 500 217 c 0
 500 162.333 482 116 446 78 c 1
 412 39.3333 361.667 20 295 20 c 1
 226.333 27.3333 172.333 50.6667 133 90 c 0
 93.6667 129.333 74 184.667 74 256 c 0
 74 306.667 87 351.667 113 391 c 0
 140.333 433.667 175.667 465.667 219 487 c 0
 262.333 510.333 309.333 522 360 522 c 0
 462.667 520 540 493.333 592 442 c 0
 646.667 387.333 674 315 674 225 c 0
 676 109.667 622.667 11.3333 514 -70 c 1
 440 4 l 1
 474 30 502 62.6667 524 102 c 0
 546 139.333 557 180.333 557 225 c 0
 557 261.667 549.667 294 535 322 c 0
 520.333 349.333 497.667 371 467 387 c 0
 432.333 403.667 396.667 412 360 412 c 0
 308.667 412 268 397 238 367 c 0
 205.333 336.333 188 298 186 252 c 0
360 266 m 0
 348.667 266 340 262 334 254 c 1
 326 246 322 237 322 227 c 0
 322 218.333 326 209 334 199 c 0
 340 190.333 348.667 186 360 186 c 0
 374.667 186 385 190.333 391 199 c 0
 397.667 207.667 401 217 401 227 c 0
 401 238.333 397 248 389 256 c 0
 382.333 262.667 372.667 266 360 266 c 0
EndSplineSet
EndChar
StartChar: uni0E52
Encoding: 211 3666
OldEncoding: 3666
Width: 874
Flags: W
Fore
522 342 m 1
 492 392.667 459.333 418 424 418 c 0
 411.333 418 401 416 393 412 c 1
 377 399 l 1
 404.333 399 429.667 393 453 381 c 1
 472.333 369 488.667 352 502 330 c 1
 512.667 307.333 518 284 518 260 c 0
 516 221.333 503 190.667 479 168 c 1
 457 144.667 423.667 133 379 133 c 0
 336.333 133 302 148 276 178 c 0
 247.333 210 233 247.667 233 291 c 0
 233 356.333 251 411 287 455 c 0
 322.333 498.333 366 520 418 520 c 0
 452.667 520 480 512.667 500 498 c 0
 514.667 486 526.333 473.667 535 461 c 1
 540.333 470.333 552.333 482.667 571 498 c 0
 591 512.667 619.667 520 657 520 c 0
 711 520 748 503.667 768 471 c 0
 788.667 439 799 404.333 799 367 c 2
 799 162 l 2
 799 110 785.333 69.6667 758 41 c 0
 730.667 13.6667 682.667 -8.67362e-19 614 0 c 2
 330 0 l 2
 243.333 0 183.333 17 150 51 c 0
 115.333 85.6667 98 141 98 217 c 2
 98 563 l 2
 98 588.333 94.6667 610.333 88 629 c 0
 80.6667 648.333 67 664 47 676 c 1
 137 750 l 1
 161.667 736 181 717.333 195 694 c 0
 209.667 666.667 217 637.333 217 606 c 2
 217 244 l 2
 217 195.333 223.333 159.667 236 137 c 1
 250.667 116.333 281.333 106 328 106 c 2
 594 106 l 2
 629.333 106 652.667 112.333 664 125 c 0
 673.333 136.333 678 159 678 193 c 2
 678 342 l 2
 678 370 675.333 388.333 670 397 c 0
 664 408.333 651 414 631 414 c 0
 613 414 599.333 409.667 590 401 c 0
 579.333 390.333 572.333 379 569 367 c 1
 561 344 l 1
 522 342 l 1
385 313 m 0
 369 313 357.333 308.333 350 299 c 0
 343.333 290.333 340 280 340 268 c 0
 340 256.667 344 246 352 236 c 1
 357.333 226 368.333 221 385 221 c 0
 416.333 223 432 238 432 266 c 0
 432 278 428 289 420 299 c 0
 412.667 308.333 401 313 385 313 c 0
EndSplineSet
EndChar
StartChar: uni0E53
Encoding: 212 3667
OldEncoding: 3667
Width: 849
Flags: W
Fore
297 418 m 0
 231.667 418 199 366.667 199 264 c 1
 209 268 l 2
 214.333 270.667 225.333 272 242 272 c 0
 286 272 319.333 257.667 342 229 c 1
 368.667 199 381 164.333 379 125 c 1
 379 85.6667 365.333 55 338 33 c 1
 311.333 8.33333 276.333 -4 233 -4 c 0
 126.333 -4 74 88.6667 76 274 c 0
 76 311.333 84.6667 351 102 393 c 1
 121.333 433 146 463.667 176 485 c 0
 207.333 508.333 243.667 520 285 520 c 0
 337 520 375.667 509.667 401 489 c 1
 427 471.667 443.667 455.333 451 440 c 1
 451 444.667 455.667 453.667 465 467 c 0
 473.667 480.333 488 492.667 508 504 c 0
 527.333 514.667 553.333 520 586 520 c 0
 658 520 707.667 492.667 735 438 c 0
 765.667 380 780 312.667 778 236 c 0
 776 131.333 759 52.6667 727 0 c 1
 604 0 l 1
 620.667 21.3333 633.667 56 643 104 c 0
 655.667 158.667 662 209.333 662 256 c 0
 662 300.667 655.667 338.333 643 369 c 0
 631 397.667 612 412 586 412 c 0
 559.333 412 540 402.333 528 383 c 0
 518.667 366.333 514 337 514 295 c 2
 514 0 l 1
 395 0 l 1
 395 299 l 2
 395 334.333 386.333 363 369 385 c 0
 351 407 327 418 297 418 c 0
242 178 m 0
 226 178 215 174 209 166 c 0
 201 156 197 145 197 133 c 0
 197 123 201 112.667 209 102 c 0
 214.333 92.6667 225.333 88 242 88 c 0
 256 88 266.667 92.6667 274 102 c 0
 282.667 112.667 287 123 287 133 c 0
 287 144.333 283.333 155.333 276 166 c 1
 268 174 256.667 178 242 178 c 0
EndSplineSet
EndChar
StartChar: uni0E54
Encoding: 213 3668
OldEncoding: 3668
Width: 866
Flags: W
Fore
190 250 m 0
 190 197.333 210.667 161 252 141 c 0
 289.333 123.667 335 115 389 115 c 1
 355 125 329.667 142 313 166 c 0
 298.333 189.333 291 218 291 252 c 0
 291 284.667 302.667 316.667 326 348 c 0
 348 376.667 381.333 391 426 391 c 0
 472 391 506 376.667 528 348 c 0
 552.667 317.333 565 286.667 565 256 c 0
 565 228 559.667 206 549 190 c 0
 541.667 180 532.667 171.333 522 164 c 1
 544 148 568 139 594 137 c 2
 684 127 l 1
 720 120.333 754.667 107.333 788 88 c 1
 743 -16 l 1
 728.333 -3.33333 707.333 6.66667 680 14 c 0
 644.667 21.3333 614 25 588 25 c 0
 559.333 25 519.667 20.6667 469 12 c 0
 421.667 4 376.667 0 334 0 c 0
 300.667 0 268 5.33333 236 16 c 0
 203.333 27.3333 174.667 44 150 66 c 0
 124.667 86.6667 104.667 113.667 90 147 c 0
 75.3333 179.667 68 217.333 68 260 c 0
 68 308 80 352.333 104 393 c 0
 129.333 433 165.667 465 213 489 c 0
 261 512.333 317 524 381 524 c 1
 444 520 l 1
 495.333 514.667 532.333 512 555 512 c 0
 603.667 514 640.667 523 666 539 c 1
 690.667 552.333 710.333 580.333 725 623 c 0
 739 664.333 748 722.333 752 797 c 1
 866 784 l 1
 866 757.333 864 726.667 860 692 c 0
 855.333 652.667 846.667 612.333 834 571 c 0
 819.333 527.667 798 493 770 467 c 0
 720.667 421.667 662 399 594 399 c 0
 571.333 399 544.667 401.333 514 406 c 1
 483.333 408 457.333 410 436 412 c 2
 395 414 l 1
 337 414 288 401.667 248 377 c 1
 207.333 349 188 306.667 190 250 c 0
428 209 m 0
 455.333 209 469 223.333 469 252 c 0
 469 261.333 465.667 271 459 281 c 0
 453 289 442.667 293 428 293 c 0
 413.333 293 403 289 397 281 c 0
 390.333 269 387 259.333 387 252 c 0
 387 242.667 390.333 232.333 397 221 c 0
 403 213 413.333 209 428 209 c 0
EndSplineSet
EndChar
StartChar: uni0E55
Encoding: 214 3669
OldEncoding: 3669
Width: 890
Flags: W
Fore
569 512 m 1
 661.667 512 717 555.667 735 643 c 0
 745 692.333 752 743.667 756 797 c 1
 870 784 l 1
 866 727 l 2
 864 698.333 860 668.333 854 637 c 0
 846.667 600.333 837 569.667 825 545 c 1
 811.667 511 794.667 485 774 467 c 0
 724.667 421.667 666 399 598 399 c 0
 574.667 399 548.667 401.333 520 406 c 1
 442 412 l 1
 401 414 l 1
 341 414 292 401.667 254 377 c 0
 212.667 348.333 193 306 195 250 c 0
 195 198.667 215.333 163 256 143 c 0
 296.667 124.333 342.333 115 393 115 c 1
 359 125 333.667 142 317 166 c 0
 302.333 189.333 295 218 295 252 c 0
 295 284.667 306.667 316.667 330 348 c 0
 352 376.667 385.333 391 430 391 c 0
 476 391 510 376.667 532 348 c 0
 556.667 317.333 569 286.667 569 256 c 0
 569 228 563.667 206 553 190 c 0
 545.667 180 536.667 171.333 526 164 c 1
 548 148 572 139 598 137 c 2
 688 127 l 1
 723.333 120.333 758.333 107.333 793 88 c 1
 748 -16 l 1
 730.667 -4 709.333 5.33333 684 12 c 0
 652.667 20.6667 622 25 592 25 c 0
 563.333 25 523.667 20.6667 473 12 c 0
 425.667 4 380.667 0 338 0 c 0
 304.667 0 272 5.33333 240 16 c 0
 207.333 27.3333 178.667 44 154 66 c 1
 130 85.3333 110 112.333 94 147 c 0
 79.3333 179.667 72 217.333 72 260 c 0
 72 352.667 101.333 417 160 453 c 0
 217.333 489 265 510 303 516 c 1
 299 532 297 547 297 561 c 0
 297 601.667 311.333 635.333 340 662 c 0
 366 687.333 398.667 700 438 700 c 0
 480 698 513.667 684.333 539 659 c 0
 565 633 578 600.333 578 561 c 0
 578 544.333 575 528 569 512 c 1
432 209 m 0
 459.333 209 473 223.333 473 252 c 0
 473 261.333 469.667 271 463 281 c 0
 457 289 446.667 293 432 293 c 0
 418.667 293 407.667 289 399 281 c 1
 392.333 269 389 259.333 389 252 c 0
 389 223.333 403.333 209 432 209 c 0
436 518 m 0
 450 518 461 522 469 530 c 1
 475.667 540 479 549.667 479 559 c 0
 479 571 475.667 581.333 469 590 c 1
 460.333 596.667 449.333 600 436 600 c 0
 424 600 414 596 406 588 c 0
 398.667 579.333 395 569.667 395 559 c 0
 395 551 398.667 541.333 406 530 c 1
 414 522 424 518 436 518 c 0
EndSplineSet
EndChar
StartChar: uni0E56
Encoding: 215 3670
OldEncoding: 3670
Width: 636
Flags: W
Fore
373 113 m 1
 377.667 113 390 118.333 410 129 c 0
 427.333 139 445.333 155.667 464 179 c 0
 465.333 179.667 466.333 180.667 467 182 c 0
 485 204.667 494 234 494 270 c 0
 492 324.667 477 365 449 391 c 0
 419 419 373.667 432 313 430 c 0
 280.333 430 251 422 225 406 c 0
 197 388.667 180.667 377 176 371 c 1
 131 371 l 1
 129 408.333 122.333 449.333 111 494 c 0
 95.6667 550.667 80.6667 597.667 66 635 c 0
 46.6667 681 28.6667 717.667 12 745 c 1
 115 795 l 1
 125 780.333 142.667 738 168 668 c 1
 194 590 210.333 538 217 512 c 1
 271 535.333 322.333 547 371 547 c 0
 424.333 547 468 534.667 502 510 c 0
 537.333 484.667 564.667 451.333 584 410 c 1
 602.667 365.333 612 319.333 612 272 c 0
 612 175.333 580.667 105 518 61 c 1
 456.667 15 386.333 -8 307 -8 c 0
 277 -8 245.667 -0.666667 213 14 c 0
 182.333 28.6667 155.667 49.3333 133 76 c 1
 112.333 102.667 102 134 102 170 c 0
 102 208.667 114.333 243.333 139 274 c 0
 165.667 306.667 202 321.667 248 319 c 0
 273.333 319 297 312.333 319 299 c 1
 339.667 290.333 356.333 275.333 369 254 c 0
 379 236 385 215.667 387 193 c 1
 387 167.667 385.667 148.333 383 135 c 1
 373 113 l 1
244 135 m 0
 258 135 268.667 140 276 150 c 0
 283.333 158.667 287 168 287 178 c 0
 287 206.667 272.667 221 244 221 c 0
 215.333 221 201 206.667 201 178 c 0
 201 167.333 205 158 213 150 c 1
 218.333 140 228.667 135 244 135 c 0
EndSplineSet
EndChar
StartChar: uni0E57
Encoding: 216 3671
OldEncoding: 3671
Width: 880
Flags: W
Fore
629 127 m 1
 660.333 141.667 680.667 165.667 690 199 c 0
 701.333 237.667 707 281.333 707 330 c 2
 707 375 l 1
 702 459 l 1
 700 541 l 1
 700 648.333 720.667 724.667 762 770 c 1
 811 743 l 1
 860 715 l 1
 828.667 677.667 813 616 813 530 c 1
 815 479 l 1
 817 428 l 1
 819 387 l 1
 819 340 l 2
 819 288 813.667 239 803 193 c 0
 793 151.667 773 114.667 743 82 c 0
 722.333 58.6667 689.667 36.6667 645 16 c 0
 597.667 -4.66667 564.333 -17.6667 545 -23 c 1
 477 51 l 1
 495 65 510 85.6667 522 113 c 1
 535.333 137.667 545 164.333 551 193 c 0
 557.667 221.667 561 249.333 561 276 c 0
 561 310 555.667 338.667 545 362 c 0
 535.667 384 518 395 492 395 c 0
 445.333 395 422 356.333 422 279 c 1
 328 279 l 1
 326 305 318.333 331.333 305 358 c 1
 295 382.667 278 395 254 395 c 0
 228 395 206.667 380 190 350 c 0
 174 319.333 166 290 166 262 c 0
 166 247.333 168 236.333 172 229 c 1
 174.667 235 180.667 240.667 190 246 c 0
 200 251.333 220.667 254 252 254 c 0
 294.667 254 326.667 241 348 215 c 0
 370 189 381 157 381 119 c 0
 381 81 369.333 49.6667 346 25 c 0
 322.667 -1 289.333 -14 246 -14 c 0
 206 -14 170.333 -0.333333 139 27 c 0
 107.667 54.3333 85.3333 88.3333 72 129 c 0
 56.6667 171 49 214.667 49 260 c 0
 49 299.333 58.6667 339 78 379 c 0
 96 413.667 122 443 156 467 c 0
 186.667 487.667 220.667 498 258 498 c 0
 296.667 498 324.667 490.333 342 475 c 0
 358 461 368.333 448 373 436 c 1
 381 449.333 393.333 463 410 477 c 1
 427.333 493.667 456 502 496 502 c 0
 538 502 572 491 598 469 c 0
 626.667 444.333 645.667 417.667 655 389 c 1
 667.667 359 674 325 674 287 c 0
 674 259 670.667 231.667 664 205 c 1
 641 145 l 1
 635 133 631 127 629 127 c 1
 629 127 l 1
248 78 m 0
 260 78 270.333 82 279 90 c 1
 285.667 98.6667 289 108.333 289 119 c 0
 289 126.333 285.667 135.667 279 147 c 1
 270.333 155.667 260 160 248 160 c 0
 234.667 160 225 155.667 219 147 c 0
 212.333 138.333 209 129 209 119 c 0
 209 108.333 212.333 98.6667 219 90 c 0
 225 82 234.667 78 248 78 c 0
EndSplineSet
EndChar
StartChar: uni0E58
Encoding: 217 3672
OldEncoding: 3672
Width: 837
Flags: W
Fore
436 182 m 1
 487.333 116.667 533.667 84 575 84 c 1
 594 86 l 1
 602 92 l 1
 563.333 92 532 105.667 508 133 c 1
 480 161 467 194.333 469 233 c 0
 469 265 483.333 295.333 512 324 c 1
 538.667 348 569.333 360 604 360 c 0
 635.333 360 663.333 350.667 688 332 c 0
 711.333 314.667 730.333 289.333 745 256 c 0
 757.667 226 764 194.667 764 162 c 0
 764 109.333 747 67 713 35 c 1
 679 1 635.333 -16 582 -16 c 0
 542 -16 505.667 -8.66667 473 6 c 1
 440.333 24 402 58.3333 358 109 c 0
 340.667 130.333 327.667 141 319 141 c 0
 309.667 141 305 132.333 305 115 c 0
 305 99.6667 309 80.3333 317 57 c 0
 325.667 36.3333 335.333 17.3333 346 0 c 1
 203 0 l 1
 113 80 68 168 68 264 c 1
 78 342 110 402 164 444 c 0
 217.333 485.333 285 506 367 506 c 1
 428 502 l 1
 502 492 l 1
 555 485 l 1
 596 483 l 1
 655.333 483 688 504.333 694 547 c 1
 696 590 l 1
 696 611.333 694 633 690 655 c 1
 680 719 l 1
 672 760 l 1
 784 760 l 1
 788.667 752.667 794.333 724 801 674 c 0
 807.667 620 810.333 579 809 551 c 0
 807 489.667 789.333 444.667 756 416 c 0
 726 390 677.333 377 610 377 c 0
 571.333 377 519 381.667 453 391 c 0
 425.667 395 401 397 379 397 c 0
 327.667 397 286.667 389 256 373 c 0
 225.333 356.333 205 330.333 195 295 c 0
 189 275 186 256.667 186 240 c 0
 186 208 195 184 213 168 c 1
 213 182.667 217.667 200.333 227 221 c 0
 235.667 243 254.333 258 283 266 c 1
 315.667 266 345.667 258 373 242 c 1
 401.667 220.667 422.667 200.667 436 182 c 1
602 184 m 0
 616.667 184 627 188.333 633 197 c 0
 639.667 205.667 643 215 643 225 c 0
 643 237 639.667 247.333 633 256 c 0
 626.333 262.667 616 266 602 266 c 0
 590.667 266 581 262.667 573 256 c 1
 566.333 247.333 563 237 563 225 c 0
 563 215 566.333 205.667 573 197 c 0
 579.667 188.333 589.333 184 602 184 c 0
EndSplineSet
EndChar
StartChar: uni0E59
Encoding: 218 3673
OldEncoding: 3673
Width: 759
Flags: W
Fore
205 346 m 1
 183 320 172 288.667 172 252 c 0
 172 234 175.333 215 182 195 c 0
 188 175.667 193 166 197 166 c 1
 203 194 217.333 219.333 240 242 c 0
 261.333 263.333 292 274 332 274 c 0
 364 274 390 267.333 410 254 c 0
 430 238.667 445 221.667 455 203 c 0
 463.667 183.667 469 161.667 471 137 c 1
 471 91 455.333 55 424 29 c 0
 392.667 1.66667 353.667 -12 307 -12 c 0
 261 -12 212.667 5 162 39 c 0
 113.333 71.6667 82 115.333 68 170 c 0
 62 190 59 216.667 59 250 c 0
 59 304 72.6667 353.667 100 399 c 0
 126.667 441.667 166.333 472.667 219 492 c 0
 247.667 502.667 276.333 508 305 508 c 0
 345.667 508 376.333 501 397 487 c 1
 423 471.667 438.667 460.333 444 453 c 1
 450.667 495 472 516 508 516 c 0
 537.333 516 563.333 508 586 492 c 1
 604.667 476.667 617 469 623 469 c 0
 635 469 641 493.667 641 543 c 0
 639 594.333 631.333 644 618 692 c 0
 604 738.667 596 762 594 762 c 2
 707 762 l 1
 714.333 744.667 721.667 722 729 694 c 0
 739.667 651.333 745 614 745 582 c 0
 747.667 518.667 742.333 464 729 418 c 0
 719 380 692.333 360 649 358 c 0
 633.667 358 614 365.667 590 381 c 1
 566 394.333 549.667 401 541 401 c 1
 535 399 532 393.667 532 385 c 1
 538.667 361.667 545 344.667 551 334 c 2
 711 45 l 1
 602 -8 l 1
 428 319 l 1
 416.667 343 399.667 361.667 377 375 c 0
 353.667 387 330.333 393 307 393 c 0
 263 393 229 377.333 205 346 c 1
332 92 m 0
 346 92 356 96 362 104 c 0
 369.333 113.333 373 123.667 373 135 c 0
 373 147 369.333 157.333 362 166 c 0
 355.333 172.667 345.333 176 332 176 c 0
 317.333 176 307 172 301 164 c 0
 294.333 155.333 291 145.667 291 135 c 0
 291 126.333 294.333 116 301 104 c 0
 307 96 317.333 92 332 92 c 0
EndSplineSet
EndChar
StartChar: uni0E5A
Encoding: 219 3674
OldEncoding: 3674
Width: 997
Flags: W
Fore
558 213 m 2
 558 526 l 2
 558 542 565 557.333 579 572 c 0
 593 586 609.333 593 628 593 c 0
 641.333 593 649.667 589 653 581 c 0
 657 572.333 659.333 561.667 660 549 c 1
 660 213 l 2
 660 197.667 658.333 179.667 655 159 c 0
 651.667 142.333 646.667 125.667 640 109 c 0
 634.667 98.3333 621.667 83.6667 601 65 c 2
 538 5 l 1
 699 5 l 1
 716.333 16.3333 731.333 30 744 46 c 0
 755.333 59.3333 766 76.3333 776 97 c 0
 782 112.333 786.667 131.667 790 155 c 0
 794.667 175 797 194.333 797 213 c 2
 797 584 l 2
 797 626.667 782.667 659.333 754 682 c 0
 726 704 695.333 715 662 715 c 0
 644 715 623.333 711.333 600 704 c 0
 577.333 696.667 559.333 682.667 546 662 c 1
 538.667 679.333 525.667 692.333 507 701 c 0
 489 710.333 471.333 715 454 715 c 0
 431.333 715 413 711 399 703 c 0
 384.333 694.333 372.333 683.333 363 670 c 1
 357 664 351 652.667 345 636 c 1
 326 590 l 1
 315.333 556.667 304 533 292 519 c 0
 280.667 506.333 270.667 500 262 500 c 1
 275.333 506.667 286.333 519 295 537 c 1
 302.333 557 306 576.333 306 595 c 0
 306 627.667 297.667 656 281 680 c 0
 265 703.333 240.667 715 208 715 c 0
 172.667 715 144.333 703.333 123 680 c 0
 101 655.333 90 621.667 90 579 c 0
 90 538.333 103.5 501.667 130.5 469 c 0
 157.5 436.333 194.333 420 241 420 c 0
 263 420 281 423 295 429 c 0
 309 435.667 322 444 334 454 c 0
 340 458.667 348 467.333 358 480 c 0
 368 493.333 377 510.333 385 531 c 0
 399.667 567.667 410.333 586 417 586 c 0
 421.667 586 424 583 424 577 c 2
 424 213 l 2
 424 197.667 422.333 180 419 160 c 0
 415 140 409.333 123.667 402 111 c 1
 403 111 l 1
 396.333 99.6667 383.667 84.6667 365 66 c 1
 348.333 47.3333 327.667 27 303 5 c 1
 454 5 l 1
 489.333 26.3333 515.667 56.3333 533 95 c 0
 549.667 134.333 558 173.667 558 213 c 2
164 605 m 0
 164 621.667 168.667 636.667 178 650 c 0
 187.333 662.667 198.667 669 212 669 c 0
 225.333 669 236.667 662.667 246 650 c 0
 255.333 635.333 260 620.333 260 605 c 0
 260 589 255.333 573.667 246 559 c 0
 236.667 546.333 225.333 540 212 540 c 0
 198.667 540 187.333 546.333 178 559 c 0
 168.667 572.333 164 587.667 164 605 c 0
EndSplineSet
EndChar
StartChar: uni0E5B
Encoding: 220 3675
OldEncoding: 3675
Width: 2098
Flags: W
Fore
1236 281 m 2
 1802 281 l 2
 1830.67 281 1854.33 290 1873 308 c 0
 1892.33 326 1902 348 1902 374 c 0
 1902 398.667 1892.67 420.667 1874 440 c 0
 1854.67 459.333 1832.33 469 1807 469 c 2
 1798 469 l 2
 1782.67 469 1764.67 464 1744 454 c 0
 1723.33 442.667 1708 423.667 1698 397 c 1
 1726 381 l 1
 1729.33 386.333 1733.33 390.667 1738 394 c 2
 1749 401 l 2
 1753.67 405 1760 407.333 1768 408 c 2
 1791 410 l 1
 1807 410 l 2
 1814.33 410 1821.33 406.333 1828 399 c 0
 1834 392.333 1837 384 1837 374 c 0
 1837 365.333 1833.67 357.667 1827 351 c 0
 1820.33 345 1812 342 1802 342 c 2
 1244 342 l 1
 1201 345 l 2
 1190.33 346.333 1178 352 1164 362 c 0
 1154 370 1145.67 384.667 1139 406 c 1
 1123 471 l 1
 1093 473 l 1
 1063 375 l 1
 1004 572 l 1
 941 356 l 1
 875 590 l 1
 845 536 l 1
 805 351 l 1
 740 626 l 1
 703 590 l 1
 685 508 666.667 438 648 380 c 0
 630 322.667 615.333 282.333 604 259 c 0
 586.667 219.667 564.333 189.333 537 168 c 0
 509.667 147.333 478.667 137 444 137 c 0
 418.667 137 395.333 143.667 374 157 c 0
 354.667 169 338 186 324 208 c 0
 310 230.667 299.333 254.333 292 279 c 0
 284.667 307.667 281 333.333 281 356 c 0
 281 374 284 397.667 290 427 c 0
 295.333 453 303.333 477.333 314 500 c 0
 326 523.333 340 542 356 556 c 0
 374.667 572 395.333 580 418 580 c 0
 437.333 580 454 574.667 468 564 c 0
 483.333 552.667 494.667 540 502 526 c 0
 510.667 510.667 517.333 494 522 476 c 0
 526 460 528 445.333 528 432 c 1
 525 390 l 1
 514 346 l 1
 508 331.333 501 319.333 493 310 c 0
 484.333 299.333 473.333 292.667 460 290 c 1
 480 310 490 334.667 490 364 c 0
 490 389.333 482 411.667 466 431 c 0
 450.667 450.333 430.333 460 405 460 c 0
 381.667 460 361.333 450.333 344 431 c 0
 326.667 411.667 318 389.333 318 364 c 0
 318 323.333 328.667 290 350 264 c 0
 371.333 237.333 405 224 451 224 c 0
 503 224 543.333 244 572 284 c 0
 600.667 324.667 615 373.333 615 430 c 0
 615 456.667 610 482.667 600 508 c 0
 590 534 576.667 557.333 560 578 c 0
 542.667 598.667 521.667 615.333 497 628 c 0
 473 641.333 446.667 648 418 648 c 0
 384 648 351.667 639.667 321 623 c 0
 291.667 607.667 266.333 585.667 245 557 c 0
 224.333 531.667 207.333 501 194 465 c 0
 182.667 431.667 176.667 396 176 358 c 0
 176 316.667 182.667 279 196 245 c 0
 209.333 211 228 181 252 155 c 0
 275.333 130.333 303.667 110.333 337 95 c 0
 370.333 80.3333 406 73 444 73 c 0
 480.667 73 513 79.3333 541 92 c 0
 570.333 106 596.667 126.667 620 154 c 0
 651.333 190.667 685.333 269.333 722 390 c 1
 788 115 l 1
 825 141 l 1
 869 338 l 1
 936 100 l 1
 1000 330 l 1
 1058 147 l 1
 1112 325 l 1
 1138.67 295.667 1180 281 1236 281 c 2
392 369 m 0
 392 381.667 394.667 392.333 400 401 c 0
 404 409.667 410 414 418 414 c 0
 424.667 414 430.667 409.667 436 401 c 0
 441.333 392.333 444 381.667 444 369 c 0
 444 357.667 441.333 347.667 436 339 c 0
 430.667 331 424.667 327 418 327 c 0
 410.667 327 404.667 331 400 339 c 0
 394.667 347.667 392 357.667 392 369 c 0
EndSplineSet
EndChar
StartChar: endash
Encoding: 221 8211
OldEncoding: 8211
Width: 1024
Flags: W
Fore
0 352 m 1
 1024 352 l 1
 1024 293 l 1
 0 293 l 1
 0 352 l 1
EndSplineSet
EndChar
StartChar: emdash
Encoding: 222 8212
OldEncoding: 8212
Width: 2050
Flags: W
Fore
0 352 m 1
 2050 352 l 1
 2050 293 l 1
 0 293 l 1
 0 352 l 1
EndSplineSet
EndChar
StartChar: quoteleft
Encoding: 223 8216
OldEncoding: 8216
Width: 274
Flags: W
Fore
45 649 m 0
 43 705.667 62 751.333 102 786 c 1
 141.333 823.333 179.667 844 217 848 c 1
 231 819 l 1
 201 803 180.667 790 170 780 c 1
 153.333 767.333 143 747.667 139 721 c 1
 161 721 182.333 714.667 203 702 c 0
 222.333 690.667 233.333 667.667 236 633 c 1
 236 611 228.333 589.667 213 569 c 1
 199 553 179.333 545 154 545 c 0
 117.333 545 90.6667 554.333 74 573 c 1
 54.6667 592.333 45 617.667 45 649 c 0
EndSplineSet
EndChar
StartChar: quoteright
Encoding: 224 8217
OldEncoding: 8217
Width: 274
Flags: W
Fore
242 767 m 0
 254 711.667 243.333 663.333 210 622 c 1
 178 578 144 550.667 108 540 c 1
 89 566 l 1
 115.667 587.333 133.333 603.667 142 615 c 0
 156 630.333 162.667 651.667 162 679 c 1
 140 675 118 677.333 96 686 c 0
 74.6667 694 59.6667 714.667 51 748 c 0
 47 769.333 50.6667 791.667 62 815 c 0
 72.6667 833.667 90.6667 845 116 849 c 0
 152 855.667 179.667 851.333 199 836 c 1
 221.667 820.667 236 797.667 242 767 c 0
EndSplineSet
EndChar
